<ttFont>
          <CharString index="0">
            rmoveto
            53.6199951172 26.4299926758 53.6199951172 27.4299926758 53.6199951172 31.4299926758 -10.6300048828 19.5399932861 -14.6399993896 17.5399932861 -15.6300048828 15.5399932861 -42.3200073242 -40.6300048828 -42.3200073242 -44.6300048828 -42.3200073242 -45.6300048828 rrcurveto
            return
          </CharString>
          <CharString index="1">
            rmoveto
            -181.759994507 -39 -111.669998169 225 -56.4199981689 160.210006714 -122.009994507 345.61000061 rcurveline
            -49.6900024414 140.75 -70.1799926758 191.470001221 -234.309997559 -99.2100067139 2.82000732422 -10.1000061035 rcurveline
            103.570007324 37.4700012207 63.6300048828 -36.9700012207 43.3800048828 -62.1000061035 -247.630004883 -594.529998779 rcurveline
            -40.6300048828 -20.6699981689 -35.2100067139 -16.9600067139 -29.1699981689 hhcurveto
            -9 -10 201.279998779 9.91000366211 -8.78999328613 hlineto
            -25.8200073242 -26.7799987793 22.7599945068 40.0200042725 14.6000061035 hvcurveto
            69.2599945068 178.320007324 rlineto
            274.289993286 hlineto
            38.75 -114.440002441 101.509994507 -299.559997559 159.279998779 -96 157.580001831 58 rlinecurve
            -719.729995728 482 rmoveto
            131.619995117 338.070007324 16.8399963379 -33.4199981689 13.25 -36.6799926758 11.75 -34.7100067139 rlinecurve
            78.9900054932 -233.259994507 rlineto
            endchar
          </CharString>
          <CharString index="2">
            -97 callsubr
            -155.759994507 110.929992676 -103.839996338 166.399993896 161.729995728 107.820007324 104.539993286 156.800003052 vhcurveto
            395.449996948 vlineto
            27.5599975586 1.74000549316 22.9499969482 19.6699981689 28.1100006104 hhcurveto
            16.3000030518 10 hlineto
            endchar
          </CharString>
          <CharString index="3">
            34.5399932861 -103 callgsubr
            return
          </CharString>
          <CharString index="4">
            hlineto
            -67 callgsubr
            33.1000061035 30.6000061035 -25.0899963379 -32.1900024414 hvcurveto
            -559.929992676 -102 callsubr
            return
          </CharString>
          <CharString index="5">
            -54 callgsubr
            -46 callgsubr
            -98 callgsubr
            return
          </CharString>
          <CharString index="6">
            rmoveto
            -9.00999450684 hlineto
            -21.9900054932 -37.0299987793 -81.0099945068 0 vhcurveto
            -226.779998779 -538.11000061 rlineto
            -44.4600067139 -20.2200012207 -36.9700012207 -18.4299926758 -30.4100036621 hhcurveto
            -9 -10 201.279998779 9.91000366211 -8.78999328613 hlineto
            -25.6900024414 -26.6399993896 22.5299987793 39.6399993896 14.1100006104 hvcurveto
            66.9900054932 170.929992676 rlineto
            269.350006104 hlineto
            63.9600067139 -170.320007324 rlineto
            -40.0200042725 14.6000061035 -26.7799987793 -22.75 -25.8200073242 hhcurveto
            -8.78999328613 -9.91000366211 225.179992676 10 -8.36000061035 hlineto
            -30.6399993896 -36.9900054932 18.4499969482 44.5099945068 -20.2200012207 hvcurveto
            -403.729995728 200.039993286 rmoveto
            125.789993286 320.949996948 120.529998779 -320.949996948 rlineto
            endchar
          </CharString>
          <CharString index="7">
            -59 callgsubr
            -213.419998169 299.630004883 191.039993286 hlineto
            -105 callgsubr
            -190 -28 callsubr
            113.869995117 -49 callsubr
            24.75 -71 callgsubr
            -18.5399932861 -77 callgsubr
          </CharString>
          <CharString index="8">
            -67 callsubr
            -104 callsubr
            return
          </CharString>
          <CharString index="9">
            378 708.940002441 160.619995117 rmoveto
            -197.759994507 554.699996948 -9.30999755859 0.320007324219 -186.199996948 -573.699996948 -151.270004272 486.690002441 rlineto
            39.3200073242 -11.7799987793 25.25 22.1399993896 25.5800018311 hhcurveto
            8.78999328613 9.91000366211 -222.229995728 -10 8 hlineto
            30.6399993896 40.4299926758 -17.5299987793 -43.4400024414 16.5800018311 hvcurveto
            202.259994507 -571.289993286 -44.4100036621 -119.740005493 -94.6600036621 -112 -111.630004883 22 rlinecurve
            -2 -10 145.020004272 -32 108.369995117 108 45.0899963379 141.240005493 rlinecurve
            161.160003662 503.61000061 204.13999939 -570.839996338 -40 callgsubr
            192.119995117 557.289993286 36.6300048828 106.259994507 79.1799926758 164.539993286 166 6.7799987793 rlinecurve
            10 vlineto
            -205 7.7799987793 -104.839996338 -171.699996948 -37.0099945068 -123.649993896 rrcurveto
            return
          </CharString>
          <CharString index="10">
            rmoveto
            -9 callsubr
            vlineto
            28.4199981689 23.1499938965 -20.1000061035 -28.0399932861 1.25 hvcurveto
            -394.479995728 vlineto
            -137.940002441 -0.229995727539 -89.0599975586 -99 callgsubr
            16.3000030518 hlineto
            28.8899993896 23.4400024414 -20.7599945068 -28.7599945068 0.539993286133 hvcurveto
            -394.899993896 vlineto
            return
          </CharString>
          <CharString index="11">
            8.66999816895 vlineto
            -6.17999267578 -11.8000030518 -53.9499969482 -6.7200012207 -40.2200012207 hhcurveto
            -279.050003052 hlineto
            -41.3099975586 -0.100006103516 -60.6999969482 10.5 -18.2799987793 7.69999694824 rrcurveto
            -29.2799987793 vlineto
            -16.3500061035 vlineto
            -80.3000030518 vlineto
            10.0200042725 0.149993896484 rlineto
            17.8200073242 vlineto
            32.5599975586 26.0800018311 26.4199981689 32.3999938965 0.639999389648 vhcurveto
            337.419998169 hlineto
            -420.059997559 -661.529998779 -0.179992675781 -9.32000732422 rlineto
            return
          </CharString>
          <CharString index="12">
            -41 callsubr
            -292.229995728 -103 callsubr
            return
          </CharString>
          <CharString index="13">
            rmoveto
            -70 callgsubr
            -10.1900024414 -72 callsubr
            35 28.3999938965 -28.0500030518 -60 callsubr
            0.660003662109 hvcurveto
            -554.729995728 vlineto
            -36.6499938965 -1.08000183105 -29.8999938965 -25.8099975586 -32.8800048828 hhcurveto
            -12.8000030518 -24 callgsubr
            -12.3399963379 hlineto
            -37 -27 30 32.8600006104 -0.369995117188 hvcurveto
            595.699996948 124.369995117 vlineto
            82 -0.570007324219 39 -67 3 -85 1 -30 -4 -19 -3 -11 -25 -92 -88.0899963379 -8.58000183105 -42.9100036621 -3.41999816895 rrcurveto
            -2 -25.1000061035 -22.9499969482 1.58999633789 -5.05000305176 hhcurveto
            -9.25 vlineto
            17.1000061035 -2.33999633789 18.5299987793 -18.5200042725 24.4700012207 -27.4799957275 65.3600006104 -73.4199981689 155.589996338 -170.800003052 48.0399932861 -54.7799987793 107 -122 115 -86 161.820007324 43 rrcurveto
            10 vlineto
            -126.820007324 -16 -101 103 -103 109 -113 119 -63 75 -85.6900024414 91.3899993896 rrcurveto
            96.6900024414 -0.389999389648 73 91 107 vvcurveto
            109 -77 72.25 -118 vhcurveto
            return
          </CharString>
          <CharString index="14">
            rmoveto
            -9.91000366211 8.78999328613 vlineto
            27.2100067139 21.4400024414 -21.2799987793 -38.3800048828 -9.92999267578 hvcurveto
            -133.910003662 -468.279998779 -197.210006714 553.160003662 -9.30999755859 0.320007324219 -186.199996948 -573.699996948 -151.270004272 486.690002441 rlineto
            39.3200073242 -11.7799987793 25.25 22.1399993896 25.5800018311 hhcurveto
            8.78999328613 9.91000366211 -222.229995728 -10 8 hlineto
            30.6399993896 40.4299926758 -17.5299987793 -43.4400024414 16.5800018311 hvcurveto
            226.940002441 -641.020004272 rlineto
            9.44000244141 hlineto
            1.64999389648 49.1499938965 19.3200073242 62.0099945068 0 vvcurveto
            151.5 460.669998169 204.490005493 -571.830001831 rlineto
            9.44000244141 hlineto
            1.5299987793 return
          </CharString>
          <CharString index="15">
            -50 callgsubr
            0.660003662109 -65 callgsubr
            -218.779998779 -62 callsubr
            35 28.3999938965 -28.0500030518 -60 callsubr
            0.660003662109 hvcurveto
            return
          </CharString>
          <CharString index="16">
            rmoveto
            10 -195.869995117 -10 15.7700042725 vlineto
            32.2799987793 19.1600036621 -16.4100036621 -29.2100067139 hvcurveto
            -177.190002441 vlineto
            -53.3000030518 -57.6699981689 -81.0700073242 -33.4299926758 -86.9100036621 hhcurveto
            -169.5 0.889999389648 -114.919998169 133.630004883 199.550003052 17 callgsubr
            114.919998169 133.630004883 169.5 132.050003052 91.5299987793 -64.3699951172 -114.440002441 30.3800048828 vhcurveto
            8.32000732422 hlineto
            -20.1799926758 141.240005493 rlineto
            37.8200073242 -58.75 -73.6600036621 29.7100067139 -109.990005493 hhcurveto
            -212.36000061 -146.770004272 -145.600006104 -218.399993896 -217.63999939 146.770004272 -145.36000061 212.649993896 -1 hvcurveto
            150.169998169 93.4400024414 68.2100067139 60.6000061035 45.6000061035 hvcurveto
            165.369995117 vlineto
            28.9199981689 -0.470001220703 18.1900024414 16.3099975586 32.3300018311 hhcurveto
            return
          </CharString>
          <CharString index="17">
            rmoveto
            90.9600067139 -14.8300018311 77 124 166 hhcurveto
            185 92 -153 -168 -209 -136 -138 -192 -184 -143 127 232 104 28 130 93.8999938965 61.7700042725 hvcurveto
            -6 9 rlineto
            -123.899993896 -62.7700042725 -69 -115 -142 vvcurveto
            -224 176 -150 230 232 171 152 223 197 -138 156 -208 -209 -55 -156 -90.9600067139 17.8300018311 vhcurveto
            endchar
          </CharString>
          <CharString index="18">
            rmoveto
            -165.210006714 -63 -97.6699981689 13 -408.330001831 142 -47.1900024414 16 -0.809997558594 25 -0.0899963378906 27.6600036621 rrcurveto
            577.410003662 -28 callgsubr
            -554.210006714 vlineto
            14 callsubr
            -0.869995117188 -29 -27 -34 hhcurveto
            -12.8200073242 hlineto
            -80 callgsubr
            -10 57.3000030518 -1 58.5299987793 -21 60.4600067139 -27 rlinecurve
            200.169998169 -89 221.38999939 -166 268.339996338 185 rrcurveto
            return
          </CharString>
          <CharString index="19">
            rmoveto
            0.149993896484 -10 rlineto
            18.4499969482 hlineto
            33.7400054932 27.3600006104 -27.0399932861 -33.5700073242 0.630004882812 hvcurveto
            -495.940002441 vlineto
            -544.580001831 581.509994507 rlineto
            -9.86000061035 hlineto
            0 9.21000671387 -56.6600036621 -68.2700042725 vvcurveto
            -519.529998779 vlineto
            -33.5500030518 -0.649993896484 -27.3600006104 -27.0099945068 -33.7200012207 hhcurveto
            -13 callgsubr
            -80 callgsubr
            -10 rlineto
            205.990005493 hlineto
            -0.149993896484 10 rlineto
            -13 callgsubr
            -33.4700012207 -27.1999969482 26.6199951172 33.2100067139 -1.03999328613 hvcurveto
            497.910003662 vlineto
            545.36000061 -581.720001221 rlineto
            9.08000183105 hlineto
            0 -9.11999511719 63.1499938965 64.4299926758 vvcurveto
            516.669998169 vlineto
            33.1900024414 1.05999755859 27.1900024414 26.5899963379 33.4600067139 hhcurveto
            18.4600067139 -13 callsubr
            10 rlineto
            return
          </CharString>
          <CharString index="20">
            -0.160003662109 10 rlineto
            -88 callgsubr
            return
          </CharString>
          <CharString index="21">
            rmoveto
            23.8000030518 19.2899932861 19.2899932861 23.8000030518 23.8000030518 -19.2899932861 19.2899932861 -23.8000030518 -23.8000030518 -19.2899932861 -19.2899932861 -23.8000030518 -23.8000030518 19.2899932861 -19.2899932861 23.8000030518 hvcurveto
            return
          </CharString>
          <CharString index="22">
            -35 -95 callgsubr
            return
          </CharString>
          <CharString index="23">
            -104 callsubr
            218.789993286 hlineto
            return
          </CharString>
          <CharString index="24">
            -82 callgsubr
            -292.229995728 -103 callsubr
            218.779998779 -86 callgsubr
            257.350006104 170.020004272 vlineto
            -53 callgsubr
            211.550003052 -52 callgsubr
            return
          </CharString>
          <CharString index="25">
            -38 callsubr
            28.0500030518 return
          </CharString>
          <CharString index="26">
            rmoveto
            -32.6999969482 26.1300048828 -11 33 31 vvcurveto
            66 49 51 72 61 54 -36 -66.9100036621 1.13000488281 13 callgsubr
            hlineto
            -2.14999389648 122.710006714 rlineto
            -39.4700012207 hlineto
            6.11000061035 -28.25 -33.9499969482 4.08999633789 -24.9499969482 hhcurveto
            -113 -61 -85 -82 -36 12 -53 46.6100006104 -36.8500061035 hvcurveto
            180.509994507 -141.88999939 rlineto
            -125.25 157.869995117 -73 -212 -187 hhcurveto
            -173 -73 180 143.559997559 110 hvcurveto
            -9 7 return
          </CharString>
          <CharString index="27">
            rmoveto
            -22.7400054932 -204.789993286 -120.13999939 -70.6999969482 -141.990005493 -0.429992675781 rrcurveto
            -168.130004883 4.07000732422 -114 131 201 vvcurveto
            199 112 133 175.809997559 vhcurveto
            120.190002441 -0.0700073242188 98 -62 30.3800048828 -116.740005493 rrcurveto
            8.32000732422 hlineto
            -20.1799926758 141.240005493 rlineto
            38.5299987793 -58.5299987793 -80 29 -98 hhcurveto
            -220 -143 -146 -217 -221 148 -143 209.130004883 -1 hvcurveto
            138.86000061 89.4499969482 62.8000030518 86.1399993896 52.6999969482 hvcurveto
            12.1900024414 156.949996948 rlineto
            endchar
          </CharString>
          <CharString index="28">
            -20.5399932861 53.6199951172 -31.4299926758 53.6199951172 -28.4299926758 53.6199951172 -25.4299926758 rrcurveto
            return
          </CharString>
          <CharString index="29">
            rmoveto
            -42.3200073242 46.6300048828 -42.3200073242 43.6300048828 -42.3200073242 40.6300048828 -15.6300048828 -14.5399932861 return
          </CharString>
          <CharString index="30">
            hhcurveto
            -76 callgsubr
            -70 callgsubr
            10 rlineto
            return
          </CharString>
          <CharString index="31">
            rmoveto
            10 hlineto
            114.179992676 -118.850006104 -6 -8 -113.63999939 66.1000061035 -104.660003662 -66 -6 8 rlineto
            return
          </CharString>
          <CharString index="32">
            -83 callgsubr
            -143.419998169 return
          </CharString>
          <CharString index="33">
            rmoveto
            -70 callgsubr
            -9.91000366211 -72 callsubr
            33.0800018311 30.6199951172 -25.0599975586 -32.1600036621 hvcurveto
            -560.13999939 vlineto
            -34.7700042725 -0.729995727539 -28.3699951172 -27.9799957275 -34.9600067139 -95 callgsubr
            338.539993286 -1 callgsubr
            139.899993896 209.759994507 210.179992676 -145.550003052 140.089996338 -213.589996338 17 callsubr
            -30.0399932861 rmoveto
            -20 callsubr
            170.399993896 113.740005493 -128.089996338 -192.13999939 -191.559997559 -112.740005493 -127.710006714 -171.399993896 17 callsubr
            hlineto
            endchar
          </CharString>
          <CharString index="34">
            -24 callsubr
            44.3600006104 -67.1799926758 80.2799987793 hhcurveto
            80.2799987793 68.0500030518 67.1799926758 109.600006104 19.3300018311 hvcurveto
            8.94000244141 50.7299957275 -4.69999694824 41.6399993896 -15.5899963379 30.1000061035 20.6600036621 -10.6600036621 21.4100036621 -9.47999572754 23.7700042725 -1.88000488281 50.6699981689 -4 38.8200073242 25.4499969482 33.2299957275 17.1999969482 -356.36000061 -676.460006714 rcurveline
            25.6999969482 -11 372.350006104 711 rlineto
            -272.029998779 -162.63999939 rmoveto
            -69 callgsubr
            261.880004883 -198.119995117 rmoveto
            -80.2799987793 -68.0500030518 -67.1799926758 -24 callsubr
            -4 callsubr
            -66.8600006104 80.2799987793 hhcurveto
            80.2799987793 68.0500030518 66.8600006104 109.600006104 19.3300018311 hvcurveto
            109.600006104 19.3300018311 -44.3600006104 67.1799926758 -80.2799987793 hhcurveto
            return
          </CharString>
          <CharString index="35">
            rlineto
            -76 callgsubr
            return
          </CharString>
          <CharString index="36">
            rmoveto
            -225.850006104 -0.169998168945 -140 -133 -198 hhcurveto
            -197 -131 148 189 189 132 142 178 117 119 -62 -116.740005493 30.3800048828 hvcurveto
            8.32000732422 hlineto
            -20.1799926758 141.240005493 rlineto
            40.5299987793 -61.5299987793 -103 27 -91 hhcurveto
            -220 -164 -156 -207 return
          </CharString>
          <CharString index="37">
            rmoveto
            -26.8200073242 -10 -36.5099945068 -26.8200073242 -46.5099945068 hhcurveto
            -46.5099945068 -36.5099945068 26.8200073242 26.8200073242 -10 hvcurveto
            -10 hlineto
            -56.2599945068 47.0899963379 -47.3800048828 55.9199981689 55.9199981689 47.0899963379 47.3800048828 56.2599945068 vhcurveto
            return
          </CharString>
          <CharString index="38">
            hlineto
            -80 callgsubr
            10 rlineto
            -55 callsubr
            -34.7299957275 -28.2299957275 27.6199951172 34.4600067139 -1.07000732422 hvcurveto
            return
          </CharString>
          <CharString index="39">
            189.539993286 vlineto
            31.7200012207 -1.38000488281 25.3000030518 -26.1100006104 -56 callgsubr
            return
          </CharString>
          <CharString index="40">
            -88 callgsubr
            554.949996948 vlineto
            return
          </CharString>
          <CharString index="41">
            rmoveto
            -7 callgsubr
            hlineto
            56.1799926758 -1.94000244141 28.1999969482 19.4900054932 50.5599975586 hhcurveto
            41.4900054932 28.4299926758 -25.3000030518 -39.9600067139 0.860000610352 hvcurveto
            -59.1100006104 1.27000427246 -53.4799957275 -34.5700073242 -63.1799926758 hhcurveto
            -1.2200012207 -22 callsubr
            rlineto
            79.6499938965 50.2799987793 -22.8800048828 -62.4199981689 -97.4400024414 -81.7599945068 -49.6699981689 -105.820007324 2.66999816895 hvcurveto
            -1.33000183105 -22 callsubr
            rlineto
            134.75 -26.6699981689 106.820007324 61 118.770004272 vvcurveto
            50.6699981689 -49.6000061035 35.4400024414 -50.1900024414 6.77000427246 vhcurveto
            42.6000061035 8.0299987793 43.8600006104 38.9600067139 42.0800018311 vvcurveto
            53.9499969482 -52.9799957275 37.9799957275 -70.4700012207 -0.990005493164 vhcurveto
            -46.8300018311 -0.649993896484 -30.1300048828 -14.8099975586 -18.1100006104 -22.0700073242 rrcurveto
            return
          </CharString>
          <CharString index="42">
            42 140.440002441 701 -62 callgsubr
            -4 callgsubr
            -28.0599975586 -16 callsubr
            -34.4499969482 -95 callgsubr
            218.919998169 hlineto
            -0.160003662109 10 rlineto
            -12.6499938965 hlineto
            -34.7299957275 -28.2299957275 27.6199951172 34.4600067139 -1.07000732422 hvcurveto
            598.960006714 -68 callsubr
            return
          </CharString>
          <CharString index="43">
            -18 callsubr
            -10.6300048828 -79 callsubr
            return
          </CharString>
          <CharString index="44">
            -69 callsubr
            598.960006714 189.539993286 vlineto
            31.7200012207 -1.38000488281 25.3000030518 return
          </CharString>
          <CharString index="45">
            hlineto
            -59 callsubr
            return
          </CharString>
          <CharString index="46">
            rmoveto
            -29.2700042725 -74.3200073242 -39.2700042725 -64.3200073242 -49.2700042725 -54.3200073242 49.6000061035 -55.6799926758 39.6000061035 -65.6799926758 29.6000061035 -75.6799926758 -9 -5 rcurveline
            -53.2700042725 83.3500061035 -53.2700042725 61.3500061035 -68.2700042725 57.3500061035 68.2700042725 55.9900054932 52.2700042725 51.9900054932 54.2700042725 89.9900054932 rrcurveto
            return
          </CharString>
          <CharString index="47">
            -34.8300018311 return
          </CharString>
          <CharString index="48">
            -70 callgsubr
            -10 -72 callsubr
            return
          </CharString>
          <CharString index="49">
            rmoveto
            -69.2799987793 -2.19000244141 -57.0700073242 -73.3800048828 34.4499969482 -82.6100006104 17.9299926758 -42.8699951172 51.6199951172 2.17999267578 13.5099945068 30.6900024414 11.8800048828 26.9799957275 -22.4100036621 18.5599975586 -13.8099975586 16.5299987793 -18.1300048828 21.7700042725 -10.5500030518 54.7599945068 64.4600067139 20.8099975586 rrcurveto
            return
          </CharString>
          <CharString index="50">
            355 749.740005493 713.699996948 rmoveto
            -9.13999938965 hlineto
            -272.820007324 -603.100006104 -279.080001831 603.399993896 rlineto
            -9.2799987793 hlineto
            -75.2100067139 -641.350006104 rlineto
            -39.5299987793 -5.13999938965 -32 -23.1199951172 -35.75 hhcurveto
            -15.9100036621 -10 193.669998169 9.44000244141 -15.5800018311 hlineto
            -21.5399932861 0.0500030517578 -19.3800048828 21.1000061035 1.94000244141 21.5500030518 43.8899993896 488.699996948 rcurveline
            255.740005493 -554.839996338 rlineto
            9.41999816895 hlineto
            6.44999694824 41.3899993896 27.8600006104 60.7200012207 0 vvcurveto
            210.160003662 467.240005493 45.3300018311 -503.199996948 2.03999328613 -22.6000061035 -19.4799957275 -20.0599975586 -21.5399932861 -0.0500030517578 rlinecurve
            -15.5800018311 return
          </CharString>
          <CharString index="51">
            rmoveto
            -1.33000183105 58.9299926758 44.1300048828 33.8899993896 52.9799957275 1.17999267578 rrcurveto
            54.5700073242 1.21000671387 39.3899993896 -37.0599975586 -63.8600006104 vvcurveto
            -102.649993896 -139.63999939 -100.179992676 -77.8099975586 -71.7899932861 vhcurveto
            -22 callsubr
            273.669998169 vlineto
            31.8099975586 98.0899963379 rlineto
            -22 callsubr
            hlineto
            -42.25 -23.4499969482 -15.0099945068 -14.2700042725 -39.6199951172 hhcurveto
            -137.429992676 hlineto
            65.8699951172 47.6300048828 122.940002441 80.7400054932 114.029998779 vvcurveto
            73.2200012207 -66.0500030518 48.8200073242 -82.5700073242 -42.5500030518 -46.0599975586 -18.1900024414 -25.3399963379 -25.3899993896 vhcurveto
            11.5700073242 -75.4700012207 rlineto
            endchar
          </CharString>
          <CharString index="52">
            -12.6499938965 hlineto
            return
          </CharString>
          <CharString index="53">
            921.210006714 -111 -89 callsubr
            return
          </CharString>
          <CharString index="54">
            rmoveto
            26.6900024414 25.8999938965 16.8800048828 21.1900024414 44.6600036621 -7.88999938965 53.9799957275 -9.5299987793 45.4299926758 -39.2200012207 64.5800018311 -11.25 60.7299957275 -10.5800018311 45.5599975586 54.1399993896 16.5500030518 16.4299926758 -26.3200073242 24.8399963379 rcurveline
            -23.1000061035 -17.7700042725 -35.1300048828 -29.4900054932 -38.2799987793 7.41999816895 -46.8500061035 9.08999633789 -52.3099975586 42.0800018311 -64.8300018311 8.83999633789 -54.4199981689 7.41999816895 -41.5899963379 -42.3800048828 -18.8899993896 -25.0399932861 rrcurveto
            return
          </CharString>
          <CharString index="55">
            rmoveto
            14 47 rlineto
            -22 callsubr
            hlineto
            -9.25999450684 -8 -3.86999511719 -4.07000732422 -24.5599975586 hhcurveto
            -29.0099945068 241.490005493 -6.24000549316 hlineto
            -220.190002441 -268.490005493 rlineto
            -22 callsubr
            182.100006104 -89.6100006104 vlineto
            -19.9400024414 -0.75 -16.3999938965 -10 callsubr
            -19.6300048828 hhcurveto
            -7.27000427246 -22 callsubr
            132.63999939 -7 callgsubr
            -7.27000427246 hlineto
            -19.8500061035 -16.7799987793 15.8399963379 19.8600006104 -0.169998168945 hvcurveto
            88.4799957275 vlineto
            -172.470001221 33.6699981689 rmoveto
            128.130004883 159.600006104 rlineto
            -159.600006104 vlineto
            endchar
          </CharString>
          <CharString index="56">
            -24.8500061035 return
          </CharString>
          <CharString index="57">
            -51 callgsubr
            596.479995728 hlineto
            -92 callsubr
            -554.210006714 -54 callgsubr
            -0.639999389648 -98 callgsubr
            414.559997559 -33 callsubr
          </CharString>
          <CharString index="58">
            hlineto
            31.2400054932 -1.89999389648 return
          </CharString>
          <CharString index="59">
            -0.649993896484 hvcurveto
            return
          </CharString>
          <CharString index="60">
            24.8500061035 return
          </CharString>
          <CharString index="61">
            hlineto
            58.2899932861 161.539993286 rlineto
            return
          </CharString>
          <CharString index="62">
            40.3899993896 -10.25 44.6100006104 -39.9799957275 36.9100036621 return
          </CharString>
          <CharString index="63">
            -16 callgsubr
            -624.270004272 vlineto
            0.00999450683594 -85.9199981689 -51.4600067139 -85 -65.5 -23 rrcurveto
            -9 vlineto
            102.009994507 80.1499938965 88 112.100006104 hvcurveto
            627.330001831 vlineto
            34.7299957275 0.770004272461 28.3500061035 27.9299926758 34.9199981689 -77 callsubr
            return
          </CharString>
          <CharString index="64">
            363.720001221 561.539993286 rmoveto
            52.2799987793 1.64999389648 43.0599975586 55.3699951172 -25.9900054932 62.3300018311 -13.5299987793 32.3500061035 -38.9499969482 -1.64999389648 -10.1900024414 -23.1600036621 -8.96000671387 -20.3600006104 16.9100036621 -14 10.4199981689 -12.4700012207 13.6799926758 -16.4299926758 7.96000671387 -41.3200073242 -48.6399993896 -15.6999969482 rrcurveto
            return
          </CharString>
          <CharString index="65">
            rmoveto
            62.6399993896 35.3399963379 15.6699981689 127.119995117 -1.67999267578 51.5399932861 -70 -14 rcurveline
            5.41000366211 -72.6699981689 -2.4700012207 -34.4199981689 -18.5899963379 -87.6699981689 rrcurveto
            return
          </CharString>
          <CharString index="66">
            -18.5399932861 -82 callgsubr
            return
          </CharString>
          <CharString index="67">
            rmoveto
            63.2599945068 2 52.1100006104 67 -31.4499969482 75.4299926758 -16.3699951172 39.1399993896 -47.1300048828 -1.99000549316 -12.3399963379 -28.0200042725 -10.8399963379 -24.6300048828 20.4600067139 -16.9499969482 12.6100006104 -15.0899963379 16.5599975586 -19.8800048828 9.63000488281 -50 -58.8500061035 -19 rrcurveto
            endchar
          </CharString>
          <CharString index="68">
            42 68.0299987793 701 -49 callgsubr
            return
          </CharString>
          <CharString index="69">
            -55 callsubr
            -35 -28.3999938965 return
          </CharString>
          <CharString index="70">
            714 rmoveto
            24.1399993896 -16.8500061035 -477.979995728 -711.149993896 -24.5099945068 16.0800018311 rlineto
            return
          </CharString>
          <CharString index="71">
            -51 callsubr
            -51 callsubr
            return
          </CharString>
          <CharString index="72">
            26.5299987793 22.4299926758 25.8000030518 hhcurveto
            8.78999328613 10 -225.179992676 -10.1000061035 8 hlineto
            31.0099945068 37.0099945068 -18.1600036621 -44.5500030518 20.2100067139 hvcurveto
            281.029998779 -641.350006104 rlineto
            9.00999450684 hlineto
            21.9900054932 37.0299987793 81.0099945068 0 vhcurveto
            return
          </CharString>
          <CharString index="73">
            795.36000061 rmoveto
            250 35 -250 hlineto
            return
          </CharString>
          <CharString index="74">
            -46 callsubr
            endchar
          </CharString>
          <CharString index="75">
            vlineto
            -97 -45.6900024414 -47 -41.9199981689 -19 vhcurveto
            5.30999755859 -8 rlineto
            66.7599945068 14 60.9199981689 47 108 vvcurveto
            667.089996338 vlineto
            28.8399963379 0.630004882812 23.5399932861 23.1900024414 29.0099945068 hhcurveto
            15.9100036621 hlineto
            0.130004882812 12.9100036621 rlineto
            endchar
          </CharString>
          <CharString index="76">
            rmoveto
            -32.6999969482 -69.1900024414 -15.5700073242 -52.7799987793 -169.660003662 -113.11000061 12 callgsubr
            113.11000061 133.630004883 169.660003662 52.5899963379 69.3800048828 -11.3699951172 -37.1600036621 vhcurveto
            endchar
          </CharString>
          <CharString index="77">
            -50 callgsubr
            -48 callsubr
            return
          </CharString>
          <CharString index="78">
            -49 callsubr
            24.75 -66 callgsubr
            12.1000061035 -0.149993896484 rlineto
            126.270004272 vlineto
            -18.5899963379 -82 callgsubr
            return
          </CharString>
          <CharString index="79">
            309.160003662 return
          </CharString>
          <CharString index="80">
            518.589996338 709 rmoveto
            -31.7400054932 -14.9600067139 -52.5500030518 -41.3000030518 -56.8899993896 4.33000183105 -49.3300018311 3.75 -27.4499969482 35.2400054932 -48.8300018311 13.1600036621 return
          </CharString>
          <CharString index="81">
            vvcurveto
            -14.7299957275 vlineto
            10 -0.119995117188 rlineto
            return
          </CharString>
          <CharString index="82">
            hlineto
            -80 callgsubr
            -10 rlineto
            218.75 hlineto
            -80 callgsubr
            10 rlineto
            return
          </CharString>
          <CharString index="83">
            -109.600006104 -19.3300018311 return
          </CharString>
          <CharString index="84">
            -14.5399932861 -10 callsubr
            -64 callsubr
            return
          </CharString>
          <CharString index="85">
            -6.66999816895 return
          </CharString>
          <CharString index="86">
            700 rmoveto
            0.130004882812 -12.9100036621 rlineto
            15.9100036621 hlineto
            29.0800018311 23.5899963379 -23.3200073242 -28.9400024414 0.539993286133 hvcurveto
            return
          </CharString>
          <CharString index="87">
            196.550003052 hlineto
            return
          </CharString>
          <CharString index="88">
            -261.86000061 hlineto
            -26.8000030518 -0.509994506836 -21.8399963379 -21.5800018311 -26.9199981689 hhcurveto
            -9.72999572754 hlineto
            -0.119995117188 -10 rlineto
            return
          </CharString>
          <CharString index="89">
            -17.5399932861 return
          </CharString>
          <CharString index="90">
            rmoveto
            -401.720001221 -191 rlineto
            -45 vlineto
            401.720001221 -191 rlineto
            48 vlineto
            -342.419998169 165.710006714 342.419998169 165.289993286 rlineto
            return
          </CharString>
          <CharString index="91">
            -27.1799926758 return
          </CharString>
          <CharString index="92">
            hlineto
            0.139999389648 -10 rlineto
            10.8999938965 hlineto
            30.1699981689 24.4799957275 -24.1799926758 -30.0299987793 0.559997558594 hvcurveto
            return
          </CharString>
          <CharString index="93">
            vlineto
            -30 -0.580001831055 -24.4600067139 -24 1 callsubr
            return
          </CharString>
          <CharString index="94">
            hlineto
            0.149993896484 return
          </CharString>
          <CharString index="95">
            -196 34 291.5 rmoveto
            6 -22.5 rlineto
            300 hlineto
            6 22.5 -6 22.5 rlineto
            -300 hlineto
            endchar
          </CharString>
          <CharString index="96">
            rmoveto
            -48 vlineto
            342.419998169 -165.289993286 -342.419998169 -165.710006714 rlineto
            -48 vlineto
            401.720001221 191 rlineto
            45 vlineto
            return
          </CharString>
          <CharString index="97">
            -14.6300048828 return
          </CharString>
          <CharString index="98">
            -10 16.3000030518 return
          </CharString>
          <CharString index="99">
            hlineto
            26.3099975586 -1.03999328613 21.0200042725 -21.6300048828 -26.5800018311 vvcurveto
            -14.7299957275 vlineto
            return
          </CharString>
          <CharString index="100">
            -0.139999389648 return
          </CharString>
          <CharString index="101">
            -15.4900054932 42.4799957275 44.8600006104 -15.1799926758 155.75 -17.4400024414 return
          </CharString>
          <CharString index="102">
            -10 4 hlineto
            18.75 10.8600006104 -17.2799987793 -17.2799987793 -7.88999938965 hvcurveto
            return
          </CharString>
          <CharString index="103">
            hvcurveto
            -24 callsubr
            44.3600006104 return
          </CharString>
          <CharString index="104">
            -37 callgsubr
            -14.7299957275 vlineto
            -26.9199981689 -21.5800018311 -21.8399963379 return
          </CharString>
          <CharString index="105">
            vlineto
            -29.9900054932 -0.580001831055 -24.4600067139 -24.1399993896 21 callgsubr
            hhcurveto
            return
          </CharString>
          <CharString index="106">
            7 callgsubr
            7 callgsubr
            15.7899932861 -15.7899932861 19.4700012207 hvcurveto
            return
          </CharString>
          <CharString index="107">
            -34.7400054932 -95 callgsubr
            218.789993286 hlineto
            return
          </CharString>
          <CharString index="108">
            21 callgsubr
            2 callsubr
            -20 callsubr
            return
          </CharString>
          <CharString index="109">
            hhcurveto
            -9 callgsubr
            -7 callsubr
            -10 rlineto
            return
          </CharString>
          <CharString index="110">
            -82 callsubr
            -50 callgsubr
            return
          </CharString>
          <CharString index="111">
            45.3699951172 15.0800018311 -15.1199951172 -42.3200073242 return
          </CharString>
          <CharString index="112">
            41.5700073242 51.2799987793 51.2799987793 41.5700073242 return
          </CharString>
          <CharString index="113">
            471.800003052 718.190002441 rmoveto
            return
          </CharString>
          <CharString index="114">
            214.559997559 -36.3600006104 14 -38.6399993896 -14 return
          </CharString>
          <CharString index="115">
            71.4700012207 return
          </CharString>
          <CharString index="116">
            -71.4700012207 return
          </CharString>
          <CharString index="117">
            vlineto
            -34.4799957275 -1.05000305176 -28.2400054932 return
          </CharString>
          <CharString index="118">
            -126.119995117 22 callsubr
            return
          </CharString>
          <CharString index="119">
            -145.600006104 -218.399993896 -218.399993896 return
          </CharString>
          <CharString index="120">
            vlineto
            10.0599975586 return
          </CharString>
          <CharString index="121">
            -35.8600006104 return
          </CharString>
          <CharString index="122">
            126.119995117 return
          </CharString>
          <CharString index="123">
            hlineto
            55.6900024414 138.800003052 rlineto
            return
          </CharString>
          <CharString index="124">
            hvcurveto
            -196.550003052 return
          </CharString>
          <CharString index="125">
            8.69000244141 -42 -48.3699951172 return
          </CharString>
          <CharString index="126">
            -160.460006714 -30 160.460006714 return
          </CharString>
          <CharString index="127">
            32.5200042725 return
          </CharString>
          <CharString index="128">
            15.0200042725 -25.9700012207 return
          </CharString>
          <CharString index="129">
            8 callgsubr
            8 callgsubr
            return
          </CharString>
        <CharString name=".notdef">
          -326 endchar
        </CharString>
        <CharString name="A">
          -14 14 700 14 hstem
          944.330001831 -191 rmoveto
          -181.759994507 -39 -111.669998169 225 -56.4199981689 160.210006714 -122.009994507 345.61000061 rcurveline
          -49.6900024414 140.75 -70.1799926758 191.470001221 -234.309997559 -99.2100067139 2.82000732422 -10.1000061035 rcurveline
          103.570007324 37.4700012207 63.6300048828 -36.9700012207 43.3800048828 -62.1000061035 -247.630004883 -594.529998779 rcurveline
          -40.6300048828 -20.6699981689 -35.2100067139 -16.9600067139 -29.1699981689 hhcurveto
          -9 -10 201.279998779 9.91000366211 -8.78999328613 hlineto
          -25.8200073242 -26.7799987793 22.7599945068 40.0200042725 14.6000061035 hvcurveto
          69.2599945068 178.320007324 rlineto
          274.289993286 hlineto
          38.75 -114.440002441 101.509994507 -299.559997559 159.279998779 -96 157.580001831 58 rlinecurve
          -719.729995728 482 rmoveto
          131.619995117 338.070007324 16.8399963379 -33.4299926758 13.25 -36.6799926758 11.75 -34.7100067139 rlinecurve
          78.9900054932 -233.259994507 rlineto
          endchar
        </CharString>
        <CharString name="AE">
          296 857.679992676 -12 callgsubr
          -234.509994507 289.630004883 195.039993286 -31 callgsubr
          -194 319.160003662 121.559997559 -52 callgsubr
          112.929992676 vlineto
          -18.5599975586 -82 callgsubr
          -153.710006714 -5 callsubr
          -366.770004272 -576.839996338 -69.5099945068 -109.589996338 -71 -46 -95 -4 rlinecurve
          -1 -10 83 -20 129.210006714 31 78 134.5 rlinecurve
          154.419998169 265.720001221 rlineto
          160.910003662 -19 callsubr
          465.570007324 16 callsubr
          -605.61000061 211.419998169 rmoveto
          143.479995728 246.88999939 rlineto
          -246.88999939 vlineto
          endchar
        </CharString>
        <CharString name="Aacute">
          366.600006104 773.970001221 -107 callsubr
          584.740005493 -971.970001221 -106 callsubr
        </CharString>
        <CharString name="Abreve">
          459.880004883 877.729995728 -70 callsubr
          474.460006714 -1068.72999573 -106 callsubr
        </CharString>
        <CharString name="Acircumflex">
          361.460006714 899.740005493 -76 callsubr
          689.009994507 -971.979995728 -106 callsubr
        </CharString>
        <CharString name="Adieresis">
          272.460006714 774.100006104 -106 callgsubr
          483.5 -965.100006104 -106 callsubr
        </CharString>
        <CharString name="Agrave">
          373.660003662 781 -78 callsubr
          -10 callsubr
          -18 callsubr
          -10.6399993896 -79 callsubr
          577.669998169 -965 -106 callsubr
        </CharString>
        <CharString name="Amacron">
          244.479995728 805.36000061 rmoveto
          250 35 -250 hlineto
          699.850006104 -1031.36000061 -106 callsubr
        </CharString>
        <CharString name="Aogonek">
          151 929.699996948 -147 rmoveto
          -181.699996948 -5 -85.3999938965 152.839996338 -63.6000061035 157.160003662 -138 341 rcurveline
          -52.4600067139 129.630004883 -73.5399932861 158.369995117 -232.100006104 -67.3500061035 3.16999816895 -10 rcurveline
          103.970001221 17.5500030518 66.1600036621 -34.25 45.5599975586 -54.6199951172 -237.720001221 -570.740005493 rcurveline
          -40.6300048828 -20.6699981689 -35.2100067139 -16.9600067139 -29.1699981689 hhcurveto
          -9 -10 201.279998779 9.91000366211 -8.78999328613 hlineto
          -25.8200073242 -26.7799987793 22.7599945068 40.0200042725 14.6000061035 hvcurveto
          69.2599945068 178.320007324 rlineto
          275.149993896 hlineto
          43.0899963379 -114 20.0700073242 -53.0800018311 20.6499938965 -44.2299957275 21.2899932861 -36.7200012207 rlinecurve
          -43.9499969482 2.69000244141 -40.3399963379 -20.6499938965 -13.6900024414 -39 -38.4299926758 -109 132.850006104 -52 56.4400024414 67 -3.58999633789 8 rcurveline
          -63.6100006104 -32 -54.2599945068 58 17.6199951172 55 8.80000305176 27 18.1199951172 17 32.3300018311 4 95.3999938965 -155 108.070007324 -9 125.100006104 18 rrcurveto
          -705.440002441 438 rmoveto
          123.880004883 318.199996948 16.7700042725 -27.9799957275 13.3699951172 -30.6900024414 11.5399932861 -30.5299987793 rlinecurve
          86.5700073242 -229 rlineto
          endchar
        </CharString>
        <CharString name="Aring">
          366.850006104 924.279998779 -84 callgsubr
          577.479995728 -1098.13000488 -106 callsubr
        </CharString>
        <CharString name="Atilde">
          502.300003052 852.520004272 -91 callgsubr
          452.029998779 -1043.52000427 -106 callsubr
        </CharString>
        <CharString name="B">
          18 57.6799926758 2 callgsubr
          12.4900054932 hlineto
          32.8399963379 29.8699951172 -24.7599945068 -37.5 1.49000549316 hvcurveto
          -582.169998169 vlineto
          -64.0399932861 27.5700073242 -44.9100036621 56.7100067139 -14.4299926758 108.61000061 -11 -2 rcurveline
          -168.470001221 -5.14999389648 113.330001831 -82 163 hhcurveto
          169 114 87 130 103 -66 82 -134.699996948 20.2400054932 hvcurveto
          47.6999969482 17.7599945068 32 49 63 vvcurveto
          102 -84 60 -123.199996948 vhcurveto
          -26.4799957275 -32.1499938965 rmoveto
          12.8600006104 hlineto
          92.8200073242 0.179992675781 53 -39 -93 vvcurveto
          -102 -65 -35 -59.9799957275 0.220001220703 vhcurveto
          0.229995727539 -9.41000366211 rlineto
          96.7599945068 0.190002441406 149 -28 -154 vvcurveto
          -106 -71 -80 -133.820007324 0.470001220703 vhcurveto
          -26.2599945068 -25.0800018311 1.4700012207 3.64999389648 -23.5299987793 hvcurveto
          endchar
        </CharString>
        <CharString name="C">
          245 786.169998169 374.850006104 -71 callsubr
          -207 165 -158 233 220 142 130 258.88999939 -8.83000183105 hvcurveto
          endchar
        </CharString>
        <CharString name="Cacute">
          245 442.119995117 763.970001221 -107 callsubr
          351.050003052 -396.119995117 -71 callsubr
          -207 165 -158 233 220 142 130 258.88999939 -8.83000183105 hvcurveto
          endchar
        </CharString>
        <CharString name="Ccaron">
          245 447.13999939 -79 callgsubr
          232.88999939 -508.059997559 -71 callsubr
          -207 165 -158 233 220 142 130 258.88999939 -8.83000183105 hvcurveto
          endchar
        </CharString>
        <CharString name="Ccedilla">
          245 786.169998169 374.850006104 -71 callsubr
          -202.880004883 158.5 -156.119995117 225.669998169 -6 hvcurveto
          -43.9600067139 -57 -73 callgsubr
          37.1900024414 43 rcurveline
          212.38999939 5 136.100006104 130.270004272 -8.64999389648 253.619995117 rrcurveto
          endchar
        </CharString>
        <CharString name="Cdotaccent">
          245 440.800003052 764.600006104 -86 callsubr
          345.369995117 -389.75 -71 callsubr
          -207 165 -158 233 220 142 130 258.88999939 -8.83000183105 hvcurveto
          endchar
        </CharString>
        <CharString name="D">
          262 -89 549.580001831 -20 callgsubr
          -602.979995728 -75 callgsubr
        </CharString>
        <CharString name="Dcaron">
          262 425.199996948 -79 callgsubr
          -620.330001831 -333.320007324 -20 callgsubr
          -602.979995728 -75 callgsubr
        </CharString>
        <CharString name="Dcroat">
          262 298.059997559 -34 callsubr
          -387.059997559 -280.779998779 -20 callgsubr
          -602.990005493 -75 callgsubr
        </CharString>
        <CharString name="Delta">
          76 321 714 rmoveto
          -316 -704.419998169 rlineto
          -9.58000183105 642 10 vlineto
          -316 704 rlineto
          227.220001221 -684.419998169 rmoveto
          -509.679992676 hlineto
          258.529998779 582.210006714 rlineto
          endchar
        </CharString>
        <CharString name="E">
          31 602.839996338 161.539993286 -100 callsubr
        </CharString>
        <CharString name="Eacute">
          31 248.25 763.970001221 -107 callsubr
          361.600006104 -609.429992676 -100 callsubr
        </CharString>
        <CharString name="Ecaron">
          31 253.270004272 -79 callgsubr
          243.449996948 -721.36000061 -100 callsubr
        </CharString>
        <CharString name="Ecircumflex">
          31 243.11000061 889.740005493 -76 callsubr
          465.869995117 -609.440002441 -59 callgsubr
          -213.419998169 299.630004883 191.039993286 hlineto
          -105 callgsubr
          -190 -28 callsubr
          113.869995117 -49 callsubr
          24.7599945068 -71 callgsubr
          -18.5500030518 -77 callgsubr
        </CharString>
        <CharString name="Edieresis">
          31 154.11000061 764.100006104 -106 callgsubr
          260.36000061 -602.550003052 -100 callsubr
        </CharString>
        <CharString name="Edotaccent">
          31 246.919998169 764.600006104 -86 callsubr
          355.919998169 -603.050003052 -59 callgsubr
          -213.419998169 299.630004883 191.039993286 hlineto
          -105 callgsubr
          -190 -28 callsubr
          113.869995117 -49 callsubr
          24.7599945068 -71 callgsubr
          -18.5500030518 -77 callgsubr
        </CharString>
        <CharString name="Egrave">
          31 255.309997559 771 -64 callgsubr
          354.529998779 -602.460006714 -59 callgsubr
          -213.419998169 299.630004883 191.039993286 hlineto
          -105 callgsubr
          -190 -28 callsubr
          113.869995117 -49 callsubr
          24.7599945068 -71 callgsubr
          -18.5500030518 -77 callgsubr
        </CharString>
        <CharString name="Emacron">
          31 126.130004883 -34 callsubr
          476.710006714 -668.820007324 -100 callsubr
        </CharString>
        <CharString name="Eng">
          243 590.229995728 -21 callsubr
          -500.380004883 vlineto
          -462.270004272 493.199996948 -90.3899993896 99.3699951172 -104.770004272 106.220001221 -160.059997559 -67.2200012207 rlinecurve
          4 -10.0700073242 118 34.4900054932 88.4799957275 -90.4199981689 60.6600036621 -74.6799926758 rlinecurve
          -563.100006104 vlineto
          -27.6799926758 -0.899993896484 -23.0200042725 -21.8800048828 -28.1699981689 -26 callgsubr
          502.830001831 vlineto
          499.960006714 -534.520004272 rlineto
          -63.2700042725 -32 callsubr
        </CharString>
        <CharString name="Eogonek">
          31 602.839996338 161.539993286 -59 callgsubr
          -213.419998169 299.630004883 191.039993286 hlineto
          -105 callgsubr
          -190 -28 callsubr
          113.869995117 -49 callsubr
          24.7599945068 -71 callgsubr
          -18.5500030518 -82 callgsubr
          -202.229995728 -103 callsubr
          446.190002441 hlineto
          -47 -10 -35.6600036621 -35 0.509994506836 -44 -48 callgsubr
          -1.32000732422 38 20.3899993896 27 55.4100036621 13 rrcurveto
          endchar
        </CharString>
        <CharString name="Eth">
          241 -110 549.580001831 rmoveto
          33 61.9499969482 40 50.6399993896 173.86000061 7.2799987793 rrcurveto
          -304.440002441 -76.8600006104 -30 76.8600006104 -267.759994507 vlineto
          -32.1600036621 -3.44000244141 -16 callsubr
          -25.0599975586 -33.0800018311 -95 callgsubr
          338.179992676 -1 callgsubr
          139.880004883 210.179992676 209.759994507 -145.600006104 135.300003052 -213.539993286 4.58999633789 hvcurveto
          -92.1799926758 1.97999572754 -77.2400054932 2.28999328613 -64.6100006104 -1.4700012207 -163.440002441 -3.71000671387 -83.0700073242 -27.7400054932 -39 -117.470001221 rrcurveto
          322.979995728 -218.570007324 rmoveto
          168.020004272 30 -168.020004272 305.270004272 -20 callsubr
          171.399993896 -0.960006713867 112.740005493 -127.710006714 -191.559997559 vvcurveto
          -192.13999939 -113.740005493 -128.089996338 -170.399993896 vhcurveto
          -196.550003052 hlineto
          endchar
        </CharString>
        <CharString name="Euro">
          157 673.479995728 153.979995728 rmoveto
          -98.2400054932 -18.8999938965 -68.4100036621 -38.8200073242 -123.350006104 hhcurveto
          -143.350006104 -116.440002441 112.869995117 153.809997559 -26.6100006104 hvcurveto
          379.160003662 hlineto
          10.5800018311 30 rlineto
          -393.720001221 hlineto
          -1.14999389648 12.2599945068 -0.589996337891 12.4700012207 12.6600036621 vvcurveto
          11.0200042725 0.449996948242 10.8800048828 0.880004882812 10.7200012207 vhcurveto
          418.350006104 hlineto
          10.5800018311 30 rlineto
          -425.289993286 hlineto
          155.679992676 25.0700073242 117.320007324 114.779998779 144.779998779 hhcurveto
          72.8500061035 127.539993286 -17 -108.410003662 -23.6600036621 hvcurveto
          10 hlineto
          20 callsubr
          96.0299987793 rlineto
          41.6799926758 -34.5200042725 -83.7799987793 17.6199951172 -100.949996948 hhcurveto
          -183.660003662 -148.5 -127.809997559 -172.580001831 -29.6000061035 hvcurveto
          -100.479995728 hlineto
          -10.5800018311 -30 rlineto
          107.169998169 hlineto
          -0.979995727539 -11.0599975586 -0.5 -11.2100067139 -11.3500061035 vvcurveto
          -12.3000030518 0.589996337891 -12.1399993896 1.16000366211 -11.9499969482 vhcurveto
          -96.8500061035 hlineto
          -10.5800018311 -30 rlineto
          111.580001831 hlineto
          -170.61000061 30.7799987793 147.850006104 -126 182.600006104 hhcurveto
          84.5099945068 92.1900024414 18.3800048828 43.6900024414 42.7899932861 hvcurveto
          1.16999816895 104.919998169 rlineto
          endchar
        </CharString>
        <CharString name="F">
          3 569.259994507 424.25 rmoveto
          -14.7299957275 vlineto
          -26.9199981689 -21.5800018311 -21.8399963379 -26.7899932861 -0.5 vhcurveto
          -319 -28 callsubr
          211.550003052 -52 callgsubr
          66.3600006104 vlineto
          17.2799987793 -33 callgsubr
          -95 callsubr
          218.779998779 -86 callgsubr
          257.350006104 320.020004272 vlineto
          26.3099975586 -1.03999328613 21.0200042725 -21.6300048828 -26.5800018311 vvcurveto
          -14.7299957275 vlineto
          9.77000427246 -0.119995117188 rlineto
          158.259994507 vlineto
          endchar
        </CharString>
        <CharString name="G">
          270 1115.97999573 -139 -94 callgsubr
          endchar
        </CharString>
        <CharString name="Gbreve">
          270 542.63999939 867.729995728 -70 callsubr
          563.339996338 -1006.72999573 -94 callgsubr
          endchar
        </CharString>
        <CharString name="Gcommaaccent">
          270 1115.97999573 -139 -94 callgsubr
          -701.080001831 -59 -90 callgsubr
        </CharString>
        <CharString name="Gdotaccent">
          270 448.029998779 764.600006104 -86 callsubr
          667.949996948 -903.600006104 -94 callgsubr
          endchar
        </CharString>
        <CharString name="H">
          237 664.61000061 610 rmoveto
          1.0299987793 -8 callgsubr
          -248.940002441 -386.990005493 -32 callgsubr
          -557.600006104 -41 callgsubr
          endchar
        </CharString>
        <CharString name="Hbar">
          240 664.61000061 498.11000061 rmoveto
          64.1300048828 30 -63.4400024414 81.8899993896 hlineto
          0.330001831055 -8 callgsubr
          -81.8899993896 -386.990005493 -35 callgsubr
          -88.3600006104 -30 88.3600006104 -428.11000061 -41 callgsubr
          -451.199996948 288.190002441 rmoveto
          137.050003052 386.800003052 -137.050003052 vlineto
          endchar
        </CharString>
        <CharString name="I">
          -183 256.979995728 619.770004272 -104 callgsubr
          endchar
        </CharString>
        <CharString name="IJ">
          156 256.979995728 619.770004272 -104 callgsubr
          196.100006104 627.199996948 -42 callgsubr
        </CharString>
        <CharString name="Iacute">
          -183 224.300003052 763.970001221 -107 callsubr
          39.6900024414 -151.210006714 -104 callgsubr
          endchar
        </CharString>
        <CharString name="Icircumflex">
          -183 219.160003662 889.740005493 -76 callsubr
          143.949996948 -151.210006714 -104 callgsubr
          endchar
        </CharString>
        <CharString name="Idieresis">
          -183 130.160003662 764.100006104 -106 callgsubr
          -61.5599975586 -144.330001831 -104 callgsubr
          endchar
        </CharString>
        <CharString name="Idotaccent">
          -183 222.979995728 764.600006104 -86 callsubr
          34.0099945068 -144.830001831 -104 callgsubr
          endchar
        </CharString>
        <CharString name="Igrave">
          -183 231.369995117 771 -64 callgsubr
          32.6199951172 -144.229995728 -104 callgsubr
          endchar
        </CharString>
        <CharString name="Imacron">
          -183 102.190002441 -34 callsubr
          154.800003052 -210.600006104 -104 callgsubr
          endchar
        </CharString>
        <CharString name="Iogonek">
          -183 333.850006104 hmoveto
          -87 callsubr
          546.899993896 vlineto
          0.589996337891 50.1499938965 18.1600036621 30.6699981689 59.9400024414 9.47999572754 -1.83999633789 10 rcurveline
          -94.7700042725 -18.0599975586 -103.020004272 0.190002441406 -56.9799957275 -6.19000244141 -92.0599975586 -10 -35 -38 -2 -47 -2 -54.0299987793 47 -41.9700012207 61.6900024414 16.3999938965 rrcurveto
          5.80999755859 vlineto
          -52.5399932861 1.78999328613 -23.0599975586 31.7799987793 3 40.2200012207 3 44 38.0599975586 18.3300018311 59.8600006104 3.53999328613 107.009994507 6.33000183105 rcurveline
          -600.330001831 -102 callsubr
          89.6399993896 hlineto
          -47 -10 -35.6600036621 -35 0.509994506836 -44 -48 callgsubr
          -1.32000732422 38 20.3899993896 27 55.3999938965 13 rrcurveto
          endchar
        </CharString>
        <CharString name="J">
          -237 60.0800018311 700.059997559 -42 callgsubr
        </CharString>
        <CharString name="K">
          93 201.919998169 627.820007324 rmoveto
          -87 callgsubr
          34.8300018311 -0.649993896484 hvcurveto
          100.11000061 302.119995117 rmoveto
          233.279998779 269.199996948 -63 callgsubr
          331.339996338 -353.179992676 177.600006104 -189 149.899993896 19 66.2299957275 15 rlinecurve
          10 vlineto
          -122.979995728 -114.13999939 76 85.6199951172 -79.8699951172 hvcurveto
          endchar
        </CharString>
        <CharString name="Kcommaaccent">
          93 201.919998169 627.820007324 rmoveto
          -87 callgsubr
          34.8399963379 -48 callsubr
          100.11000061 302.119995117 rmoveto
          233.279998779 269.199996948 -63 callgsubr
          331.339996338 -353.179992676 177.600006104 -189 149.899993896 19 66.2299957275 15 rlinecurve
          10 vlineto
          -122.979995728 -114.13999939 76 85.6199951172 -79.8699951172 hvcurveto
          -284.729995728 -219.619995117 -90 callgsubr
        </CharString>
        <CharString name="L">
          -175 -54 callsubr
          endchar
        </CharString>
        <CharString name="Lacute">
          -175 169.490005493 763.970001221 -107 callsubr
          758.720001221 -881.970001221 -89 callsubr
          endchar
        </CharString>
        <CharString name="Lcaron">
          -175 -43 callsubr
          559.440002441 -679.149993896 -89 callsubr
          endchar
        </CharString>
        <CharString name="Lcommaaccent">
          -175 -54 callsubr
          -722.779998779 -135 -90 callgsubr
        </CharString>
        <CharString name="Ldot">
          -100 -54 callsubr
          -591.789993286 522 rmoveto
          -30 callgsubr
        </CharString>
        <CharString name="Lslash">
          -133 921.210006714 -111 rmoveto
          -165.210006714 -63 -97.6699981689 13 -408.330001831 142 -47.1900024414 16 -0.809997558594 25 -0.0899963378906 27.6600036621 rrcurveto
          271.520004272 vlineto
          181.630004883 105.070007324 22 callgsubr
          -166.61000061 -96.3800048828 rlineto
          271.240005493 -28 callgsubr
          -308.850006104 vlineto
          -76.8699951172 -44.4799957275 21 callsubr
          61.8600006104 35.7899932861 rlineto
          -210.699996948 vlineto
          14 callsubr
          -0.880004882812 -29 -27 -34 hhcurveto
          -12.8200073242 hlineto
          -80 callgsubr
          -10 57.3000030518 -1 58.5299987793 -21 60.4600067139 -27 rlinecurve
          200.169998169 -89 221.38999939 -166 268.339996338 185 rrcurveto
          endchar
        </CharString>
        <CharString name="M">
          355 749.740005493 713.699996948 rmoveto
          -9.13999938965 hlineto
          -269 -602.679992676 -241.029998779 521.800003052 -31.5800018311 68.3600006104 -95.3000030518 135.210006714 -170.690002441 -38.4799957275 rlinecurve
          -10 vlineto
          121.059997559 15.4700012207 71.0299987793 -104.470001221 42.2200012207 -83.0200042725 -63.4299926758 -545.5 rcurveline
          -6.11000061035 -38.2599945068 -31.4600067139 -22.1300048828 -34.9900054932 -0.00999450683594 rrcurveto
          -15.9100036621 -10 193.669998169 9.44000244141 -15.5800018311 hlineto
          -18.5 -0.440002441406 -22.6499938965 19.1000061035 2.16000366211 24.0500030518 44.5899963379 496.490005493 rcurveline
          259.039993286 -562.630004883 rlineto
          9.41999816895 hlineto
          6.44999694824 41.3899993896 27.8600006104 60.7200012207 0 vvcurveto
          208.100006104 470.149993896 60.9799957275 -445.740005493 23.2700042725 -170.520004272 113.270004272 -144 204.309997559 30 rlinecurve
          10 vlineto
          -139.210006714 -6 -100.740005493 103 -29.2100067139 186.570007324 rrcurveto
          endchar
        </CharString>
        <CharString name="N">
          265 1050 -142 rmoveto
          -161.570007324 -31 -100.929992676 159 -71.5200042725 79.4600067139 rrcurveto
          564.789993286 vlineto
          33.1900024414 1.05999755859 27.1900024414 26.5899963379 33.4600067139 hhcurveto
          18.4600067139 -13 callsubr
          10 rlineto
          -206.070007324 -13 callsubr
          -10 rlineto
          18.4499969482 hlineto
          33.7400054932 27.3600006104 -27.0399932861 -33.5700073242 0.630004882812 hvcurveto
          -513.539993286 vlineto
          -503.36000061 559.779998779 -89.8200073242 99.8800048828 -105.38999939 105.710006714 -160 -67.2200012207 rlinecurve
          4 -10.0700073242 150 43.5500030518 100.910003662 -155.520004272 58.4299926758 -71.6900024414 rlinecurve
          -549.770004272 vlineto
          -33.5500030518 -0.649993896484 -27.3600006104 -27.0099945068 -33.7200012207 hhcurveto
          -13 callgsubr
          -80 callgsubr
          -10 rlineto
          205.990005493 hlineto
          -0.149993896484 10 rlineto
          -13 callgsubr
          -33.4700012207 -27.1999969482 26.6199951172 33.2100067139 -1.03999328613 hvcurveto
          500.130004883 vlineto
          527.419998169 -583.949996948 89.9799957275 -99 104.850006104 -90 160.919998169 51 rlinecurve
          endchar
        </CharString>
        <CharString name="Nacute">
          265 425.830001831 763.970001221 -107 callsubr
          631.169998169 -912.970001221 -93 callgsubr
          endchar
        </CharString>
        <CharString name="Ncaron">
          265 430.850006104 -79 callgsubr
          513.020004272 -1024.91000366 -93 callgsubr
          endchar
        </CharString>
        <CharString name="Ncommaaccent">
          265 1050 -142 -93 callgsubr
          -661.820007324 -56 -90 callgsubr
        </CharString>
        <CharString name="Ntilde">
          265 561.529998779 842.520004272 -91 callgsubr
          498.470001221 -984.520004272 -93 callgsubr
          endchar
        </CharString>
        <CharString name="O">
          353 286.830001831 469.039993286 -90 callsubr
        </CharString>
        <CharString name="OE">
          421 992.38999939 161.539993286 -59 callgsubr
          -207.440002441 299.630004883 190.059997559 hlineto
          -105 callgsubr
          -189.029998779 -28 callsubr
          109.88999939 -29 callsubr
          20 callgsubr
          hlineto
          -30.3399963379 0.0599975585938 -17.1300048828 2.44000244141 -19.7400054932 2.83000183105 rrcurveto
          -38 callgsubr
          338.470001221 hlineto
          -397.699996948 64.1999969482 -31 callsubr
        </CharString>
        <CharString name="Oacute">
          353 468.929992676 763.970001221 -107 callsubr
          -175.100006104 -301.929992676 -90 callsubr
        </CharString>
        <CharString name="Ocircumflex">
          353 463.789993286 889.740005493 -76 callsubr
          -70.8300018311 -301.940002441 -90 callsubr
        </CharString>
        <CharString name="Odieresis">
          353 374.800003052 764.100006104 -106 callgsubr
          -276.339996338 -295.050003052 -90 callsubr
        </CharString>
        <CharString name="Ograve">
          353 476 -72 callgsubr
          -182.169998169 -294.960006714 -90 callsubr
        </CharString>
        <CharString name="Ohungarumlaut">
          353 411.88999939 768.380004883 -81 callgsubr
          -236.279998779 -301.339996338 -90 callsubr
        </CharString>
        <CharString name="Omacron">
          353 346.820007324 -34 callsubr
          -59.9900054932 -361.320007324 -90 callsubr
        </CharString>
        <CharString name="Omega">
          232 742.88999939 139.800003052 rmoveto
          -63.3800048828 -35.1799926758 -22.5099945068 -21.3999938965 -59.4299926758 hhcurveto
          -129.949996948 hlineto
          161.679992676 53.3600006104 90.9499969482 179.179992676 98.6000061035 vvcurveto
          183.589996338 -150.210006714 144.25 -191.179992676 -199.949996948 -152.660003662 -144.25 -183.589996338 5.66000366211 vhcurveto
          3.03999328613 -98.6000061035 51.5899963379 -167.309997559 193.190002441 -65.25 rrcurveto
          -127.490005493 hlineto
          -59.4299926758 0.0200042724609 -22.5099945068 21.3999938965 -35.1799926758 63.3800048828 rrcurveto
          -10 hlineto
          47.7100067139 -139.800003052 rlineto
          237.149993896 65 hlineto
          -99.8800048828 57.7899932861 -108.199996948 110.669998169 152.699996948 vvcurveto
          166.789993286 121.210006714 131.050003052 154.270004272 156.880004883 120.050003052 -131.050003052 -166.789993286 -4.08999633789 vhcurveto
          -3.74000549316 -152.699996948 -115.419998169 -114.429992676 -93.8800048828 -54.0299987793 rrcurveto
          -65 239.759994507 vlineto
          47.7100067139 139.800003052 rlineto
          endchar
        </CharString>
        <CharString name="Oslash">
          353 784.699996948 10 callgsubr
          -49.1799926758 -59.1399993896 rlineto
          32.3000030518 -52.25 -63.3300018311 18.5 -71.6300048828 hhcurveto
          -209 -55 -156 -90.9600067139 17.8300018311 hvcurveto
          10 2 rlineto
          90.9600067139 -14.8300018311 77 124 166 hhcurveto
          68.0899963379 55.4900054932 -20.7299957275 -34.5700073242 42.9400024414 hvcurveto
          -441.660003662 -531.080001831 rlineto
          -63.9900054932 60.6900024414 -38.8699951172 93.5599975586 123.130004883 vvcurveto
          104 28 130 93.8999938965 61.7700042725 vhcurveto
          -6 9 rlineto
          -123.899993896 -62.7700042725 -69 -115 -142 vvcurveto
          -129.229995728 56.9100036621 -104.600006104 92.3200073242 -65.3800048828 vhcurveto
          -51.3899993896 -61.8000030518 25.0099945068 -22 54.6699981689 65.6399993896 rlineto
          -36.5099945068 62.9100036621 76.3300018311 -20.1199951172 84.2400054932 hhcurveto
          232 176 152 223 116.529998779 -48.2899932861 102.190002441 -82.5 64.0399932861 hvcurveto
          -31.75 -38.1199951172 rmoveto
          57.0800018311 -60.4199981689 28.4600067139 -88.7899932861 -93.4299926758 vvcurveto
          -209 -141 -138 -192 -73.9499969482 -66.5200042725 20.5099945068 39.6000061035 -53.1199951172 vhcurveto
          endchar
        </CharString>
        <CharString name="Otilde">
          353 604.63999939 842.520004272 -91 callgsubr
          -307.800003052 -373.479995728 -90 callsubr
        </CharString>
        <CharString name="P">
          44 60.8699951172 666.63999939 rmoveto
          12.1300048828 1.36000061035 42.9499969482 4.52000427246 20.8999938965 -25.3500061035 -70 callgsubr
          -32.8800048828 rlinecurve
          -541.419998169 vlineto
          -36.8600006104 -1.00999450684 -30 -26 -33 hhcurveto
          -12.8399963379 hlineto
          -80 callgsubr
          -10 rlineto
          218.899993896 hlineto
          -80 callgsubr
          10 rlineto
          -12.7400054932 hlineto
          -33 -30 26 36.8600006104 -0.970001220703 hvcurveto
          592.949996948 vlineto
          34.9700012207 6.08000183105 33.0800018311 6.89999389648 26.9199981689 3.19999694824 118 13 80.3200073242 -55.9900054932 4.67999267578 -129.009994507 3.41000366211 -94.0299987793 -39.4100036621 -77.9700012207 -76 -14 -50 -9 -67 17 -15.9499969482 61.9400024414 -9 -3 rcurveline
          9.94999694824 -80.9400024414 71 -27 68 4 114 7 69.9600067139 92 -3.96000671387 124 -4.75999450684 149.009994507 -109.240005493 73.9900054932 -160 -20 -49 -6 -103 -21 -89.5099945068 -9.46000671387 rrcurveto
          endchar
        </CharString>
        <CharString name="Q">
          343 1550.92999268 -84 rmoveto
          -116.149993896 -114 -279.270004272 12 -192.509994507 53 -100.330001831 27 -186.960006714 64 -134.399993896 26 144.949996948 20.2799987793 170.320007324 114.630004883 2.41999816895 223.080001831 2.83000183105 210.470001221 -170.570007324 161.570007324 -230.259994507 4.96000671387 rrcurveto
          -234.86000061 5.16999816895 -176.13999939 -158.570007324 -216.600006104 vvcurveto
          -147 87 -129 162 -23 vhcurveto
          128 -18 76 65 24.1699981689 89.9299926758 -9.00999450684 3 rcurveline
          -29.1499938965 -91.9299926758 -101 -34 -81 18 rrcurveto
          -104 23 -76 109 137 vvcurveto
          198.199996948 144 144.86000061 192 -5.05000305176 vhcurveto
          185.75 -4.08000183105 136.710006714 -155.13999939 -3.4700012207 -202.770004272 -3.96000671387 -231.86000061 -152.559997559 -100.13999939 -180.460006714 1 rrcurveto
          -10 vlineto
          144.789993286 -28 240.210006714 -111 124.979995728 -41 300.320007324 -99 249.449996948 123 49.9799957275 81 rrcurveto
          endchar
        </CharString>
        <CharString name="R">
          76 60 700.240005493 -94 callsubr
          endchar
        </CharString>
        <CharString name="Racute">
          76 323.509994507 763.970001221 -107 callsubr
          -256.509994507 -70.7299957275 -94 callsubr
          endchar
        </CharString>
        <CharString name="Rcaron">
          76 328.529998779 -79 callgsubr
          -374.660003662 -182.660003662 -94 callsubr
          endchar
        </CharString>
        <CharString name="Rcommaaccent">
          76 60 700.240005493 -94 callsubr
          13.6900024414 -894.240005493 -90 callgsubr
        </CharString>
        <CharString name="S">
          -27 217.699996948 476.869995117 -81 callsubr
          rlineto
          -146.559997559 -137 79 -220 220.410003662 hhcurveto
          243.589996338 87 267 157.970001221 -199.759994507 hvcurveto
          endchar
        </CharString>
        <CharString name="Sacute">
          -27 282.36000061 763.970001221 -107 callsubr
          -57.6600036621 -294.100006104 -81 callsubr
          rlineto
          -146.559997559 -137 79 -220 220.410003662 hhcurveto
          243.589996338 87 267 157.970001221 -199.759994507 hvcurveto
          endchar
        </CharString>
        <CharString name="Scaron">
          -27 287.380004883 -79 callgsubr
          -175.809997559 -406.039993286 -81 callsubr
          rlineto
          -146.559997559 -137 79 -220 220.410003662 hhcurveto
          243.589996338 87 267 157.970001221 -199.759994507 hvcurveto
          endchar
        </CharString>
        <CharString name="Scedilla">
          -27 217.699996948 476.869995117 -81 callsubr
          -135 -144.710006714 75.0399932861 -215.850006104 214.089996338 -6 rlinecurve
          -46.9799957275 -61 -73 callgsubr
          41.0200042725 48 rcurveline
          228.470001221 14 76.9700012207 256.330001831 -194.289993286 153.63999939 rrcurveto
          endchar
        </CharString>
        <CharString name="Scommaaccent">
          -27 217.699996948 476.869995117 -81 callsubr
          rlineto
          -146.559997559 -137 79 -220 220.410003662 hhcurveto
          243.589996338 87 267 157.970001221 -199.759994507 hvcurveto
          -155.869995117 -614.970001221 rmoveto
          52.2400054932 3 42.1000061035 56 -27.0700073242 61 -14.1000061035 33 -38.9100036621 -3 -5 callgsubr
          -15 18 callsubr
          -16 rrcurveto
          endchar
        </CharString>
        <CharString name="T">
          -39 callsubr
          -4 callgsubr
          -28.0500030518 -16 callsubr
          9 callgsubr
          -95 callgsubr
          218.919998169 -78 callgsubr
          -43.2200012207 -0.229995727539 rrcurveto
          endchar
        </CharString>
        <CharString name="Tbar">
          -39 callsubr
          -284.960006714 19 callsubr
          -284.820007324 -29 callgsubr
          -28.0500030518 -16 callsubr
          9 callgsubr
          -95 callgsubr
          218.919998169 -69 callsubr
          283.990005493 19 callgsubr
          284.960006714 -68 callsubr
          endchar
        </CharString>
        <CharString name="Tcaron">
          42 313.949996948 700.149993896 rmoveto
          -10 hlineto
          -114.179992676 118.850006104 6 8 113.63999939 -66.1000061035 104.660003662 66 6 -8 rlineto
          -352.050003052 -117.910003662 -49 callgsubr
          -19 callgsubr
          218.919998169 -78 callgsubr
          -43.2200012207 -0.229995727539 rrcurveto
          endchar
        </CharString>
        <CharString name="Tcedilla">
          -39 callsubr
          -19 callgsubr
          98.5599975586 hlineto
          -47.3399963379 -62 -73 callgsubr
          40.9900054932 48 rcurveline
          92.7700042725 -78 callgsubr
          -43.2200012207 -0.229995727539 rrcurveto
          endchar
        </CharString>
        <CharString name="Thorn">
          -22 184.61000061 547.899993896 rmoveto
          79.9199981689 vlineto
          -87 callgsubr
          34.8300018311 -0.649993896484 hvcurveto
          445.039993286 115.429992676 vlineto
          85.0599975586 47.2599945068 -61.2299957275 -91.8500061035 2.5 hvcurveto
          0.600006103516 -22.1100006104 -2.55999755859 -24.1300048828 -4.44000244141 -14.0800018311 rrcurveto
          -45.1300048828 -143.229995728 -164.509994507 35.4900054932 0 vvcurveto
          0.119995117188 -9.44999694824 rlineto
          125.470001221 -66.1300048828 160.440002441 81.1600036621 152.419998169 vvcurveto
          118.279998779 -69.2799987793 74.8500061035 -131.919998169 vhcurveto
          endchar
        </CharString>
        <CharString name="U">
          -58 callgsubr
          endchar
        </CharString>
        <CharString name="Uacute">
          207 421.570007324 763.970001221 -107 callsubr
          204.740005493 -523.570007324 -102 callgsubr
          endchar
        </CharString>
        <CharString name="Ucircumflex">
          207 416.429992676 889.740005493 -76 callsubr
          309.009994507 -523.580001831 -102 callgsubr
          endchar
        </CharString>
        <CharString name="Udieresis">
          -58 callgsubr
          -291.869995117 185.399993896 -106 callgsubr
          endchar
        </CharString>
        <CharString name="Ugrave">
          207 428.63999939 -72 callgsubr
          197.669998169 -516.600006104 -102 callgsubr
          endchar
        </CharString>
        <CharString name="Uhungarumlaut">
          207 364.529998779 768.380004883 -81 callgsubr
          143.559997559 -522.979995728 -102 callgsubr
          endchar
        </CharString>
        <CharString name="Umacron">
          -58 callgsubr
          -319.850006104 216.660003662 rmoveto
          250 35 -250 hlineto
          endchar
        </CharString>
        <CharString name="Uogonek">
          207 619.309997559 247.399993896 rmoveto
          -137.940002441 -0.160003662109 -89.1399993896 -91.9600067139 -133.589996338 hhcurveto
          -127.399993896 -84.9299926758 97.1199951172 145.679992676 hvcurveto
          381.710006714 vlineto
          27.9799957275 1.2200012207 23.1199951172 20.0399932861 28.3800048828 hhcurveto
          16.3000030518 10 -203.11000061 -10 16.2899932861 -43 callgsubr
          135.949996948 17.9299926758 87.7700042725 98.9299926758 0.00999450683594 141.479995728 rrcurveto
          332.669998169 vlineto
          186.979995728 95.1900024414 94.6499938965 142.759994507 vhcurveto
          10 vlineto
          -170.729995728 6.9700012207 -113.869995117 -99.1799926758 -0.0700073242188 -200.740005493 rrcurveto
          endchar
        </CharString>
        <CharString name="Uring">
          207 421.830001831 914.279998779 -84 callgsubr
          197.479995728 -649.729995728 -102 callgsubr
          endchar
        </CharString>
        <CharString name="V">
          142 378.210006714 103.679992676 rmoveto
          -209.600006104 524.070007324 rlineto
          39.9700012207 -14.5500030518 -35 callsubr
          278.190002441 608 46.8800048828 102.460006714 63.9299926758 128.330001831 166 6.7799987793 rlinecurve
          10 vlineto
          -204.990005493 7.7799987793 -87.0800018311 -136.38999939 -49.7700042725 -118.960006714 rrcurveto
          endchar
        </CharString>
        <CharString name="W">
          -98 callsubr
          endchar
        </CharString>
        <CharString name="Wacute">
          -98 callsubr
          -350.559997559 107.520004272 -107 callsubr
          endchar
        </CharString>
        <CharString name="Wcircumflex">
          -98 callsubr
          -355.699996948 233.289993286 -76 callsubr
          endchar
        </CharString>
        <CharString name="Wdieresis">
          -98 callsubr
          -444.699996948 107.649993896 -106 callgsubr
          endchar
        </CharString>
        <CharString name="Wgrave">
          -98 callsubr
          -343.490005493 114.550003052 -78 callsubr
          -10 callsubr
          -18 callsubr
          -10.6399993896 -79 callsubr
          endchar
        </CharString>
        <CharString name="X">
          86 581.410003662 666.720001221 rmoveto
          51.7299957275 69.0200042725 65.7200012207 108.330001831 108.039993286 1.52000427246 rrcurveto
          10 vlineto
          -117.490005493 10 -77.3200073242 -56.3800048828 -83.8399963379 -119.070007324 -191.990005493 -273.229995728 rcurveline
          -135.059997559 212.149993896 11 callgsubr
          32.8200073242 -21 callgsubr
          170.839996338 -269.509994507 -212.910003662 -299.899993896 -59.7400054932 -83.8000030518 -77.7899932861 -112 -114 -5 rlinecurve
          -10 vlineto
          124 -16 88.8300018311 66 88.7100067139 129.850006104 193.009994507 283.339996338 rcurveline
          154.160003662 -243.25 rlineto
          -28.2400054932 16 -24.3000030518 3 callgsubr
          -13.6300048828 hlineto
          0 callgsubr
          -192.910003662 303.020004272 rlineto
          endchar
        </CharString>
        <CharString name="Y">
          42 -40 747.13999939 -85 callgsubr
        </CharString>
        <CharString name="Yacute">
          42 331.039993286 763.970001221 -107 callsubr
          -364.039993286 -23.8300018311 -85 callgsubr
        </CharString>
        <CharString name="Ycircumflex">
          42 325.899993896 889.740005493 -76 callsubr
          -259.770004272 -23.8399963379 -85 callgsubr
        </CharString>
        <CharString name="Ydieresis">
          42 236.910003662 764.100006104 -106 callgsubr
          -465.279998779 -16.9600067139 -85 callgsubr
        </CharString>
        <CharString name="Ygrave">
          42 338.11000061 -72 callgsubr
          -371.11000061 -16.8600006104 -85 callgsubr
        </CharString>
        <CharString name="Z">
          60 991.210006714 -81 rmoveto
          -180.210006714 -77 -150.220001221 4 -410.779998779 135 -39.8300018311 13 -32.1799926758 11.9799957275 -34.6999969482 9.36000061035 436.309997559 689.990005493 rcurveline
          -96 callsubr
          12.4700012207 hlineto
          155.009994507 -10 524.699996948 -363 244.029998779 284 rrcurveto
          endchar
        </CharString>
        <CharString name="Zacute">
          60 323.929992676 763.970001221 -107 callsubr
          674.279998779 -851.970001221 rmoveto
          -180.210006714 -77 -150.220001221 4 -410.779998779 135 -39.8300018311 13 -32.1799926758 11.9799957275 -34.6999969482 9.36000061035 436.309997559 689.990005493 rcurveline
          -96 callsubr
          12.4700012207 hlineto
          155.009994507 -10 524.699996948 -363 244.029998779 284 rrcurveto
          endchar
        </CharString>
        <CharString name="Zcaron">
          60 328.949996948 -79 callgsubr
          556.130004883 -963.910003662 rmoveto
          -180.210006714 -77 -150.220001221 4 -410.779998779 135 -39.8300018311 13 -32.1799926758 11.9799957275 -34.6999969482 9.36000061035 436.309997559 689.990005493 rcurveline
          -96 callsubr
          12.4700012207 hlineto
          155.009994507 -10 524.699996948 -363 244.029998779 284 rrcurveto
          endchar
        </CharString>
        <CharString name="Zdotaccent">
          60 322.61000061 764.589996338 -86 callsubr
          668.600006104 -845.589996338 rmoveto
          -180.210006714 -77 -150.220001221 4 -410.779998779 135 -39.8300018311 13 -32.1799926758 11.9799957275 -34.6999969482 9.36000061035 436.309997559 689.990005493 rcurveline
          -96 callsubr
          12.4700012207 hlineto
          155.009994507 -10 524.699996948 -363 244.029998779 284 rrcurveto
          endchar
        </CharString>
        <CharString name="a">
          600 14 hstem
          359.410003662 714 -101 callsubr
        </CharString>
        <CharString name="aacute">
          355.830001831 763.970001221 -107 callsubr
          10.5800018311 -56.9700012207 -101 callsubr
        </CharString>
        <CharString name="abreve">
          449.11000061 867.729995728 -70 callsubr
          -99.6999969482 -153.729995728 -57 callgsubr
        </CharString>
        <CharString name="acircumflex">
          350.690002441 889.729995728 -76 callsubr
          114.850006104 -56.9799957275 -101 callsubr
        </CharString>
        <CharString name="acute">
          -137 207.669998169 745.970001221 -107 callsubr
          endchar
        </CharString>
        <CharString name="adieresis">
          261.699996948 764.089996338 -106 callgsubr
          -90.6600036621 -50.1000061035 -57 callgsubr
        </CharString>
        <CharString name="ae">
          325 847.679992676 -12 callgsubr
          -164.509994507 289.630004883 170.039993286 -31 callgsubr
          -169 319.160003662 211.550003052 -52 callgsubr
          112.929992676 vlineto
          -18.5599975586 -82 callgsubr
          -243.710006714 -5 callsubr
          -373.990005493 -584.089996338 rlineto
          -31.6699981689 -19.8200073242 -39.2899932861 -29.6699981689 -33.1799926758 hhcurveto
          -7 -10 198.520004272 10 -9.44999694824 hlineto
          -29.9600067139 -1.78999328613 -13.3399963379 30.25 16.5899963379 28.5800018311 149.429992676 253.179992676 rcurveline
          163.759994507 -19 callsubr
          395.570007324 16 callsubr
          -538.190002441 211.419998169 rmoveto
          146.059997559 247.470001221 rlineto
          -247.470001221 vlineto
          endchar
        </CharString>
        <CharString name="agrave">
          362.899993896 -34 callgsubr
          3.52000427246 -50 -101 callsubr
        </CharString>
        <CharString name="amacron">
          233.720001221 -34 callsubr
          125.690002441 -116.36000061 -101 callsubr
        </CharString>
        <CharString name="ampersand">
          242 1139.44000244 -61 rmoveto
          -177.059997559 -86 -151.970001221 85 -122.419998169 98 -63.6399993896 52.3099975586 rcurveline
          195.759994507 182.029998779 23.4600067139 377.339996338 -346.800003052 141.539993286 -4.78999328613 -6 rcurveline
          334.61000061 -174.070007324 -49.4600067139 -340.350006104 -175.679992676 -161.309997559 -91.5700073242 76.8399963379 -117.279998779 100.570007324 -20.9199981689 18.1199951172 -105.179992676 91 -59.2400054932 64 -2.82000732422 84.1300048828 -3.00999450684 82.8699951172 51.9400024414 59 81.2799987793 0.449996948242 80.7200012207 -0.449996948242 60.0200042725 -58 3.72999572754 -96.0500030518 rrcurveto
          10 hlineto
          13.3999938965 113.199996948 -35.1199951172 39.8500061035 -60.0500030518 30 -78.6499938965 0.949996948242 rlinecurve
          -125.419998169 1.05000305176 -71.3800048828 -75 3.7799987793 -105.029998779 1.50999450684 -44.6900024414 14.6300048828 -40.4100036621 26.7100067139 -40.5500030518 -64.8000030518 -34.3500061035 -53.3600006104 -63.5599975586 3.4700012207 -99.4100036621 5.52000427246 -158 181.880004883 -84 166.36000061 20 56.5500030518 7 51.7899932861 20.0500030518 45.3699951172 29.6600036621 46.1799926758 -38.3099975586 40.3300018311 -32.4100036621 21.8500061035 -17 125.320007324 -95 183.369995117 -68 155.380004883 134 rrcurveto
          -727.210006714 90 rmoveto
          -148.580001831 -15.0299987793 -127.38999939 100.029998779 -4.25999450684 122 -1.85000610352 52.9100036621 13.9400024414 60.9400024414 47.1799926758 44.6100006104 31.9900054932 -41.5500030518 44.3099975586 -42.6000061035 55.5200042725 -48.3099975586 36.8600006104 -32.1000061035 97.7200012207 -83.1100006104 85.7100067139 -71.4299926758 -40.2299957275 -25.2299957275 -44.4400024414 -16.4199981689 -46.4799957275 -4.69999694824 rrcurveto
          endchar
        </CharString>
        <CharString name="aogonek">
          161 748.029998779 9.19000244141 rmoveto
          -8.80000305176 hlineto
          -29.7799987793 -35.2700042725 18.0099945068 40.8200073242 -18.3699951172 hvcurveto
          -283.059997559 645.979995728 rlineto
          -9.00999450684 hlineto
          -21.9900054932 -37.0299987793 -81.0099945068 0 vhcurveto
          -240.009994507 -538.080001831 rlineto
          -44.5500030518 -20.3000030518 -37.0099945068 -18.1600036621 -30.4100036621 hhcurveto
          -9 -10 201.240005493 9.89999389648 -8.78999328613 hlineto
          -25.7700042725 -26.7299957275 22.3600006104 39.8699951172 14.4100036621 hvcurveto
          70.8699951172 170.649993896 rlineto
          286.910003662 hlineto
          68.3899993896 -172.11000061 15.4799957275 -41.4799957275 -5.63000488281 -21.8099975586 -28.5700073242 -15.5899963379 rlinecurve
          -24.7700042725 -14 -24.9499969482 -27 0.399993896484 -35 1.32000732422 -116 145.470001221 -1 30.2200012207 82 -6 6 rcurveline
          -49.1300048828 -51 -74.8399963379 36 57 vvcurveto
          31 20.4199981689 33 42.3500061035 7 vhcurveto
          7.33000183105 42.7200012207 9.63999938965 -7.22999572754 83.3500061035 hhcurveto
          -520.339996338 272.899993896 rmoveto
          134.160003662 323.059997559 128.369995117 -323.059997559 rlineto
          endchar
        </CharString>
        <CharString name="approxequal">
          -95 66.6799926758 349.699996948 -53 callsubr
          26.6799926758 -194.199996948 -53 callsubr
          endchar
        </CharString>
        <CharString name="aring">
          356.089996338 914.279998779 -84 callgsubr
          3.32000732422 -183.130004883 -101 callsubr
        </CharString>
        <CharString name="asciicircum">
          -53 232.429992676 370.63999939 rmoveto
          60 hlineto
          195.570007324 -188.75 rlineto
          -63 hlineto
          -162.570007324 153.990005493 -164.429992676 -153.990005493 rlineto
          -63 hlineto
          endchar
        </CharString>
        <CharString name="asciitilde">
          -83 408.050003052 352.649993896 rmoveto
          20 -60.9799957275 -39.9799957275 -34.2799987793 -42.3999938965 1.30999755859 -51.8000030518 1.60000610352 -83.4199981689 98.6699981689 -70.1699981689 -1.33000183105 -62.1799926758 -1.17999267578 -55.1100006104 -44.5800018311 17 -93.1900024414 rrcurveto
          45 hlineto
          -12 68.5500030518 29.6499938965 27.1699981689 37.6499938965 -1.77000427246 rrcurveto
          -2.78999328613 59.3999938965 76.75 -96.1499938965 69.2200012207 hhcurveto
          66.5700073242 63.8000030518 42.4600067139 96.4799957275 -23 hvcurveto
          endchar
        </CharString>
        <CharString name="asterisk">
          -190 347.830001831 623.210006714 rmoveto
          3.11999511719 35.7100067139 -23.5099945068 27.0599975586 -92.2299957275 -44.0500030518 -37.1900024414 -28.6600036621 15.8800048828 44.2400054932 12.6000061035 101.330001831 -33 14 -33 -14 13.3999938965 -101.330001831 15.7700042725 -44.25 -37.3600006104 28.8399963379 -92.4700012207 43.3000030518 -23.5099945068 -27.0599975586 3.11999511719 -35.7100067139 100.509994507 -18.5700073242 47.0099945068 1.33000183105 -38.9199981689 -26.5 -69.75 -74.5700073242 18.4700012207 -30.7200012207 34.9299926758 -8.07000732422 48.7200012207 89.8500061035 13.2799987793 45.1799926758 13.2100067139 -45.2700042725 rlineto
          49.3600006104 -89.3800048828 34.9299926758 8.07000732422 18.4700012207 30.7200012207 -70.3999938965 74.1000061035 -38.7799987793 26.5299987793 47.0800018311 -1.42999267578 rlineto
          endchar
        </CharString>
        <CharString name="at">
          401 549.850006104 234.210006714 rmoveto
          5.83999633789 -107.229995728 rlineto
          -24.1199951172 -25.9499969482 -12.7299957275 -14.6600036621 vhcurveto
          -6.96000671387 hlineto
          -1.30000305176 -7.38999938965 rlineto
          158.169998169 hlineto
          1.32000732422 7.46000671387 rlineto
          -5.11000061035 hlineto
          -19.1000061035 -18.1600036621 14.4900054932 20 callsubr
          -3.80000305176 hvcurveto
          -41.3300018311 403.699996948 rlineto
          -6.7200012207 hlineto
          -181.789993286 -249.910003662 -51.3800048828 -69.9799957275 -72.6499938965 -119.199996948 -74.9600067139 1.00999450684 rlinecurve
          -85.3099975586 1.14999389648 -15.0299987793 140.679992676 64.8500061035 145.660003662 85.1399993896 191.220001221 175.300003052 102.320007324 200.61000061 -26.3200073242 162.190002441 -21.2799987793 93.4799957275 -137.419998169 -22.8300018311 -189.779998779 -36.5299987793 -303.720001221 -270.229995728 -196.330001831 -352.61000061 138 4 -10 rcurveline
          431.419998169 -183 256.63999939 269.130004883 32.3000030518 285.919998169 21.8600006104 193.449996948 -118.179992676 158.820007324 -201.520004272 26.2100067139 -240.029998779 31.2200012207 -200.990005493 -121.929992676 -85.0200042725 -201.880004883 -74.6699981689 -177.289993286 66.2400054932 -145.63999939 108.929992676 0.820007324219 70.2799987793 0.529998779297 53.5 62.0500030518 70.75 98.8099975586 rrcurveto
          152.229995728 216.630004883 rmoveto
          10.5700073242 -194.240005493 rlineto
          -146.899993896 hlineto
          endchar
        </CharString>
        <CharString name="atilde">
          491.539993286 842.520004272 -91 callgsubr
          -122.119995117 -128.509994507 -101 callsubr
        </CharString>
        <CharString name="b">
          10 60.3500061035 2 callgsubr
          12.4900054932 hlineto
          34.8999938965 0.0800018310547 28.2299957275 -27.6199951172 1.07000732422 9 callgsubr
          rrcurveto
          -555.789993286 vlineto
          -34.5299987793 -1 -28.2599945068 -27.6999969482 -34.7799987793 -95 callgsubr
          243.649993896 hlineto
          149.009994507 84 75 112.940002441 hvcurveto
          0.0899963378906 99.0599975586 -65 78 -106.449996948 15.8500061035 56.4499969482 16.1499938965 54 51 0.380004882812 84.8000030518 rrcurveto
          100.199996948 -0.380004882812 -77 67 -140.210006714 hhcurveto
          -56.4799957275 -663.529998779 rmoveto
          631.419998169 52.8600006104 vlineto
          94.8200073242 0.110000610352 51 -52 0.380004882812 -90.3999938965 -0.380004882812 -128.600006104 -104 -18 -60.9799957275 0.220001220703 0.229995727539 -9.41000366211 rcurveline
          96.7599945068 0.190002441406 129 -25 -0.0899963378906 -149.880004883 0.0899963378906 -101.119995117 -59 -58 -102.630004883 0.470001220703 rrcurveto
          endchar
        </CharString>
        <CharString name="backslash">
          -170 7 696.5 rmoveto
          360.940002441 -710.5 30.6600036621 19.0800018311 -360.509994507 708.919998169 rlineto
          endchar
        </CharString>
        <CharString name="bar">
          23 callgsubr
          -180 rmoveto
          45 880 -45 hlineto
          endchar
        </CharString>
        <CharString name="braceleft">
          -144 7.89999389648 421.419998169 rmoveto
          11.4199981689 -42.4199981689 44 -41 53 21 70 28 -14 100 -3 77 -8 240 129 23 107.369995117 -58.8500061035 -4.9700012207 -7.46000671387 rcurveline
          -146.399993896 38.3099975586 -20 -104 5 -124 4 -88 2 -103 -86 -38 -54 -24 -77 8 -20.1900024414 92.3999938965 rrcurveto
          397.539993286 -546.399993896 rmoveto
          -116.350006104 -63 -120 37 8 230 3 76 14 101 -70 28 -52 21 -45 -40 -11.8699951172 -43.1999969482 -7.44999694824 2.99000549316 rcurveline
          20.3200073242 91.2100067139 75 10 56 -25 94 -42 -12 -110 -3 -77 -5 -136 32 -90 135.38999939 36 rrcurveto
          endchar
        </CharString>
        <CharString name="braceright">
          -144 35 768.149993896 rmoveto
          107.369995117 58.8500061035 129 -23 -8 -240 -3 -77 -14 -100 70 -28 53 -21 44 41 11 42.4199981689 8 -3.00999450684 rcurveline
          -20 -92.3999938965 -77 -8 -54 24 -86 38 2 103 4 88 5 124 -20 104 -146.399993896 -38.3099975586 rrcurveto
          385.399993896 -541.88999939 rmoveto
          -12 43.1999969482 -45 40 -52 -21 -70 -28 14 -101 3 -76 8 -230 -120 -37 -116.350006104 63 4.94999694824 7 rcurveline
          135.399993896 -36 32 90 -5 136 -3 77 -12 110 94 42 56 25 75 -10 20 -91.2100067139 rrcurveto
          endchar
        </CharString>
        <CharString name="bracketleft">
          -244 120 -90 rmoveto
          172.490005493 10 hlineto
          -107.490005493 20 rlineto
          752 vlineto
          104.179992676 20 rlineto
          10 -169.179992676 vlineto
          endchar
        </CharString>
        <CharString name="bracketright">
          -244 43.3099975586 722 rmoveto
          -10 vlineto
          104.179992676 -20 rlineto
          -752 vlineto
          -107.490005493 -20 rlineto
          -10 172.490005493 812 vlineto
          endchar
        </CharString>
        <CharString name="breve">
          -136 313.210006714 853.729995728 -70 callsubr
          endchar
        </CharString>
        <CharString name="brokenbar">
          23 callgsubr
          350 rmoveto
          45 350 -45 hlineto
          -880 vmoveto
          45 350 -45 hlineto
          endchar
        </CharString>
        <CharString name="bullet">
          -241 181.479995728 229.210006714 rmoveto
          57.0399932861 18.9900054932 5.67999267578 5.30000305176 18.7100067139 56 3.66000366211 11.0500030518 0.149993896484 7.94000244141 -3.24000549316 9.83000183105 -19.1699981689 57.5800018311 -5.22999572754 5.2200012207 -57.6100006104 19.1699981689 -9.7200012207 3.25999450684 -7.63000488281 0 -9.75 -3.27000427246 -57.5800018311 -19.1699981689 -5.2200012207 -5.22999572754 -19.1699981689 -57.6100006104 -3.22999572754 -9.80000305176 0 -7.46000671387 3.24000549316 -9.83000183105 19.1699981689 -57.5800018311 5.22999572754 -5.2200012207 57.6100006104 -19.1699981689 rrcurveto
          9.7200012207 -3.25999450684 7.61999511719 0 9.7200012207 3.25999450684 rrcurveto
          -5.91999816895 41.6100006104 rmoveto
          -5.47999572754 -1.83999633789 -4.30000305176 0 -5.47999572754 1.83999633789 -32.5200042725 10.8200073242 -2.94999694824 2.94000244141 -10.8200073242 32.5 -1.83000183105 5.55000305176 0 4.21000671387 16 callgsubr
          5.5299987793 10.8200073242 20 callsubr
          2.94000244141 2.94999694824 32.5 10.8200073242 5.5 1.85000610352 4.30999755859 0 5.47999572754 -1.83999633789 20 callsubr
          -10.8200073242 2.94999694824 -2.94000244141 10.8200073242 -32.5 16 callgsubr
          -5.55000305176 -0.0800018310547 -4.47999572754 -2.07000732422 -6.24000549316 rrcurveto
          -10.5599975586 -31.6100006104 -3.21000671387 -2.99000549316 -32.1999969482 -10.7200012207 rrcurveto
          endchar
        </CharString>
        <CharString name="c">
          184 702.009994507 291.850006104 -80 callsubr
        </CharString>
        <CharString name="cacute">
          184 424.059997559 763.970001221 -107 callsubr
          284.949996948 -479.119995117 -80 callsubr
        </CharString>
        <CharString name="caron">
          24 289.940002441 728.880004883 rmoveto
          -10 hlineto
          -114.179992676 118.850006104 6 8 113.63999939 -66.1000061035 104.660003662 66 6 -8 rlineto
          endchar
        </CharString>
        <CharString name="ccaron">
          184 429.080001831 -79 callgsubr
          166.789993286 -591.059997559 -80 callsubr
        </CharString>
        <CharString name="ccedilla">
          184 702.009994507 291.850006104 rmoveto
          -22.7400054932 -204.789993286 -120.13999939 -70.6999969482 -141.990005493 -0.429992675781 rrcurveto
          -168.130004883 4.07000732422 -114 131 201 vvcurveto
          199 112 133 175.809997559 vhcurveto
          120.190002441 -0.0700073242188 98 -62 30.3800048828 -116.740005493 rrcurveto
          8.32000732422 hlineto
          -20.1799926758 141.240005493 rlineto
          38.5299987793 -58.5299987793 -80 29 -98 hhcurveto
          -220 -143 -146 -217 -217.399993896 143.220001221 -141.600006104 203.75 -6 hvcurveto
          -46.6999969482 -61 -73 callgsubr
          40.4299926758 47 rcurveline
          128.929992676 5 84.1300048828 61.4700012207 50.4499969482 82.4600067139 12.1900024414 156.949996948 rcurveline
          endchar
        </CharString>
        <CharString name="cdotaccent">
          184 422.740005493 764.600006104 -86 callsubr
          279.270004272 -472.75 -80 callsubr
        </CharString>
        <CharString name="cedilla">
          24 247.779998779 -62 rmoveto
          -73 callgsubr
          41.6600036621 48.7799987793 rcurveline
          -27.6499938965 hlineto
          endchar
        </CharString>
        <CharString name="cent">
          26 555.440002441 304.410003662 rmoveto
          -9.32000732422 -141.509994507 -94.6399993896 -57.7799987793 -126.919998169 -0.229995727539 39.5200042725 480.679992676 rcurveline
          83.4900054932 -8.39999389648 61.6999969482 -40.9199981689 22.2899932861 -93.2799987793 rrcurveto
          7.19000244141 hlineto
          -17.4299926758 122 -41.3099975586 26.5899963379 -56.5500030518 18.1499938965 -56.9400024414 5.66000366211 rlinecurve
          6.92999267578 84.3200073242 -30.5200042725 1.05000305176 -6.71000671387 -83.5500030518 rlineto
          -176.13999939 -110.100006104 -101.119995117 -170.119995117 -154.919998169 95.9900054932 -99.7700042725 146.839996338 -14.6799926758 hvcurveto
          -6.63999938965 -82.6300048828 29.0200042725 -3 6.88999938965 83.8500061035 106.589996338 -0.100006103516 82.7599945068 40.6999969482 43.2400054932 70.6799926758 rlinecurve
          7.94000244141 118.300003052 rlineto
          -267.320007324 -196.820007324 rmoveto
          -108.679992676 16.5599975586 -61.6300048828 85.9900054932 135.820007324 vvcurveto
          152.119995117 74.5700073242 89.1300048828 134.259994507 vhcurveto
          endchar
        </CharString>
        <CharString name="circumflex">
          24 271.899993896 855.740005493 -76 callsubr
          endchar
        </CharString>
        <CharString name="colon">
          -397 90 378.509994507 rmoveto
          -89 callgsubr
          -382.509994507 vmoveto
          -30 callgsubr
        </CharString>
        <CharString name="comma">
          -391 47.3600006104 -89 -40 callsubr
        </CharString>
        <CharString name="commaaccentcomb">
          -576 31.9499969482 -144 rmoveto
          52.2799987793 2 43.0599975586 55 -25.9900054932 62 -13.5299987793 32.8300018311 -38.9499969482 -1.64999389648 -10.1900024414 -23.1799926758 -8.96000671387 -20 16.9100036621 -14 10.4199981689 -13 13.6799926758 -16 7.96000671387 -42 -48.6399993896 -15 rrcurveto
          endchar
        </CharString>
        <CharString name="copyright">
          272 424 714 rmoveto
          -201.029998779 -162.970001221 -162.970001221 -201.029998779 -201.029998779 162.970001221 -162.970001221 201.029998779 201.029998779 162.970001221 162.970001221 201.029998779 201.029998779 -162.970001221 162.970001221 -201.029998779 hvcurveto
          -36.5800018311 vmoveto
          180.830001831 146.589996338 6 callgsubr
          6 callgsubr
          146.589996338 180.830001831 180.830001831 146.589996338 146.589996338 180.830001831 hvcurveto
          192.080001831 -361.63999939 rmoveto
          -7.66999816895 -116.440002441 -77.8300018311 -45.9199981689 -100.619995117 -0.300003051758 rrcurveto
          -93.0200042725 1.99000549316 -69.7700042725 84.3800048828 110.520004272 vvcurveto
          112.509994507 69.7700042725 84.3800048828 93.0200042725 85.8699951172 63.2599945068 -44.5 -72.6000061035 17.3500061035 vhcurveto
          5.91000366211 hlineto
          -14.3399963379 100.369995117 rlineto
          26.6699981689 -41.4299926758 -60.0599975586 16.3500061035 -56.5599975586 hhcurveto
          -130.830001831 -98.1199951172 -95.6399993896 -127.520004272 -126.839996338 98.1199951172 -95.6399993896 130.830001831 -0.679992675781 hvcurveto
          80.25 70.4900054932 34.8200073242 56.8099975586 34.7599945068 hvcurveto
          6.5299987793 97.3300018311 rlineto
          endchar
        </CharString>
        <CharString name="currency">
          -35 491.699996948 153.649993896 rmoveto
          -60.2700042725 60.2700042725 68.1799926758 79.8500061035 -0.380004882812 118.320007324 -68.9400024414 79.4199981689 rlinecurve
          61.4100036621 61.4100036621 -21.2100067139 21.2100067139 -61.3899993896 -61.3899993896 -79.4299926758 69.2400054932 -118.539993286 0.479995727539 -79.9600067139 -68.2799987793 rlinecurve
          -59.9499969482 59.9499969482 -21.2100067139 -21.2100067139 59.7599945068 -59.7599945068 -70.8699951172 -79.9799957275 -0.380004882812 -120.509994507 70.1000061035 -80.4199981689 rlinecurve
          -58.6100006104 -58.6000061035 21.2100067139 -21.2100067139 58.6300048828 58.6300048828 80.4199981689 -69.8099975586 120.289993286 0.479995727539 79.8600006104 70.7700042725 rlinecurve
          60.0800018311 -60.0700073242 rlineto
          -330.580001831 90.2100067139 rmoveto
          9 callsubr
          8 callsubr
          0 115.869995117 8 callsubr
          8 callsubr
          8 callsubr
          8 callsubr
          115.869995117 0 8 callsubr
          9 callsubr
          8 callsubr
          9 callsubr
          0 -115.869995117 9 callsubr
          9 callsubr
          9 callsubr
          9 callsubr
          -115.869995117 0 9 callsubr
          8 callsubr
          rrcurveto
          endchar
        </CharString>
        <CharString name="d">
          231 60.3500061035 699.970001221 -74 callsubr
        </CharString>
        <CharString name="dagger">
          -59 478 438.410003662 rmoveto
          -11 callgsubr
          17.3200073242 7 callsubr
          17.6799926758 -23 callgsubr
          4 callsubr
          -12.6600036621 -236.130004883 27.4700012207 -335.080001831 rlineto
          10 hlineto
          27.5299987793 335.080001831 -12.3399963379 236.130004883 -6 callsubr
          rlineto
          endchar
        </CharString>
        <CharString name="daggerdbl">
          -58 464.63999939 132.320007324 rmoveto
          -154.630004883 -17.3800048828 -45.3699951172 -15.0800018311 15.1199951172 42.3200073242 17.0599975586 124.520004272 -17.9400024414 124.520004272 -6 callsubr
          14 37.3399963379 -11 callgsubr
          17.3099975586 7 callsubr
          17.6900024414 -23 callgsubr
          rlineto
          4 callsubr
          -17.0599975586 -124.520004272 17.9400024414 -124.520004272 15.4900054932 -42.4799957275 -44.8600006104 15.1799926758 -155.75 17.4400024414 -14 -37.3399963379 14 -37.6600036621 155.75 17.5599975586 44.5599975586 14.9900054932 -15.1900024414 -41.9199981689 -17.3200073242 -214.949996948 36.3600006104 -14 38.6399993896 14 -17.6799926758 214.949996948 -14.8099975586 41.8999938965 45.0599975586 -14.9199981689 154.630004883 -17.6199951172 14 37.6600036621 rlineto
          endchar
        </CharString>
        <CharString name="dcaron">
          231 406.490005493 -79 callgsubr
          -452.270004272 -182.929992676 -74 callsubr
        </CharString>
        <CharString name="dcroat">
          231 279.36000061 -34 callsubr
          -219.009994507 -130.38999939 -74 callsubr
        </CharString>
        <CharString name="degree">
          -319 128.539993286 664.350006104 rmoveto
          -54.4199981689 -44.1199951172 -44.1199951172 -54.4199981689 -54.4199981689 44.1199951172 -44.1199951172 54.4199981689 54.4199981689 44.1199951172 44.1199951172 54.4199981689 54.4199981689 -44.1199951172 44.1199951172 -54.4199981689 hvcurveto
          -39.3300018311 vmoveto
          14 callgsubr
          26.0500030518 5 callgsubr
          5 callgsubr
          26.0500030518 14 callgsubr
          14 callgsubr
          26.0500030518 26.0500030518 14 callgsubr
          hvcurveto
          endchar
        </CharString>
        <CharString name="dieresis">
          24 186.309997559 700.100006104 -106 callgsubr
          endchar
        </CharString>
        <CharString name="divide">
          -95 240.5 432.910003662 -6 callgsubr
          15.7899932861 7 callgsubr
          7 callgsubr
          -15.7899932861 -15.7899932861 -1 callsubr
          -200.5 -145.649993896 rmoveto
          -25 callgsubr
          200.5 -215.399993896 -6 callgsubr
          15.7799987793 7 callgsubr
          7 callgsubr
          -15.7899932861 -15.7799987793 -1 callsubr
          endchar
        </CharString>
        <CharString name="dollar">
          -107 249.770004272 401.589996338 rmoveto
          21.5500030518 280.320007324 rlineto
          56.1999969482 -8.05999755859 36.2400054932 -36.3999938965 -56.4199981689 vvcurveto
          9.63000488281 122.710006714 -38.8500061035 hlineto
          -17.0700073242 3.85000610352 -20.5399932861 3.27000427246 -23.25 1.75999450684 5.7200012207 74.3300018311 rcurveline
          -30.5200042725 1.05000305176 -5.66000366211 -74.0299987793 rlineto
          -98.3300018311 -72.3999938965 -75.6799926758 -92.6399993896 -40.2599945068 12.8000030518 -46.1100006104 41.1600036621 -38.2299957275 hvcurveto
          88.1199951172 -81.8399963379 -24.5299987793 -320.979995728 -74.1399993896 11.1399993896 -44.6300048828 58.9900054932 7.7799987793 91.6399993896 rlinecurve
          -8.78999328613 hlineto
          -15.2299957275 -44.8399963379 -3.7799987793 -63.6999969482 7.44999694824 -30.8699951172 28.5599975586 -29.1900024414 49.7899932861 -16.4499969482 50.7400054932 -6 -6.69999694824 -88 rcurveline
          29.9700012207 -3 6.78999328613 88 rlineto
          124.25 1 72.8399963379 69.1000061035 117.630004883 vvcurveto
          42.0599975586 -11.4100036621 43.4900054932 -38.4900054932 35.6300048828 vhcurveto
          -196.509994507 181.899993896 rmoveto
          -29.9299926758 27.6999969482 -10.6300048828 35.6799926758 29.8200073242 vvcurveto
          58.3399963379 50.0200042725 52.0599975586 62.8999938965 3.05000305176 vhcurveto
          -19.5299987793 -255.570007324 rlineto
          21.6000061035 -115 rmoveto
          75.0599975586 -69.7100067139 rlineto
          27.7299957275 -25.7599945068 11.4499969482 -32.4100036621 -36.1199951172 vvcurveto
          -76.1100006104 -59.6900024414 -53.9799957275 -77.3399963379 -2.42999267578 vhcurveto
          endchar
        </CharString>
        <CharString name="dotaccent">
          24 300.789993286 700.600006104 -86 callsubr
          endchar
        </CharString>
        <CharString name="dotlessi">
          -238 278.630004883 10 rmoveto
          -99 callsubr
          218.789993286 hlineto
          endchar
        </CharString>
        <CharString name="e">
          1 522.839996338 161.539993286 rmoveto
          -107 callgsubr
          414.559997559 -33 callsubr
        </CharString>
        <CharString name="eacute">
          1 296.910003662 763.970001221 -107 callsubr
          232.929992676 -609.429992676 rmoveto
          -107 callgsubr
          414.559997559 -33 callsubr
        </CharString>
        <CharString name="ecaron">
          1 301.929992676 -79 callgsubr
          114.779998779 -721.369995117 rmoveto
          -107 callgsubr
          414.559997559 -33 callsubr
        </CharString>
        <CharString name="ecircumflex">
          1 291.779998779 889.740005493 -76 callsubr
          337.199996948 -609.440002441 rmoveto
          -107 callgsubr
          414.559997559 -33 callsubr
        </CharString>
        <CharString name="edieresis">
          1 202.779998779 764.100006104 -106 callgsubr
          131.690002441 -602.550003052 rmoveto
          -107 callgsubr
          414.559997559 -33 callsubr
        </CharString>
        <CharString name="edotaccent">
          1 295.589996338 764.600006104 -86 callsubr
          227.25 -603.050003052 rmoveto
          -107 callgsubr
          414.559997559 -33 callsubr
        </CharString>
        <CharString name="egrave">
          1 303.979995728 -34 callgsubr
          225.86000061 -602.460006714 rmoveto
          -107 callgsubr
          414.559997559 -33 callsubr
        </CharString>
        <CharString name="eight">
          -24 333.229995728 372.779998779 rmoveto
          79.1799926758 29.0700073242 43.5599975586 63.3699951172 -0.289993286133 79.9799957275 0.320007324219 107.800003052 -77 63 -103 -2 -112 -2 -68 -71 -0.0500030517578 -94.3999938965 0.0299987792969 -75.8699951172 43.5299987793 -58.1100006104 64.9400024414 -46.3699951172 -92.3300018311 -43.1000061035 -48.3800048828 -57.9400024414 -3.74000549316 -84.1999969482 rrcurveto
          -117 -5 89 -78 132 hhcurveto
          131 85 77 112.020004272 hvcurveto
          -0.0299987792969 112.570007324 -85.6399993896 48.9499969482 -73.1300048828 36.2299957275 rrcurveto
          -59.2299957275 30.2200012207 rmoveto
          -66 38 -37 52 -0.0500030517578 66.6300048828 rrcurveto
          67.3699951172 38 57 68 64 40 -51 -79.9499969482 -0.320007324219 vhcurveto
          0.289993286133 -57.5700073242 -21.5 -57.5200042725 -63.0299987793 -47.0299987793 rrcurveto
          -19.4499969482 -374.940002441 rmoveto
          -89 -54 60 95 1 hvcurveto
          0.919998168945 82.9299926758 43.3699951172 55.7599945068 54.6600036621 37.1399993896 11.8699951172 -7.24000549316 12.3800048828 -6.92999267578 12.8000030518 -6.64999389648 63 -33 83 -29 0.0399932861328 -102.61000061 rrcurveto
          -73.3899993896 -43 -72 -97 vhcurveto
          endchar
        </CharString>
        <CharString name="ellipsis">
          -7 90 -4 rmoveto
          -89 callgsubr
          200 hmoveto
          -89 callgsubr
          190 hmoveto
          -30 callgsubr
        </CharString>
        <CharString name="emacron">
          1 174.800003052 -34 callsubr
          348.039993286 -668.820007324 rmoveto
          -107 callgsubr
          414.559997559 -33 callsubr
        </CharString>
        <CharString name="emdash">
          224 271 40 hstem
          0 800 vstem
          271 vmoveto
          800 40 -800 hlineto
          endchar
        </CharString>
        <CharString name="endash">
          -76 271 40 hstem
          0 500 vstem
          271 vmoveto
          500 40 -500 hlineto
          endchar
        </CharString>
        <CharString name="eng">
          263 575.419998169 -21 callsubr
          -500.419998169 vlineto
          -544.580001831 580.570007324 rlineto
          -9.86000061035 hlineto
          0 9.21000671387 -56.6600036621 -68.2700042725 vvcurveto
          -525.429992676 vlineto
          -28.7899932861 -0.710006713867 -23.5299987793 -23.1399993896 -28.9799957275 -26 callgsubr
          502.699996948 vlineto
          499.960006714 -534.330001831 rlineto
          -63.3200073242 -32 callsubr
        </CharString>
        <CharString name="eogonek">
          1 532.839996338 161.539993286 rmoveto
          -10 hlineto
          -107 callgsubr
          375.949996948 hlineto
          -46.9799957275 -10 -35.6399993896 -35 0.509994506836 -44 -48 callgsubr
          -1.32000732422 38 20.3800048828 27 55.3800048828 13 rrcurveto
          endchar
        </CharString>
        <CharString name="equal">
          -95 40 363.88999939 rmoveto
          -25 callgsubr
          -220 vmoveto
          -25 callgsubr
          endchar
        </CharString>
        <CharString name="eth">
          241 65.2599945068 699.970001221 rmoveto
          -70 callgsubr
          -9.91000366211 -72 callsubr
          33.0800018311 30.6199951172 -25.0599975586 -32.1600036621 hvcurveto
          -267.850006104 -81.7700042725 -30 81.7700042725 -262.289993286 vlineto
          -34.7700042725 -0.729995727539 -28.3699951172 -27.9799957275 -34.9600067139 -95 callgsubr
          338.539993286 hlineto
          213.589996338 140.550003052 139.899993896 209.759994507 210.179992676 -140.550003052 140.089996338 -213.589996338 17 callsubr
          -364.960006714 rmoveto
          163.11000061 30 -163.11000061 304.919998169 -20 callsubr
          170.399993896 113.740005493 -128.089996338 -192.13999939 -191.559997559 -113.740005493 -127.710006714 -170.399993896 17 callsubr
          hlineto
          endchar
        </CharString>
        <CharString name="exclam">
          -346 139.869995117 402.960006714 rmoveto
          11.8999938965 298.63999939 rlineto
          -75 hlineto
          11.8699951172 -298.63999939 20.25 -232.960006714 rlineto
          10 hlineto
          -3.89999389648 -174 rmoveto
          -30 callgsubr
        </CharString>
        <CharString name="exclamdown">
          -346 115 705.600006104 rmoveto
          -51 callsubr
          -20.1499938965 -20.1499938965 -36 callsubr
          20.1499938965 -20.1499938965 -36 callgsubr
          20.1499938965 20.1499938965 -36 callgsubr
          -20.1499938965 20.1499938965 -51 callsubr
          hvcurveto
          -24.8699951172 -406.960006714 rmoveto
          -11.9100036621 -298.63999939 rlineto
          75 hlineto
          -11.8699951172 298.63999939 -20.25 230.13999939 rlineto
          -10 hlineto
          endchar
        </CharString>
        <CharString name="f">
          -35 6 callsubr
          -18.5399932861 -83 callsubr
          66.3600006104 vlineto
          17.2799987793 vlineto
          endchar
        </CharString>
        <CharString name="fi">
          303 6 callsubr
          -18.5500030518 -83 callsubr
          66.3699951172 vlineto
          17.2899932861 vlineto
          347.830001831 -678.910003662 rmoveto
          -67 callsubr
          34.5500030518 -103 callgsubr
          218.789993286 hlineto
          endchar
        </CharString>
        <CharString name="five">
          -78 422.320007324 629 rmoveto
          -10 hlineto
          -29.8999938965 -15.3399963379 -22.3600006104 -20.1000061035 -41.6999969482 hhcurveto
          -197.490005493 -15 -78.4499969482 -271.300003052 9 -4 163.899993896 55.3800048828 127.419998169 -63.3099975586 -9.47999572754 -134.570007324 rlinecurve
          -12.8999938965 -183.199996948 -198.559997559 -86 -84.3600006104 2 -2 -10 rcurveline
          83.1900024414 -15 279.63999939 57 10 242.75 7.14999389648 173.589996338 -154.970001221 66.0599975586 -166.910003662 -42.4700012207 46.0399932861 158.070007324 rcurveline
          234.770004272 15 rlineto
          endchar
        </CharString>
        <CharString name="fl">
          527 6 callsubr
          -18.5500030518 -83 callsubr
          66.3699951172 vlineto
          17.2899932861 vlineto
          592.059997559 -527.369995117 -51 callgsubr
          596.479995728 hlineto
          -92 callsubr
          -554.210006714 -54 callgsubr
          -0.639999389648 -98 callgsubr
          414.550003052 -33 callsubr
        </CharString>
        <CharString name="florin">
          -83 55 600 rmoveto
          -59 callsubr
          29.8000030518 22.5200042725 -22.25 -29.4799957275 1.10000610352 hvcurveto
          -538.289993286 vlineto
          -0.199996948242 -74 -44.3500061035 -74 -56.4600067139 -20 rrcurveto
          -10 vlineto
          87.9400024414 77.0800018311 81 97 hvcurveto
          285 157.63999939 vlineto
          25.3399963379 -1.55999755859 12.1999969482 -18.3600006104 -22.4600067139 vvcurveto
          -12.6999969482 vlineto
          10 -0.110000610352 rlineto
          140.460006714 vlineto
          -10 -0.110000610352 rlineto
          -12.6999969482 vlineto
          -23.1100006104 -12.9299926758 -18.7700042725 -26.8800048828 -0.580001831055 vhcurveto
          -155.380004883 254.410003662 188.929992676 hlineto
          29.8699951172 -0.600006103516 19.1499938965 -22.7599945068 -28.0399932861 vvcurveto
          -15.3699951172 vlineto
          10 -37 callgsubr
          113.160003662 vlineto
          -16.0700073242 -6.77000427246 -50 -8.63000488281 -37.2100067139 -0.279998779297 rrcurveto
          endchar
        </CharString>
        <CharString name="four">
          7 502.800003052 148.759994507 rmoveto
          21 75 rlineto
          -10 hlineto
          -13.8999938965 -12 -5.80000305176 -6.10000610352 -36.8399963379 hhcurveto
          -43.5099945068 410.240005493 -9.36000061035 hlineto
          -366.279998779 -455.240005493 rlineto
          -10 310.649993896 -186.759994507 vlineto
          -30 -1.11999511719 -24.6100006104 -22 -29.4499969482 2 callsubr
          197.460006714 hlineto
          -7 callsubr
          10 rlineto
          -9 callgsubr
          -29.7100067139 -25.1300048828 24 29 -0.360000610352 hvcurveto
          185.759994507 vlineto
          -300.699996948 55 rmoveto
          235.699996948 292.550003052 rlineto
          -292.550003052 vlineto
          endchar
        </CharString>
        <CharString name="fraction">
          -34 498.350006104 -37 callsubr
          endchar
        </CharString>
        <CharString name="g">
          222 773.740005493 325.38999939 -91 callsubr
          endchar
        </CharString>
        <CharString name="gbreve">
          222 509.339996338 867.729995728 -70 callsubr
          254.399993896 -542.339996338 -91 callsubr
          endchar
        </CharString>
        <CharString name="gcommaaccent">
          222 773.740005493 325.38999939 -91 callsubr
          -374.149993896 -543.410003662 -90 callgsubr
        </CharString>
        <CharString name="gdotaccent">
          222 414.740005493 764.600006104 -86 callsubr
          359.009994507 -439.210006714 -91 callsubr
          endchar
        </CharString>
        <CharString name="germandbls">
          376 -68 callgsubr
          279.490005493 181.899993896 rmoveto
          -31.5099945068 29.1900024414 -8.75 36.9400024414 26.0700073242 vvcurveto
          60.9400024414 49.3099975586 54.0599975586 73.6799926758 62.3099975586 50.4400024414 -39 -63.9700012207 -0.240005493164 13 callgsubr
          122.710006714 -39.6300048828 hlineto
          5.78999328613 -26.5599975586 -32.9499969482 4.4700012207 -26.25 hhcurveto
          -114 -61.75 -84.7100067139 -84.2899932861 -38.7100067139 13.75 -48.2899932861 40.4499969482 -36.9199981689 hvcurveto
          191.550003052 -177.899993896 rlineto
          24.9900054932 -23.1900024414 14.25 -30.9199981689 -39.0800018311 vvcurveto
          -79.9199981689 -61 -50.0299987793 -73 -4.05000305176 vhcurveto
          -89 -4.94999694824 -65.25 65.9400024414 10.0500030518 103.050003052 rrcurveto
          -8.78999328613 hlineto
          -15.2299957275 -44.8399963379 -3.7799987793 -63.6999969482 7.44999694824 -30.8699951172 rrcurveto
          -40.6399993896 39.3000030518 81 -14 49 hhcurveto
          115 72.25 76.3899993896 110.61000061 -45 callsubr
          hvcurveto
          endchar
        </CharString>
        <CharString name="grave">
          -137 239.539993286 752.970001221 -64 callgsubr
          endchar
        </CharString>
        <CharString name="greater">
          -95 40 523.25 -11 callsubr
          endchar
        </CharString>
        <CharString name="greaterequal">
          -95 40 589.25 -11 callsubr
          -401.720001221 -355 rmoveto
          -25 callgsubr
          endchar
        </CharString>
        <CharString name="guillemotleft">
          -151 222.800003052 484.710006714 -61 callsubr
          170 -5 -61 callsubr
          endchar
        </CharString>
        <CharString name="guillemotright">
          -151 202 94.7100067139 -61 callgsubr
          -171 5 -61 callgsubr
          endchar
        </CharString>
        <CharString name="guilsinglleft">
          -313 222.800003052 484.710006714 -61 callsubr
          endchar
        </CharString>
        <CharString name="guilsinglright">
          -313 40 94.7100067139 -61 callgsubr
          endchar
        </CharString>
        <CharString name="h">
          237 752.919998169 10 rmoveto
          -38 callsubr
          27.6699981689 -30 callsubr
          554.710006714 vlineto
          -50 callgsubr
          0.639999389648 -65 callgsubr
          -218.759994507 -62 callsubr
          34.5800018311 28.1300048828 -27.3800048828 -34.25 1.30999755859 hvcurveto
          -267.399993896 -409.220001221 -32 callgsubr
          -555.119995117 -54 callgsubr
          -46 callgsubr
          -28.3999938965 -27.6699981689 -85 callsubr
          218.789993286 hlineto
          -80 callgsubr
          10 rlineto
          -38 callsubr
          27.6699981689 -30 callsubr
          258.580001831 409.220001221 -258.580001831 10 callsubr
          -28.0200042725 0 callsubr
          endchar
        </CharString>
        <CharString name="hbar">
          237 752.919998169 10 rmoveto
          -88 callgsubr
          425.25 66.1000061035 30 -66.1300048828 99.0899963379 vlineto
          -50 callgsubr
          0.669998168945 -65 callgsubr
          -218.759994507 -62 callsubr
          34.5800018311 28.1300048828 -27.3800048828 -34.25 1.30999755859 hvcurveto
          -100.350006104 -409.220001221 -35 callgsubr
          -63.3000030518 -30 63.3000030518 -425.25 -102 callsubr
          218.789993286 -86 callgsubr
          258.190002441 409.220001221 -258.960006714 10 callsubr
          -27.6399993896 0 callsubr
          -551.160003662 361.059997559 rmoveto
          137.050003052 409.220001221 -137.050003052 vlineto
          endchar
        </CharString>
        <CharString name="hungarumlaut">
          24 211.669998169 750.970001221 -81 callgsubr
          endchar
        </CharString>
        <CharString name="hyphen">
          -12 callsubr
        </CharString>
        <CharString name="i">
          -238 278.630004883 10 rmoveto
          -99 callsubr
          218.789993286 hlineto
          endchar
        </CharString>
        <CharString name="iacute">
          -238 169.509994507 763.970001221 -107 callsubr
          116.119995117 -760.970001221 rmoveto
          -99 callsubr
          218.789993286 hlineto
          endchar
        </CharString>
        <CharString name="icircumflex">
          -238 164.369995117 889.729995728 -76 callsubr
          220.38999939 -760.979995728 rmoveto
          -99 callsubr
          218.789993286 hlineto
          endchar
        </CharString>
        <CharString name="idieresis">
          -238 75.3699951172 764.100006104 -106 callgsubr
          14.8800048828 -754.100006104 rmoveto
          -99 callsubr
          218.789993286 hlineto
          endchar
        </CharString>
        <CharString name="igrave">
          -238 176.570007324 771 -64 callgsubr
          109.050003052 -754 rmoveto
          -99 callsubr
          218.789993286 hlineto
          endchar
        </CharString>
        <CharString name="ij">
          86 398.080001831 -44 callsubr
          -338.399993896 -690.059997559 rmoveto
          -99 callsubr
          218.789993286 hlineto
          endchar
        </CharString>
        <CharString name="imacron">
          -238 47.3999938965 -34 callsubr
          231.229995728 -820.36000061 rmoveto
          -99 callsubr
          218.789993286 hlineto
          endchar
        </CharString>
        <CharString name="infinity">
          17 316.220001221 262.820007324 rmoveto
          -49.9900054932 30.6900024414 57.8800048828 -48.3000030518 66.5200042725 hhcurveto
          70.3000030518 52.5200042725 56.3899993896 75.6900024414 -0.919998168945 hvcurveto
          76.1600036621 -0.929992675781 -52.5200042725 56.6799926758 -68.4499969482 hhcurveto
          -59.1100006104 -58.25 -45.9799957275 -49.5700073242 -36.9600067139 hvcurveto
          50.6399993896 -38.4199981689 -57.8300018311 44.9100036621 -58.8399963379 hhcurveto
          -68.4499969482 -52.5200042725 -56.6799926758 -76.1600036621 -0.929992675781 hvcurveto
          -75.6900024414 -0.919998168945 52.5200042725 -56.3899993896 70.3000030518 hhcurveto
          64.6399993896 58.1100006104 45.7700042725 52.5099945068 31.5700073242 hvcurveto
          -154.320007324 -55.2799987793 rmoveto
          -41.4700012207 -35.4199981689 40.0500030518 49.0299987793 49.5 35.4199981689 40.3399963379 41.4700012207 51.25 44.7200012207 -46.7299957275 -42.1100006104 31.6199951172 hvcurveto
          -43.1699981689 -28.2100067139 -48.1199951172 -46.9100036621 -51.25 hhcurveto
          309.410003662 hmoveto
          -51.25 -45.7899932861 43.3399963379 46.7400054932 -30.5399932861 hvcurveto
          39.0299987793 29.3000030518 47.0299987793 49.8099975586 51.25 hhcurveto
          41.4700012207 35.4199981689 -40.3399963379 -49.5 -49.0299987793 -35.4199981689 -40.0500030518 -41.4700012207 hvcurveto
          endchar
        </CharString>
        <CharString name="integral">
          -136 314.089996338 791.910003662 rmoveto
          -87.4100036621 -9 -24.2400054932 -106 -5.61000061035 -78.1600036621 -6.03999328613 -84.6199951172 -26.2299957275 -524.130004883 -2.67999267578 -53 rrcurveto
          -69 -3.46000671387 -13.1999969482 -21 -18.6000061035 hhcurveto
          -22.9199981689 -1.97999572754 27 16 -16.8600006104 hvcurveto
          -13.6000061035 14 -24.5099945068 2 -17.3899993896 -19 -10.4100036621 -12 -2.41999816895 -19 9.13999938965 -15 17 -27 43.4400024414 -8 30.5299987793 3 87.4100036621 9 24.2400054932 106 5.61000061035 78.1600036621 6.03999328613 84.6199951172 26.2299957275 524.130004883 2.67999267578 53 rrcurveto
          69 3.46000671387 13.1999969482 21 18.6000061035 hhcurveto
          22.9199981689 1.97999572754 -27 -16 16.8600006104 hvcurveto
          13.6000061035 -14 24.5099945068 -2 17.3999938965 19 10.4100036621 12 2.41999816895 19 -9.13999938965 15 -17 27 -43.4400024414 8 -30.5299987793 -3 rrcurveto
          endchar
        </CharString>
        <CharString name="iogonek">
          -238 278.789993286 hmoveto
          -0.160003662109 10 rlineto
          -99 callsubr
          90.0399932861 hlineto
          -46.9199981689 -10 -35.5800018311 -35 0.509994506836 -44 -48 callgsubr
          -1.32000732422 38 20.3899993896 27 55.3999938965 13 rrcurveto
          endchar
        </CharString>
        <CharString name="j">
          -252 60.0800018311 -44 callsubr
          endchar
        </CharString>
        <CharString name="k">
          81 201.919998169 627.820007324 rmoveto
          -87 callgsubr
          34.8300018311 -0.649993896484 hvcurveto
          97.7799987793 299.429992676 rmoveto
          235.61000061 271.88999939 -63 callgsubr
          240.690002441 -291.399993896 45.9299926758 -53.5899963379 76.6100006104 -2.9700012207 28.1399993896 -0.0899963378906 rlinecurve
          42.2799987793 9.94000244141 hlineto
          -40.6499938965 1.0299987793 -26.4499969482 12.4299926758 -27.3600006104 27.3600006104 rrcurveto
          endchar
        </CharString>
        <CharString name="kcommaaccent">
          81 201.919998169 627.820007324 rmoveto
          -87 callgsubr
          34.8300018311 -0.649993896484 hvcurveto
          97.7799987793 299.429992676 rmoveto
          235.600006104 271.88999939 -63 callgsubr
          240.690002441 -291.399993896 45.9299926758 -53.5899963379 76.6100006104 -2.9700012207 28.1399993896 -0.0899963378906 rlinecurve
          42.2799987793 9.94000244141 hlineto
          -40.6499938965 1.0299987793 -26.4499969482 12.4299926758 -27.3600006104 27.3600006104 rrcurveto
          -213.050003052 -258.910003662 -90 callgsubr
        </CharString>
        <CharString name="l">
          -14 522.86000061 161.539993286 -50 callsubr
        </CharString>
        <CharString name="lacute">
          -14 170.210006714 763.970001221 -107 callsubr
          359.649993896 -609.429992676 -50 callsubr
        </CharString>
        <CharString name="lcaron">
          -14 -43 callsubr
          161.089996338 -406.61000061 -50 callsubr
        </CharString>
        <CharString name="lcommaaccent">
          -14 522.86000061 161.539993286 -51 callgsubr
          596.479995728 hlineto
          -92 callsubr
          -554.210006714 -54 callgsubr
          -0.639999389648 -98 callgsubr
          414.559997559 -46 callsubr
          -263.800003052 -369.539993286 -90 callgsubr
        </CharString>
        <CharString name="ldot">
          -14 522.86000061 161.539993286 -51 callgsubr
          596.479995728 hlineto
          -92 callsubr
          -554.210006714 -54 callgsubr
          -0.639999389648 -98 callgsubr
          414.559997559 -46 callsubr
          -198.440002441 241.460006714 rmoveto
          -30 callgsubr
        </CharString>
        <CharString name="less">
          18 callgsubr
          523.25 -17 callsubr
          endchar
        </CharString>
        <CharString name="lessequal">
          18 callgsubr
          589.25 -17 callsubr
          -401.720001221 -498 rmoveto
          -25 callgsubr
          endchar
        </CharString>
        <CharString name="logicalnot">
          25 40 397.229995728 rmoveto
          -45 476.720001221 -157.660003662 45 202.660003662 vlineto
          endchar
        </CharString>
        <CharString name="lozenge">
          -46 480.970001221 349.789993286 rmoveto
          -221.820007324 -363.789993286 -209.149993896 363.789993286 209.149993896 364.210006714 rlineto
          -166.149993896 -364.210006714 rmoveto
          166.149993896 -295.190002441 178.820007324 295.190002441 -178.820007324 295.210006714 rlineto
          endchar
        </CharString>
        <CharString name="lslash">
          -14 522.86000061 161.539993286 -51 callgsubr
          315.039993286 hlineto
          139.369995117 80.6199951172 22 callgsubr
          -124.350006104 -71.9299926758 rlineto
          246.789993286 -28 callgsubr
          -284.410003662 vlineto
          -119.130004883 -68.9199981689 21 callsubr
          104.130004883 60.2299957275 rlineto
          -235.149993896 -102 callsubr
          414.559997559 -33 callsubr
        </CharString>
        <CharString name="m">
          -57 callsubr
          -9.44000244141 -10 callgsubr
        </CharString>
        <CharString name="macron">
          24 170.229995728 702.940002441 rmoveto
          250 35 -250 hlineto
          endchar
        </CharString>
        <CharString name="minus">
          -95 40 287.25 rmoveto
          -25 callgsubr
          endchar
        </CharString>
        <CharString name="mu">
          -57 callsubr
          -9.44999694824 -10 callgsubr
        </CharString>
        <CharString name="multiply">
          -161 365.880004883 435.869995117 rmoveto
          -31.8200073242 31.8200073242 11 callsubr
          15 callsubr
          -31.8200073242 -31.8200073242 15 callsubr
          11 callsubr
          31.8200073242 -31.8200073242 15 callsubr
          15 callsubr
          15 callsubr
          8 callgsubr
          31.8200073242 31.8200073242 8 callgsubr
          15 callsubr
          rlineto
          endchar
        </CharString>
        <CharString name="n">
          265 590.229995728 700.020004272 rmoveto
          0.149993896484 -10 rlineto
          18.4499969482 hlineto
          33.7400054932 27.3600006104 -27.0399932861 -33.5700073242 0.630004882812 hvcurveto
          -495.940002441 vlineto
          -544.580001831 581.509994507 rlineto
          -9.86000061035 hlineto
          0 9.21000671387 -56.6600036621 -68.2700042725 vvcurveto
          -519.529998779 vlineto
          -33.5500030518 -0.649993896484 -27.3600006104 -27.0099945068 -33.7200012207 hhcurveto
          -13 callgsubr
          -80 callgsubr
          -10 rlineto
          205.990005493 hlineto
          -0.149993896484 10 rlineto
          -13 callgsubr
          -33.4700012207 -27.1999969482 26.6199951172 33.2100067139 -1.03999328613 hvcurveto
          497.910003662 vlineto
          545.369995117 -581.720001221 rlineto
          9.08000183105 hlineto
          0 -9.11999511719 63.1499938965 64.4299926758 vvcurveto
          516.669998169 vlineto
          33.1900024414 1.05999755859 27.1900024414 26.5899963379 33.4600067139 hhcurveto
          18.4600067139 -13 callsubr
          10 rlineto
          endchar
        </CharString>
        <CharString name="nacute">
          265 425.830001831 763.970001221 -107 callsubr
          171.399993896 -70.9499969482 -88 callsubr
          endchar
        </CharString>
        <CharString name="ncaron">
          265 430.850006104 -79 callgsubr
          53.25 -182.88999939 -88 callsubr
          endchar
        </CharString>
        <CharString name="ncommaaccent">
          265 590.229995728 700.020004272 -88 callsubr
          -404.300003052 -908.020004272 -90 callgsubr
        </CharString>
        <CharString name="nine">
          -16 375.570007324 281.789993286 rmoveto
          -26.5700073242 -31.7899932861 -42 -19 -41 -1 -87 -2 -46 70 -2 97 -2 100 42 87 95.1000061035 -0.0399932861328 102.899993896 0.0399932861328 51 -102 0.460006713867 -162.279998779 -0.460006713867 -198.720001221 -76 -196 -188.270004272 -53 3.71000671387 -7 rcurveline
          230.559997559 20 105 242 199 vvcurveto
          185 -91 105 -138 -2 vhcurveto
          -123 -2 -91 -88 4 -141 6 -213 219 -22 100.050003052 126.789993286 rrcurveto
          endchar
        </CharString>
        <CharString name="notequal">
          18 callgsubr
          363.88999939 rmoveto
          45 -118.179992676 vlineto
          44 91.1100006104 -39.9400024414 18.5599975586 -53.2899932861 -109.669998169 rlineto
          -234.309997559 -45 212.449996948 hlineto
          -63.1699981689 -130 rlineto
          -149.279998779 -45 127.410003662 hlineto
          -50.3699951172 -103.649993896 41.2100067139 -18.5800018311 59.0299987793 122.229995728 rlineto
          224.440002441 45 -202.699996948 hlineto
          62.7799987793 130 rlineto
          endchar
        </CharString>
        <CharString name="ntilde">
          265 561.529998779 842.520004272 -91 callgsubr
          38.6999969482 -142.5 -88 callsubr
          endchar
        </CharString>
        <CharString name="numbersign">
          -40 516 466.880004883 rmoveto
          30 -107.339996338 vlineto
          15 callgsubr
          -35.8099975586 -203.119995117 rlineto
          -168 hlineto
          15 callgsubr
          -35.8200073242 -203.119995117 rlineto
          -112.660003662 -30 107.369995117 hlineto
          -38.7899932861 -220 rlineto
          -112.580001831 -30 107.289993286 1 callgsubr
          168 1 callgsubr
          112.710006714 30 -107.419998169 hlineto
          38.7899932861 220 rlineto
          -70.7899932861 -220 rmoveto
          -168 hlineto
          38.7899932861 220 rlineto
          168 hlineto
          endchar
        </CharString>
        <CharString name="o">
          272 424.429992676 714 -96 callgsubr
        </CharString>
        <CharString name="oacute">
          272 425.36000061 763.970001221 -107 callsubr
          6.07000732422 -56.9700012207 -96 callgsubr
        </CharString>
        <CharString name="ocircumflex">
          272 420.229995728 889.740005493 -76 callsubr
          110.339996338 -56.9799957275 -96 callgsubr
        </CharString>
        <CharString name="odieresis">
          272 331.229995728 764.100006104 -106 callgsubr
          -95.1699981689 -50.1000061035 -96 callgsubr
        </CharString>
        <CharString name="oe">
          400 922.38999939 161.539993286 rmoveto
          -83 callgsubr
          -147.440002441 299.630004883 174.059997559 hlineto
          -105 callgsubr
          -173.029998779 -28 callsubr
          205.88999939 -29 callsubr
          -157.119995117 hlineto
          -31.1000061035 -17.3200073242 2.4700012207 2.86999511719 -20 hvcurveto
          -38 callgsubr
          278.470001221 -46 callsubr
          -395.990005493 -97.3399963379 -31 callsubr
        </CharString>
        <CharString name="ogonek">
          24 425.050003052 -107 rmoveto
          -49.1300048828 -51 -70.8399963379 36 -2 57 -1.32000732422 38 20.3999938965 27 55.4299926758 13.4900054932 -10 3 rcurveline
          -60.2400054932 -50.9199981689 -39.4900054932 -53 0.610000610352 hvcurveto
          1.32000732422 -116 142.470001221 -3 30.2200012207 82 rrcurveto
          endchar
        </CharString>
        <CharString name="ograve">
          272 432.429992676 -72 callgsubr
          -1 -50 -96 callgsubr
        </CharString>
        <CharString name="ohungarumlaut">
          272 490.550003052 768.380004883 rmoveto
          42.9600067139 39.1000061035 37.9600067139 41.1000061035 35.9600067139 40.1000061035 -18.3000030518 7.19999694824 -22.3000030518 5.19999694824 -20.3000030518 0.199996948242 -27.3200073242 -43.6300048828 -21.3200073242 -43.6300048828 -18.3200073242 -43.6300048828 rrcurveto
          -111.229995728 -2 rmoveto
          41.9600067139 40.1000061035 38.9600067139 40.1000061035 35.9600067139 40.1000061035 -19.3000030518 8.19999694824 -21.3000030518 3.19999694824 -20.3000030518 1.19999694824 -24.3200073242 -43.6300048828 -22.3200073242 -43.6300048828 -20.3200073242 -43.6300048828 rrcurveto
          67.1100006104 -56.3800048828 -96 callgsubr
        </CharString>
        <CharString name="omacron">
          272 303.25 -34 callsubr
          121.179992676 -116.36000061 -96 callgsubr
        </CharString>
        <CharString name="one">
          -232 67.6300048828 9.97999572754 rmoveto
          -7 callsubr
          -9.97999572754 rlineto
          216.550003052 hlineto
          -7 callsubr
          10 rlineto
          -20.9100036621 hlineto
          -29.9199981689 -25.2700042725 23.8000030518 29.6999969482 hvcurveto
          472.449996948 vlineto
          29.9900054932 24.3300018311 24.1600036621 30.1399993896 vhcurveto
          20.9100036621 hlineto
          0.139999389648 9.97999572754 rlineto
          -216.550003052 hlineto
          0.139999389648 -10 rlineto
          20.9100036621 hlineto
          29.7799987793 0.0500030517578 25.1699981689 -23.5700073242 0.240005493164 -29.5 rrcurveto
          -472.880004883 vlineto
          -29.9900054932 -24.3200073242 -24.1600036621 21 callgsubr
          vhcurveto
          endchar
        </CharString>
        <CharString name="onehalf">
          229 577.350006104 -37 callsubr
          -34.0099945068 305.919998169 -45 callgsubr
          276.36000061 -21 -56 callsubr
        </CharString>
        <CharString name="onequarter">
          137 578.350006104 -37 callsubr
          97.3300018311 312.570007324 rmoveto
          -19.9499969482 -16.8500061035 15.8699951172 19.8000030518 hvcurveto
          363.699996948 -22 callsubr
          vlineto
          -25.9900054932 -30.8999938965 -33.2100067139 -7.08000183105 -34.6699981689 -4.67999267578 rrcurveto
          -22 callsubr
          25.1600036621 vlineto
          20.0899963379 10.5899963379 -11.1999969482 -21.4700012207 hvcurveto
          -281.270004272 vlineto
          -20 -16.7200012207 -16.1100006104 -20.1000061035 vhcurveto
          -13.9400024414 -22 callsubr
          146.369995117 -7 callgsubr
          hlineto
          463.899993896 -184.820007324 -52 callsubr
        </CharString>
        <CharString name="onesuperior">
          -365 44.9900054932 308 -45 callgsubr
          endchar
        </CharString>
        <CharString name="ordfeminine">
          -208 186.479995728 714 rmoveto
          -5.19000244141 hlineto
          -1.14999389648 -15.0599975586 -20.1699981689 -44.25 0 vvcurveto
          -111.850006104 -236.309997559 rlineto
          -24.6699981689 -12.0099945068 -16.8099975586 -10.2599945068 -14.9400024414 hhcurveto
          -4.36000061035 -5.75999450684 114.460006714 5.71000671387 -4.36000061035 hlineto
          -12.7200012207 -15.1499938965 12.9199981689 22.7400054932 8.97999572754 hvcurveto
          28.5200042725 66.9100036621 rlineto
          123.240005493 hlineto
          25.6900024414 -66.4100036621 rlineto
          -23.0500030518 8.82000732422 -14.9499969482 -13.1000061035 -12.8200073242 hhcurveto
          -4.36000061035 -5.71000671387 122.960006714 5.75999450684 -4.14999389648 hlineto
          -15.2200012207 -15.4900054932 10.6300048828 25.6600036621 -12.9100036621 hvcurveto
          -190.509994507 90.3600006104 rmoveto
          54.3099975586 127.419998169 49.3000030518 -127.419998169 rlineto
          endchar
        </CharString>
        <CharString name="ordmasculine">
          -164 206.380004883 714 rmoveto
          -97.0899963379 -79.2899932861 -75.7700042725 -96.4299926758 -96.4299926758 79.2899932861 -75.7599945068 97.0899963379 97.0899963379 79.2899932861 75.7599945068 96.4299926758 96.4299926758 -79.2899932861 75.7700042725 -97.0899963379 hvcurveto
          -323.419998169 vmoveto
          -70.8699951172 -50.6799926758 65.4199981689 85.8099975586 85.8099975586 50.6799926758 65.4199981689 70.8699951172 70.8699951172 50.6799926758 -65.4199981689 -85.8099975586 -85.8099975586 -50.6799926758 -65.4199981689 -70.8699951172 hvcurveto
          endchar
        </CharString>
        <CharString name="oslash">
          272 724.699996948 10 callgsubr
          -54.3999938965 -65.4100036621 rlineto
          36.7899932861 -60.7799987793 -75.0399932861 20.2899932861 -84.7400054932 hhcurveto
          -227.029998779 -157.410003662 -145.600006104 -218.399993896 -116.169998169 44.5399932861 -95.5700073242 75.8699951172 -64.0200042725 hvcurveto
          -62.5599975586 -75.2299957275 25.0099945068 -22 64.1199951172 76.9799957275 rlineto
          -43.6600036621 63.5299987793 81.1499938965 -24.3200073242 92.7799987793 hhcurveto
          227.029998779 157.410003662 145.600006104 218.399993896 123.720001221 -50.5099945068 100.36000061 -85.0700073242 63.7599945068 hvcurveto
          -478.380004883 -522.130004883 rmoveto
          -49.4100036621 57.9799957275 -28.0899963379 80.5200042725 95.7799987793 17 callgsubr
          123 133.630004883 184.020004272 75.3399963379 65.1100006104 -22.3999938965 -40.2100067139 50.6300048828 vhcurveto
          25.2200012207 -22.7100067139 rmoveto
          57.6000061035 -58.6999969482 33.1300048828 -86.0399932861 -104.029998779 vvcurveto
          -200.440002441 -123 -133.630004883 -184.020004272 -83.0800018311 -70.6399993896 27.2400054932 48.3200073242 -52.5 vhcurveto
          endchar
        </CharString>
        <CharString name="otilde">
          272 561.070007324 842.520004272 -91 callgsubr
          -126.63999939 -128.520004272 -96 callgsubr
        </CharString>
        <CharString name="p">
          1 60.3500061035 700 rmoveto
          -67 callgsubr
          33.2200012207 27.2700042725 -25.2700042725 -32.3600006104 3.25 hvcurveto
          -559.589996338 -54 callgsubr
          -0.690002441406 -98 callgsubr
          218.899993896 -86 callgsubr
          597.13999939 115.279998779 vlineto
          85.0599975586 47.2599945068 -61.2299957275 -91.8500061035 2.5 hvcurveto
          0.600006103516 -22.1100006104 -2.55999755859 -24.1300048828 -4.44000244141 -14.0800018311 rrcurveto
          -45.1300048828 -143.229995728 -164.509994507 35.4900054932 0 vvcurveto
          0.119995117188 -9.44999694824 rlineto
          125.470001221 -66.1300048828 165.440002441 81.1600036621 152.419998169 vvcurveto
          119.740005493 -78.3600006104 73.3899993896 -127.850006104 vhcurveto
          endchar
        </CharString>
        <CharString name="paragraph">
          -56 503.369995117 742.619995117 rmoveto
          -47.1499938965 -40.9299926758 -32.9900054932 4.7200012207 -21.9499969482 hhcurveto
          -161.179992676 hlineto
          -108.080001831 -0.520004272461 -87 -69.5500030518 -1.22999572754 -112.960006714 rrcurveto
          -114.100006104 -1.24000549316 87 -69.9299926758 110.550003052 hhcurveto
          -333.13999939 vlineto
          2.91999816895 -97 -7.38999938965 -35 -56.2400054932 -58 7 -9 rcurveline
          82.4900054932 43 3.47999572754 79 77 vvcurveto
          670.190002441 83.4600067139 -525.559997559 vlineto
          -65.8699951172 1.75999450684 -34.3000030518 -28.7599945068 -49.4600067139 vhcurveto
          9 -8 rlineto
          39.1199951172 47.6100006104 8.88000488281 35.4499969482 77.0200042725 vvcurveto
          523.11000061 12.5299987793 vlineto
          59.6799926758 1.05000305176 29.5 28.9900054932 16.6100006104 36.3999938965 rrcurveto
          endchar
        </CharString>
        <CharString name="parenleft">
          -238 302.539993286 732 rmoveto
          -115.320007324 -40.4799957275 -99.0099945068 -165.240005493 1.80999755859 -192.559997559 16 callgsubr
          -194.789993286 98.4199981689 -180.919998169 110.470001221 -58 6 9 rcurveline
          -74.3200073242 52 -69.75 177.619995117 -2.66000366211 196.88999939 -2.53999328613 188.429992676 70.25 161.490005493 80.8099975586 38.5700073242 rrcurveto
          endchar
        </CharString>
        <CharString name="parenright">
          -238 37.7899932861 -100 rmoveto
          110.470001221 58 98.4199981689 180.919998169 16 callgsubr
          194.789993286 1.80999755859 192.559997559 -99.0099945068 165.240005493 -115.320007324 40.4799957275 -6 -8 rcurveline
          80.8099975586 -38.5700073242 70.25 -161.490005493 -2.53999328613 -188.429992676 -2.66000366211 -196.88999939 -69.75 -177.619995117 -74.3200073242 -52 rrcurveto
          endchar
        </CharString>
        <CharString name="partialdiff">
          -10 78.6900024414 577.38999939 rmoveto
          70.2400054932 97.5 81.3399963379 -2.02000427246 58.7899932861 -13.8699951172 101.720001221 -24 46.1000061035 -128.990005493 -1.64999389648 -137.929992676 -169.729995728 145.869995117 -159.080001831 -129.529998779 -34.5599975586 -122.25 -37.1000061035 -131.220001221 46.0200042725 -154.949996948 182.259994507 10 144.089996338 8 85.6600036621 123.88999939 13 215.199996948 11.9499969482 197.800003052 -85.8600006104 166.529998779 -138.850006104 16.5800018311 -105.910003662 12.6399993896 -66.8500061035 -44.1499938965 -50.6199951172 -98.1100006104 rrcurveto
          364.130004883 -251.300003052 rmoveto
          -13 -187.210006714 -74.5899963379 -121.830001831 -83.1600036621 -8.05000305176 -103.279998779 -10 -51.4700012207 107.279998779 29.3099975586 117.88999939 31.3800048828 126.210006714 87.8999938965 94.8300018311 178.020004272 -97.8899993896 rrcurveto
          endchar
        </CharString>
        <CharString name="percent">
          108 -27 callsubr
          -11.3000030518 3.41000366211 -16.9400024414 1.63999938965 -8.05999755859 -7 callsubr
          -81.4700012207 -1.36999511719 -66.1199951172 -67.8000030518 -18.9700012207 -107.600006104 rrcurveto
          -73 callsubr
          52.1999969482 -176.779998779 rmoveto
          -69 callgsubr
          endchar
        </CharString>
        <CharString name="period">
          -397 90 -4 rmoveto
          -30 callgsubr
        </CharString>
        <CharString name="periodcentered">
          -406 85 366 rmoveto
          -32.5099945068 -32.1399993896 -19.2899932861 -25.7100067139 -10.3500061035 hvcurveto
          -25.7100067139 10.3500061035 32.1399993896 -19.2899932861 32.5099945068 hhcurveto
          32.5099945068 32.1399993896 19.2899932861 25.7100067139 10.3500061035 hvcurveto
          25.7100067139 -10.3500061035 -32.1399993896 19.2899932861 -32.5099945068 hhcurveto
          -19.9799957275 vmoveto
          18.0800018311 23.2100067139 -10.7200012207 -14.3000030518 5.75 hvcurveto
          -14.3000030518 -5.75 -23.2100067139 -10.7200012207 -18.0800018311 hhcurveto
          -18.0700073242 -23.2100067139 10.7200012207 14.3000030518 -5.75 hvcurveto
          14.3000030518 5.75 23.2100067139 10.7200012207 18.0700073242 hhcurveto
          endchar
        </CharString>
        <CharString name="perthousand">
          439 -27 callsubr
          rrcurveto
          3.41000366211 -11.3000030518 -16.9400024414 1.50999450684 -11.1900024414 hhcurveto
          -78.2299957275 -66.2100067139 -69.1000061035 -107.679992676 -18.9900054932 hvcurveto
          -73 callsubr
          330 hmoveto
          -80.2799987793 -68.0500030518 -67.1799926758 -24 callsubr
          -4 callsubr
          -66.8600006104 80.2799987793 hhcurveto
          80.2799987793 68.0500030518 66.8600006104 109.600006104 19.3300018311 hvcurveto
          109.600006104 19.3300018311 -44.3600006104 67.1799926758 -80.2799987793 hhcurveto
          -277.800003052 -176.779998779 rmoveto
          -69 callgsubr
          330 hmoveto
          -69 callgsubr
          endchar
        </CharString>
        <CharString name="pi">
          127 648.800003052 10 rmoveto
          -18 callgsubr
          23.7899932861 29.6799926758 -0.949996948242 hvcurveto
          473.979995728 -15 callgsubr
          -593.910003662 -15 callsubr
          -471.699996948 -2 callsubr
          -10.9100036621 hlineto
          -7 callsubr
          -10 rlineto
          -20 callsubr
          -7 callsubr
          10 rlineto
          -18 callgsubr
          23.7899932861 29.6799926758 -0.949996948242 hvcurveto
          453.979995728 -3 callgsubr
          225.949996948 -2 callgsubr
          -451.699996948 -2 callsubr
          -9 callgsubr
          -7 callsubr
          -10 rlineto
          196.550003052 hlineto
          endchar
        </CharString>
        <CharString name="plus">
          18 callgsubr
          332.25 rmoveto
          -178.36000061 -14 callgsubr
          hlineto
          endchar
        </CharString>
        <CharString name="plusminus">
          -95 263.36000061 402.25 rmoveto
          -14 callgsubr
          45 vlineto
          -401.720001221 -342.25 rmoveto
          -25 callgsubr
          endchar
        </CharString>
        <CharString name="product">
          187 708.800003052 -190 rmoveto
          -18 callgsubr
          24 29 -0.949996948242 hvcurveto
          774.419998169 -15 callgsubr
          -653.910003662 -15 callsubr
          -771.809997559 -14 callsubr
          -7 callsubr
          10 rlineto
          -18 callgsubr
          24 29 -0.949996948242 hvcurveto
          754.429992676 -3 callgsubr
          285.949996948 -2 callgsubr
          -751.809997559 -14 callsubr
          endchar
        </CharString>
        <CharString name="q">
          291 1323.92999268 -84 rmoveto
          -123.419998169 -116 -214.300003052 4 -150.179992676 63 -130.949996948 56 -112.929992676 45 -79.4799957275 24 rrcurveto
          184.149993896 29.8300018311 122.039993286 135.86000061 192.300003052 vvcurveto
          218.399993896 -157.410003662 145.600006104 -227.029998779 -227.029998779 -157.410003662 -145.600006104 -218.399993896 -209.899993896 145.399993896 -143.089996338 212.86000061 -10 vhcurveto
          134.240005493 -25 163.5 -103 122.199996948 -53 285.690002441 -124 190.460006714 166 23.3999938965 63 rrcurveto
          -1200.3500061 438.990005493 rmoveto
          200.449996948 123 133.630004883 184.020004272 184.020004272 123 -133.630004883 -200.449996948 -200.440002441 -123 -133.630004883 -184.020004272 -184.020004272 -123 133.630004883 200.440002441 vhcurveto
          endchar
        </CharString>
        <CharString name="question">
          -163 30 530.229995728 rmoveto
          10 hlineto
          96.0700073242 -2 50.4900054932 57.6999969482 79.1199951172 hhcurveto
          74.8399963379 45.8699951172 -52.3600006104 -87.3399963379 hvcurveto
          -125.440002441 -142.740005493 -58.4700012207 -94.8300018311 vvcurveto
          -31.8500061035 9.72999572754 -31.8500061035 34.8699951172 -31.8500061035 vhcurveto
          6.0299987793 4.96000671387 -24.5800018311 32.4199981689 5.80999755859 27.4700012207 9 32.4199981689 rlinecurve
          25.7299957275 92.6699981689 151.160003662 48.6799926758 135.699996948 vvcurveto
          105.940002441 -74.3699951172 63.7599945068 -121.339996338 -64.1699981689 -53.0899963379 -33.1100006104 -55.9400024414 -30.3500061035 vhcurveto
          160.350006104 -628.949996948 rmoveto
          -30 callgsubr
        </CharString>
        <CharString name="questiondown">
          -143 232.979995728 704 rmoveto
          -51 callsubr
          -20.1499938965 -20.1499938965 -36 callsubr
          20.1499938965 -20.1499938965 -36 callgsubr
          20.1499938965 20.1499938965 -36 callgsubr
          -20.1499938965 20.1499938965 -51 callsubr
          hvcurveto
          150.350006104 -534.229995728 rmoveto
          -10 hlineto
          -96.0700073242 2 -50.4900054932 -57.6999969482 -79.1199951172 hhcurveto
          -74.8500061035 -45.8699951172 52.3600006104 87.3399963379 hvcurveto
          125.440002441 142.740005493 58.4700012207 94.8300018311 vvcurveto
          31.8500061035 -9.72999572754 31.8500061035 -34.8699951172 31.8500061035 vhcurveto
          -6.0299987793 -4.96000671387 24.5800018311 -32.4199981689 -5.80999755859 -27.4700012207 -9 -32.4199981689 rlinecurve
          -25.7299957275 -92.6699981689 -151.160003662 -48.6799926758 -135.699996948 vvcurveto
          -105.940002441 74.3699951172 -63.7599945068 121.350006104 64.1699981689 53.0899963379 33.1100006104 55.9400024414 30.3399963379 vhcurveto
          endchar
        </CharString>
        <CharString name="quotedbl">
          -261 59.0200042725 500 -42 callsubr
          139.020004272 -5.25 -42 callsubr
          endchar
        </CharString>
        <CharString name="quotedblbase">
          -245 47.7200012207 -102 -39 callgsubr
          134.820007324 -9 -39 callgsubr
          endchar
        </CharString>
        <CharString name="quotedblleft">
          -242 144.61000061 783.539993286 -58 callsubr
          137.410003662 8.75999450684 -58 callsubr
          endchar
        </CharString>
        <CharString name="quotedblright">
          -242 187.460006714 597.720001221 rmoveto
          65.9900054932 -44 callgsubr
          -17.6799926758 13.1499938965 -27 callgsubr
          -137.539993286 -8.35000610352 rmoveto
          65.9900054932 -44 callgsubr
          -17.6699981689 13.1600036621 -27 callgsubr
          endchar
        </CharString>
        <CharString name="quoteleft">
          -382 147.240005493 783.539993286 -58 callsubr
          endchar
        </CharString>
        <CharString name="quoteright">
          -387 47.4600067139 597.720001221 rmoveto
          65.9799957275 -44 callgsubr
          -17.6699981689 13.1600036621 -27 callgsubr
          endchar
        </CharString>
        <CharString name="quotesinglbase">
          -382 47.5899963379 -97 rmoveto
          69.2799987793 2 57.0700073242 73 -34.4499969482 82.8800048828 -17.9299926758 42.8699951172 -51.6199951172 -2.17999267578 -13.5099945068 -30.6900024414 -11.8800048828 -26.9799957275 22.4100036621 -18.5599975586 13.8099975586 -16.5299987793 18.1300048828 -21.8099975586 10.5500030518 -55 -64.4600067139 -21 rrcurveto
          endchar
        </CharString>
        <CharString name="quotesingle">
          -406 44.0200042725 500 -42 callsubr
          endchar
        </CharString>
        <CharString name="r">
          101 60 700 -101 callgsubr
          endchar
        </CharString>
        <CharString name="racute">
          101 313.279998779 763.970001221 -107 callsubr
          -246.279998779 -70.9700012207 -101 callgsubr
          endchar
        </CharString>
        <CharString name="radical">
          18 25 400.460006714 rmoveto
          82.3099975586 11.8899993896 159.309997559 -559.339996338 307.600006104 988.179992676 -30 2 -261.800003052 -834.029998779 -123.13999939 441.309997559 -139.279998779 -20 rlineto
          endchar
        </CharString>
        <CharString name="rcaron">
          101 318.300003052 -79 callgsubr
          -364.429992676 -182.910003662 -101 callgsubr
          endchar
        </CharString>
        <CharString name="rcommaaccent">
          101 60 700 -101 callgsubr
          15.7299957275 -908 -90 callgsubr
        </CharString>
        <CharString name="registered">
          -331 122.86000061 700.86000061 rmoveto
          20 callgsubr
          -50.5299987793 -50.5299987793 20 callgsubr
          20 callgsubr
          50.5299987793 -50.5299987793 62.3300018311 62.3300018311 50.5299987793 50.5299987793 62.3300018311 62.3300018311 -50.5299987793 50.5299987793 20 callgsubr
          hvcurveto
          -205.720001221 vmoveto
          -51.2799987793 -41.5700073242 5 callsubr
          5 callsubr
          -41.5700073242 -51.2799987793 -51.2799987793 -41.5700073242 -41.5700073242 -51.2799987793 hvcurveto
          -18.2599945068 156.559997559 rmoveto
          -37.0500030518 -2 2.5299987793 hlineto
          5.99000549316 4.52000427246 -4.49000549316 -5.94000244141 0.179992675781 hvcurveto
          -94.9299926758 vlineto
          -5.88000488281 -0.240005493164 -4.49000549316 -4.69000244141 -5.94000244141 hhcurveto
          -2.5299987793 -2 50.2899932861 2 -2.5299987793 hlineto
          -6.0299987793 -4.53999328613 4.83000183105 6 -0.110000610352 hvcurveto
          97.9299926758 vlineto
          12.0200042725 -0.220001220703 16.9700012207 0.179992675781 7.41999816895 -8.88000488281 0.410003662109 -12.9700012207 rlinecurve
          0.139999389648 -4.38000488281 -0.529998779297 -4.19000244141 -0.880004882812 -2.80000305176 -5.27000427246 -16.8000030518 -11.5599975586 -0.0700073242188 -1.30000305176 -0.279998779297 rrcurveto
          -10.5599975586 -1.85000610352 hlineto
          4.30000305176 2.89999389648 -6.7200012207 -6.75999450684 4.02000427246 hvcurveto
          7 callgsubr
          11.5800018311 7.46000671387 -25.4799957275 33.8399963379 hhcurveto
          12.6900024414 2 hlineto
          -12.5 3.92999267578 -5.36999511719 10.9400024414 -2.89999389648 4.2200012207 -7.74000549316 11.25 -11.5700073242 20.3200073242 -8.82000732422 1.97999572754 rrcurveto
          17.0200042725 1.80000305176 11.5099945068 14.1600036621 16.9499969482 vvcurveto
          20.1900024414 -17.8600006104 12.1799926758 -23.6000061035 vhcurveto
          endchar
        </CharString>
        <CharString name="ring">
          24 301.330001831 849.169998169 -84 callgsubr
          endchar
        </CharString>
        <CharString name="s">
          -100 -68 callgsubr
          endchar
        </CharString>
        <CharString name="sacute">
          -100 247.199996948 763.970001221 -107 callsubr
          -68.9299926758 -294.160003662 -100 callgsubr
          rrcurveto
          -40.6399993896 39.3000030518 81 -14 49 hhcurveto
          115 72.25 76.3899993896 110.61000061 -45 callsubr
          hvcurveto
          endchar
        </CharString>
        <CharString name="scaron">
          -100 252.220001221 -79 callgsubr
          -187.089996338 -406.100006104 -100 callgsubr
          rrcurveto
          -40.6399993896 39.3000030518 81 -14 49 hhcurveto
          115 72.25 76.3899993896 110.61000061 -45 callsubr
          hvcurveto
          endchar
        </CharString>
        <CharString name="scedilla">
          -100 171.270004272 476.809997559 -100 callgsubr
          37.0299987793 -38.2899932861 74.0500030518 -14.3500061035 49.4199981689 -2 -45.7599945068 -60 rcurveline
          -73 callgsubr
          39.7299957275 47 rcurveline
          103.839996338 8 64.3099975586 73.6499938965 104.350006104 vvcurveto
          -45 callsubr
          vhcurveto
          endchar
        </CharString>
        <CharString name="scommaaccent">
          -100 -68 callgsubr
          -159.61000061 -502.910003662 -90 callgsubr
        </CharString>
        <CharString name="section">
          -65 278 708 rmoveto
          -156.550003052 -25.9199981689 -176.449996948 -259.869995117 234 -225.210006714 168.38999939 -161.820007324 29.0899963379 -85.1799926758 -69.4799957275 -48 -92.8500061035 -65 -61.6100006104 137 -37.5299987793 -28 -43.2599945068 -33 49.1000061035 -84 122.169998169 20 162.679992676 27 152.740005493 266.259994507 -222.419998169 224.740005493 -175.990005493 177.830001831 -14.5200042725 62.8500061035 66.5099945068 48.3200073242 92.0099945068 66.8500061035 63.0800018311 -139.270004272 37.9100036621 28.4299926758 rrcurveto
          40.8399963379 30.6199951172 -45.6100006104 85.6100006104 -122.229995728 -20.2400054932 rrcurveto
          -138.75 -125.080001831 rmoveto
          -7.83999633789 -77.8000030518 29.0399932861 -64.6699981689 128.550003052 -123.440002441 148.699996948 -142.789993286 -16.3399963379 -110.600006104 -49.9900054932 -78.6100006104 19.0399932861 65.1000061035 -39.5299987793 82.1399993896 -126.88999939 115.75 -160.330001831 146.259994507 20 callsubr
          107.990005493 43.0599975586 80.6699981689 rrcurveto
          endchar
        </CharString>
        <CharString name="semicolon">
          -392 90 407.229995728 rmoveto
          -89 callgsubr
          -42.6399993896 -496.229995728 -40 callsubr
        </CharString>
        <CharString name="seven">
          -74 63.2200012207 598.130004883 rmoveto
          399.36000061 hlineto
          -107.61000061 -287.63999939 -24.6900024414 -66.4199981689 -83.1300048828 -233.63999939 -26.4600067139 -110.419998169 rlinecurve
          -70 hlineto
          40.7599945068 101.559997559 80.8899993896 202.589996338 41.8899993896 109.910003662 88.0200042725 230.949996948 rcurveline
          -282.279998779 hlineto
          -39.9799957275 -20.2200012207 -20.3399963379 -39.6600036621 -14.7599945068 hvcurveto
          -10 hlineto
          endchar
        </CharString>
        <CharString name="six">
          -16 184.929992676 315.210006714 rmoveto
          26.1999969482 34.25 41.8699951172 17.0599975586 41.7899932861 0.179992675781 86.3000030518 0.369995117188 47.1600036621 -64.8200073242 1.63999938965 -100.699996948 rrcurveto
          -95.0899963379 1.55000305176 -41.1699981689 -91.4100036621 -95.4900054932 hhcurveto
          -103.259994507 -51.4900054932 105.809997559 150.690002441 206.960006714 74.4900054932 187.470001221 190.240005493 61.0399932861 hvcurveto
          -3.71000671387 7.41000366211 -229 -27.3000030518 -104.229995728 -228.630004883 -2.78999328613 -206.960006714 rlinecurve
          -2.44999694824 -181.660003662 97.8200073242 -106.880004883 134.369995117 2 136.630004883 2 81.0399932861 113.130004883 -7.57000732422 115.410003662 -14.5399932861 221.690002441 -207.630004883 11.8300018311 -103.270004272 -124.86000061 rrcurveto
          endchar
        </CharString>
        <CharString name="slash">
          -170 7 5.08000183105 rmoveto
          30.6600036621 -19.0800018311 360.940002441 710.5 -31.0800018311 17.5 rlineto
          endchar
        </CharString>
        <CharString name="softhyphen">
          -12 callsubr
        </CharString>
        <CharString name="space">
          -326 endchar
        </CharString>
        <CharString name="sterling">
          1 537.679992676 159.399993896 rmoveto
          -49 -98.3999938965 -97 -20 -80 7 -75 6 -61 17 -50.6300048828 -17.3099975586 49.3999938965 47.2599945068 53.1000061035 51.2400054932 16 callgsubr
          176.570007324 rrcurveto
          170.979995728 hlineto
          12.2599945068 35.8600006104 rlineto
          -183.550003052 hlineto
          -6.46000671387 190.36000061 15.1100006104 116.830001831 121.960006714 12.1999969482 64 6 53 -33 -11.8300018311 -91.5 rrcurveto
          10 hlineto
          27.3500061035 91.1999969482 -27.5200042725 35.3000030518 -50 28 -65 -6 rlinecurve
          -161 -15 -49 -139 9.24000549316 -195.38999939 rrcurveto
          -96.6600036621 hlineto
          -12.2599945068 14 callsubr
          rlineto
          109.649993896 hlineto
          -0.220001220703 -165.470001221 -50.8800048828 -112.580001831 -50.8600006104 -40.7200012207 rrcurveto
          -9.97999572754 10 vlineto
          11.9799957275 12 20 10 9 2 63 13 49 -33 89 -12 53 -7 74 9 65.5700073242 30 45.4299926758 135.399993896 rcurveline
          endchar
        </CharString>
        <CharString name="summation">
          59 600.61000061 8.71000671387 rmoveto
          -10 hlineto
          -18.3099975586 -66.7100067139 -40.75 -54 -69.6499938965 -4 rrcurveto
          -346.789993286 hlineto
          244.589996338 395.25 -227.350006104 390.75 rlineto
          369.960006714 hlineto
          31.9600067139 -1.11999511719 25.5800018311 -26.2200012207 -32.2400054932 vvcurveto
          -17.8200073242 13 callsubr
          -0.149993896484 rlineto
          125.800003052 vlineto
          -7.99000549316 -18.9499969482 -59.6199951172 -10.2100067139 -43.3600006104 hhcurveto
          -402.419998169 -10.0299987793 hlineto
          258.759994507 -437.61000061 -264.300003052 -422.38999939 rlineto
          -10 527.679992676 vlineto
          endchar
        </CharString>
        <CharString name="t">
          -65 callsubr
          endchar
        </CharString>
        <CharString name="tbar">
          42 140.440002441 701 -62 callgsubr
          -269.960006714 19 callsubr
          -299.820007324 -29 callgsubr
          -28.0599975586 -16 callsubr
          -34.4499969482 -95 callgsubr
          218.919998169 -69 callsubr
          298.990005493 19 callgsubr
          269.960006714 -68 callsubr
          endchar
        </CharString>
        <CharString name="tcaron">
          42 314.009994507 764.149993896 rmoveto
          106.130004883 118.759994507 -6 8 -104.660003662 -66 -113.63999939 66.1000061035 -6 -8 114.179992676 -118.850006104 rlineto
          -163.570007324 -63.1499938965 -62 callgsubr
          -4 callgsubr
          -28.0500030518 -16 callsubr
          9 callgsubr
          -95 callgsubr
          218.919998169 hlineto
          -0.160003662109 10 rlineto
          -12.6499938965 hlineto
          -34.7299957275 -28.2299957275 27.6199951172 34.4600067139 -1.07000732422 hvcurveto
          598.960006714 -68 callsubr
          endchar
        </CharString>
        <CharString name="tcedilla">
          42 140.440002441 701 rmoveto
          -43.2200012207 0.229995727539 -58.4799957275 10.0700073242 -18.7299957275 7.88999938965 rrcurveto
          -125.720001221 13 callsubr
          0.149993896484 rlineto
          17.8200073242 vlineto
          32.0700073242 25.3000030518 26.1199951172 31.7200012207 1.38000488281 vhcurveto
          189.660003662 -19 callgsubr
          99.9400024414 hlineto
          -47.3399963379 -62 5 -10 35.6300048828 15 46.6399993896 -6 1.5 -42 rlinecurve
          -48 1.74000549316 -50.7599945068 -16 -41.0200042725 hhcurveto
          -0.729995727539 -10 67.0200042725 -21 75.7400054932 31 -2 63 rlinecurve
          -2.16999816895 69 -67.6799926758 1 -34.9900054932 -12 40.9900054932 48 rcurveline
          91.3899993896 -78 callgsubr
          -43.2299957275 -0.229995727539 rrcurveto
          endchar
        </CharString>
        <CharString name="thorn">
          -22 184.61000061 547.899993896 rmoveto
          79.9199981689 vlineto
          -87 callgsubr
          34.8300018311 -0.649993896484 hvcurveto
          445.039993286 115.429992676 vlineto
          85.0599975586 47.2599945068 -61.2299957275 -91.8500061035 2.5 hvcurveto
          0.600006103516 -22.1100006104 -2.55999755859 -24.1300048828 -4.44000244141 -14.0800018311 rrcurveto
          -45.1300048828 -143.229995728 -164.509994507 35.4900054932 0 vvcurveto
          0.119995117188 -9.44999694824 rlineto
          125.470001221 -66.1300048828 160.440002441 81.1600036621 152.419998169 vvcurveto
          118.279998779 -69.2799987793 74.8500061035 -131.919998169 vhcurveto
          endchar
        </CharString>
        <CharString name="three">
          -73 78.4400024414 447.770004272 rmoveto
          10 hlineto
          -4.44000244141 79.2299957275 48 55 82.75 0.259994506836 84.25 -0.259994506836 36 -58 3 -59 6 -109 -100 -62 -89.2200012207 0.369995117188 -1.82000732422 -10 rcurveline
          119.039993286 -0.369995117188 86 -52 0.360000610352 -113.399993896 -0.360000610352 -143.600006104 -137 -101 -159 4 -2 -10 rcurveline
          201 -35 172 127 0.360000610352 156.169998169 -0.320007324219 105.589996338 -77.6799926758 62.2400054932 -78.6799926758 12.7799987793 rrcurveto
          66.3200073242 6.78999328613 70.9900054932 76.0200042725 83.4100036621 vvcurveto
          87 -76 68 -121 -6 vhcurveto
          -79 -4 -45 -31 -31.9100036621 -36.0299987793 rrcurveto
          endchar
        </CharString>
        <CharString name="threequarters">
          137 621.350006104 -37 callsubr
          -91.7100067139 610.529998779 -66 callsubr
          640.440002441 -544.899993896 -52 callsubr
        </CharString>
        <CharString name="threesuperior">
          -266 51.2899932861 612.61000061 -66 callsubr
          endchar
        </CharString>
        <CharString name="tilde">
          24 412.25 778.520004272 -91 callgsubr
          endchar
        </CharString>
        <CharString name="trademark">
          -130 43.9199981689 700.080001831 rmoveto
          -12.1600036621 0.0599975585938 -16.4799957275 2.83999633789 -5.2799987793 2.2200012207 rrcurveto
          -41.3600006104 2.83000183105 5.00999450684 vlineto
          9.02000427246 7.11999511719 7.35000610352 8.92999267578 0.389999389648 vhcurveto
          47.3300018311 -162.679992676 hlineto
          -9.58000183105 -0.419998168945 -7.88999938965 -7.63999938965 -9.69000244141 hhcurveto
          -3.55999755859 -2.80999755859 73.5700073242 2.80999755859 -3.55999755859 hlineto
          -9.77000427246 -7.94000244141 7.75999450684 9.69000244141 -0.309997558594 hvcurveto
          162.460006714 47.3000030518 vlineto
          8.92999267578 -0.389999389648 7.11999511719 -7.35000610352 -9.02000427246 vvcurveto
          -5.00999450684 2.83000183105 41.3600006104 vlineto
          -5.2799987793 -2.2200012207 -16.4799957275 -2.83999633789 -12.1600036621 -0.0599975585938 rrcurveto
          241.979995728 3.57000732422 rmoveto
          -2.57000732422 hlineto
          -72.2599945068 -155.479995728 -82.9499969482 155.559997559 rlineto
          -2.61000061035 hlineto
          -21.1499938965 -180.380004883 rlineto
          -11.1199951172 -1.44000244141 -9 -6.5 -10.0599975586 hhcurveto
          -4.4700012207 -2.80999755859 61.1900024414 2.66000366211 -4.38000488281 hlineto
          -6.05999755859 0.00999450683594 -5.33999633789 5.92999267578 0.440002441406 6.05999755859 8.36000061035 115.899993896 rcurveline
          69.1900024414 -134.509994507 rlineto
          2.64999389648 hlineto
          1.82000732422 11.6399993896 7.83999633789 17.0800018311 0 vvcurveto
          52.8399963379 111.509994507 18.0800018311 -121.619995117 0.899993896484 -6.05999755859 -5.80999755859 -5.92999267578 -6.05999755859 -0.00999450683594 rlinecurve
          -4.38000488281 -2.66000366211 71.0500030518 2.80999755859 -4.47999572754 hlineto
          -10.0500030518 -8 6.5 11.1199951172 -2.44000244141 hvcurveto
          endchar
        </CharString>
        <CharString name="two">
          -23 99.9100036621 455.300003052 rmoveto
          -2.0299987793 84.7200012207 60.9299926758 45.1499938965 94.1999969482 16 callgsubr
          rrcurveto
          90.4299926758 1.75999450684 55.5399932861 -55.5500030518 -91.8000030518 vvcurveto
          -143.199996948 -222.949996948 -192.5 -118.039993286 -97.1100006104 vhcurveto
          -8.60000610352 415.050003052 vlineto
          48.1999969482 130.470001221 rlineto
          -10.1300048828 hlineto
          -55.1000061035 -35.6300048828 -22.6699981689 -19.1000061035 -60.1799926758 hhcurveto
          -233.289993286 hlineto
          100.059997559 77.7700042725 214.710006714 152.759994507 156.429992676 vvcurveto
          106 -87.1699981689 64.7700042725 -134.149993896 -64.4400024414 -77.3899993896 -23.4499969482 -33.5500030518 -38.4499969482 vhcurveto
          17.2700042725 -101.699996948 rlineto
          endchar
        </CharString>
        <CharString name="twosuperior">
          -201 57.7200012207 595 -56 callsubr
        </CharString>
        <CharString name="u">
          209 550.179992676 700 -105 callsubr
        </CharString>
        <CharString name="uacute">
          209 401.570007324 763.970001221 -107 callsubr
          155.61000061 -70.9700012207 -105 callsubr
        </CharString>
        <CharString name="ucircumflex">
          209 396.429992676 889.740005493 -76 callsubr
          259.880004883 -70.9799957275 -105 callsubr
        </CharString>
        <CharString name="udieresis">
          209 307.440002441 764.100006104 -106 callgsubr
          54.3699951172 -64.1000061035 -105 callsubr
        </CharString>
        <CharString name="ugrave">
          209 408.63999939 -72 callgsubr
          148.539993286 -64 -105 callsubr
        </CharString>
        <CharString name="uhungarumlaut">
          209 344.529998779 768.380004883 -81 callgsubr
          94.4299926758 -70.3800048828 -105 callsubr
        </CharString>
        <CharString name="umacron">
          209 279.460006714 -34 callsubr
          270.720001221 -130.36000061 -105 callsubr
        </CharString>
        <CharString name="underscore">
          -76 -90 30 hstem
          0 500 vstem
          -90 vmoveto
          500 30 -500 hlineto
          endchar
        </CharString>
        <CharString name="uni021A">
          -39 callsubr
          -19 callgsubr
          218.919998169 -78 callgsubr
          -43.2200012207 -0.229995727539 rrcurveto
          -201.740005493 -908 rmoveto
          52.2400054932 2 42.1000061035 56 -27.0700073242 62 -14.1000061035 32 -38.9100036621 -2 -5 callgsubr
          -16 18 callsubr
          -15 rrcurveto
          endchar
        </CharString>
        <CharString name="uni021B">
          -65 callsubr
          -203.059997559 -909 -90 callgsubr
        </CharString>
        <CharString name="uogonek">
          209 550.179992676 700 -97 callsubr
          -0.0599975585938 -154.88999939 109.699996948 -103.699996948 164.86000061 -1 -39.7100067139 -14 -28.5299987793 -32 0.460006713867 -39 -48 callgsubr
          -1.2799987793 37 19.3300018311 26 52.2799987793 14 rrcurveto
          135.949996948 17.9299926758 87.7799987793 98.9299926758 141.479995728 vvcurveto
          395.449996948 vlineto
          27.5599975586 1.74000549316 22.9499969482 19.6699981689 28.1100006104 hhcurveto
          16.3000030518 10 hlineto
          endchar
        </CharString>
        <CharString name="uring">
          209 401.830001831 914.279998779 -84 callgsubr
          148.350006104 -197.130004883 -105 callsubr
        </CharString>
        <CharString name="v">
          164 548.86000061 700.149993896 rmoveto
          -10 8.78999328613 vlineto
          25.8200073242 26.7799987793 -22.4499969482 -40.0200042725 -14.6000061035 hvcurveto
          -217.520004272 -523.820007324 -209.539993286 523.899993896 rlineto
          39.9700012207 -14.5399932861 -35 callsubr
          240.460006714 539.100006104 rlineto
          44 20.2799987793 36.8300018311 17.9499969482 30.4700012207 hhcurveto
          8.78999328613 -22 callgsubr
          hlineto
          endchar
        </CharString>
        <CharString name="w">
          406 794.800003052 700 -93 callsubr
          47.6199951172 -55 callgsubr
        </CharString>
        <CharString name="wacute">
          406 507.080001831 773.970001221 -107 callsubr
          294.720001221 -80.9700012207 -93 callsubr
          47.6300048828 -55 callgsubr
        </CharString>
        <CharString name="wcircumflex">
          406 501.940002441 899.740005493 -76 callsubr
          398.990005493 -80.9799957275 -93 callsubr
          47.6300048828 -55 callgsubr
        </CharString>
        <CharString name="wdieresis">
          406 412.949996948 774.100006104 -106 callgsubr
          193.479995728 -74.1000061035 -93 callsubr
          47.6300048828 -55 callgsubr
        </CharString>
        <CharString name="wgrave">
          406 514.149993896 781 -78 callsubr
          -10 callsubr
          -18 callsubr
          -10.6399993896 -79 callsubr
          287.649993896 -74 -93 callsubr
          47.6300048828 -55 callgsubr
        </CharString>
        <CharString name="x">
          86 658.949996948 10 rmoveto
          0 callgsubr
          -194.25 305.13999939 175.25 258.020004272 rlineto
          30.8699951172 21.2799987793 37.5200042725 27.8999938965 42 hhcurveto
          14 10.0200042725 -225.479995728 -10.0200042725 12.6000061035 hlineto
          27.2700042725 23.5200042725 -33.6699981689 -28.3899993896 -16.7299957275 hvcurveto
          -136.320007324 -215.309997559 -137.789993286 216.440002441 11 callgsubr
          32.8300018311 -21 callgsubr
          175.550003052 -276.929992676 -191.490005493 -285.330001831 rlineto
          -30.8699951172 -21.2899932861 -38.5200042725 -28.0700073242 -42 hhcurveto
          -13.8500061035 -9.85000610352 226.800003052 9.85000610352 -12.6000061035 hlineto
          -27.0700073242 -25.2799987793 33.3300018311 28.25 16.9600067139 hvcurveto
          153.789993286 242.529998779 154.11000061 -243.169998169 rlineto
          -28.2400054932 16 -24.2899932861 3 callgsubr
          hlineto
          endchar
        </CharString>
        <CharString name="y">
          85 449.869995117 700.020004272 -97 callgsubr
        </CharString>
        <CharString name="yacute">
          85 343.410003662 763.970001221 -107 callsubr
          113.460006714 -70.9499969482 -97 callgsubr
        </CharString>
        <CharString name="ycircumflex">
          85 338.270004272 889.740005493 -76 callsubr
          217.729995728 -70.9600067139 -97 callgsubr
        </CharString>
        <CharString name="ydieresis">
          85 249.279998779 764.100006104 -106 callgsubr
          12.2200012207 -64.0800018311 -97 callgsubr
        </CharString>
        <CharString name="yen">
          85 449.869995117 700.020004272 rmoveto
          -10.0200042725 12.6000061035 vlineto
          26.9499969482 24.1900024414 -32.8600006104 -28.1699981689 -15.5599975586 hvcurveto
          -159.899993896 -280.86000061 -149.839996338 279.850006104 rlineto
          28.3899993896 -14.7100067139 20.4600067139 33.6999969482 29.2700042725 hhcurveto
          12.6000061035 9.9700012207 -245.919998169 -9.9700012207 13.6300048828 hlineto
          41.8200073242 39.3600006104 -27.7200012207 -30.7100067139 19.3699951172 hvcurveto
          129.619995117 -216.699996948 rlineto
          -129.309997559 -30 147.25 hlineto
          42.8699951172 -71.6699981689 rlineto
          -18.3300018311 -190.119995117 -30 190.119995117 -192.039993286 -54 callgsubr
          -0.679992675781 -98 callgsubr
          218.75 hlineto
          -80 callgsubr
          10 rlineto
          -55 callsubr
          -34.7100067139 -28.2200012207 27.5899963379 34.4299926758 -1.10000610352 hvcurveto
          192.910003662 190.119995117 30 -190.119995117 17.4400024414 vlineto
          44.8899993896 72.5599975586 rlineto
          145.229995728 30 -126.669998169 hlineto
          134.259994507 217.009994507 rlineto
          30.5899963379 21.3600006104 37.2700042725 27.4799957275 41.6799926758 hhcurveto
          14 10.0200042725 hlineto
          endchar
        </CharString>
        <CharString name="ygrave">
          85 350.479995728 -17 callgsubr
          -10 callsubr
          -18 callsubr
          -10.6399993896 -79 callsubr
          106.38999939 -63.9799957275 -97 callgsubr
        </CharString>
        <CharString name="z">
          75 606.839996338 154.440002441 rmoveto
          -18.9799957275 -69.7599945068 -43.0800018311 -54.7799987793 -74.3899993896 -0.169998168945 rrcurveto
          -318.020004272 hlineto
          427.210006714 675.589996338 rlineto
          -96 callsubr
          523.690002441 hlineto
          33.1600036621 154.440002441 rlineto
          endchar
        </CharString>
        <CharString name="zacute">
          75 323.929992676 763.970001221 -107 callsubr
          289.910003662 -616.529998779 rmoveto
          -18.9799957275 -69.7599945068 -43.0800018311 -54.7799987793 -74.3899993896 -0.169998168945 rrcurveto
          -318.020004272 hlineto
          427.210006714 675.589996338 rlineto
          -96 callsubr
          523.690002441 hlineto
          14 callgsubr
          154.440002441 rlineto
          endchar
        </CharString>
        <CharString name="zcaron">
          75 328.949996948 -79 callgsubr
          171.759994507 -728.470001221 rmoveto
          -18.9799957275 -69.7599945068 -43.0800018311 -54.7799987793 -74.3899993896 -0.169998168945 rrcurveto
          -318.020004272 hlineto
          427.210006714 675.589996338 rlineto
          -96 callsubr
          523.690002441 hlineto
          14 callgsubr
          154.440002441 rlineto
          endchar
        </CharString>
        <CharString name="zdotaccent">
          75 322.61000061 764.600006104 -86 callsubr
          284.240005493 -610.149993896 rmoveto
          -18.9799957275 -69.7599945068 -43.0800018311 -54.7799987793 -74.3899993896 -0.169998168945 rrcurveto
          -318.020004272 hlineto
          427.210006714 675.589996338 rlineto
          -96 callsubr
          523.690002441 hlineto
          14 callgsubr
          154.440002441 rlineto
          endchar
        </CharString>
        <CharString name="zero">
          94 335 614 rmoveto
          -171 -114 -125.600006104 -188.399993896 -188.399993896 114 -125.600006104 171 171 114 125.600006104 188.399993896 188.399993896 -114 125.600006104 -171 hvcurveto
          -30 vmoveto
          129.279998779 86.1900024414 -113.600006104 -170.399993896 -170.399993896 -86.1900024414 -113.600006104 -129.279998779 -129.279998779 -86.1900024414 113.600006104 170.399993896 170.399993896 86.1900024414 113.600006104 129.279998779 hvcurveto
          endchar
        </CharString>
      <CharString index="0">
        -75 callsubr
        299.630004883 170.039993286 hlineto
        -53 callgsubr
        203.869995117 -49 callsubr
        24.75 -71 callgsubr
        -95 callsubr
        return
      </CharString>
      <CharString index="1">
        rmoveto
        21.5800018311 17.5 17.5 21.5800018311 21.5800018311 -17.5 17.5 -21.5800018311 -21.5800018311 -17.5 -17.5 -21.5800018311 -21.5800018311 17.5 -17.5 21.5800018311 hvcurveto
        188.369995117 hmoveto
        21.5800018311 17.5 17.5 21.5800018311 21.5800018311 -17.5 17.5 -21.5800018311 -21.5800018311 -17.5 -17.5 -21.5800018311 -21.5800018311 17.5 -17.5 21.5800018311 hvcurveto
        return
      </CharString>
      <CharString index="2">
        26.3099975586 -1.03999328613 21.0200042725 -21.6300048828 -26.5800018311 vvcurveto
        -14.7299957275 vlineto
        9.77000427246 -0.119995117188 rlineto
        158.259994507 vlineto
        -9.77000427246 -3 callsubr
        -26.7899932861 -0.5 vhcurveto
        return
      </CharString>
      <CharString index="3">
        rmoveto
        0.589996337891 50.1499938965 18.1600036621 30.6699981689 59.9400024414 9.47999572754 -1.83999633789 10 rcurveline
        -94.7700042725 -18.0599975586 -103.020004272 0.190002441406 -56.9799957275 -6.19000244141 -92.0599975586 -10 -35 -38 -2 -47 -2 -54.0299987793 47 -41.9700012207 61.6900024414 16.3999938965 rrcurveto
        5.80999755859 vlineto
        -52.5399932861 1.78999328613 -23.0599975586 31.7799987793 3 40.2200012207 3 44 38.0599975586 18.3300018311 59.8600006104 3.53999328613 107.009994507 6.33000183105 rcurveline
        -600.330001831 -102 callsubr
        218.789993286 -86 callgsubr
        return
      </CharString>
      <CharString index="4">
        0.979995727539 28.2700042725 27.7200012207 34.7899932861 -77 callsubr
        -218.759994507 -62 callsubr
        34.8600006104 28.3099975586 -27.8300018311 -34.6399993896 0.869995117188 hvcurveto
        -554.740005493 -102 callsubr
        return
      </CharString>
      <CharString index="5">
        -92 callgsubr
        -155.759994507 110.929992676 -103.839996338 166.399993896 161.729995728 107.809997559 104.539993286 156.800003052 vhcurveto
        332.669998169 vlineto
        186.979995728 95.1900024414 94.6499938965 142.759994507 vhcurveto
        10 vlineto
        -170.729995728 6.9700012207 -113.869995117 -99.1799926758 -0.0700073242188 -200.740005493 rrcurveto
        return
      </CharString>
      <CharString index="6">
        rmoveto
        -67 callgsubr
        35 28.3999938965 -28.0500030518 -60 callsubr
        0.660003662109 hvcurveto
        -554.809997559 vlineto
        -34.6100006104 -0.880004882812 -28.3000030518 -27.7899932861 -34.8399963379 hhcurveto
        -12.6499938965 hlineto
        -0.160003662109 -10 rlineto
        218.460006714 -86 callgsubr
        596.009994507 vlineto
        12.9799957275 -0.470001220703 60.5299987793 2.47999572754 50.9799957275 -2.78999328613 74.4499969482 -4.08000183105 47.1399993896 -57.9299926758 2.46000671387 -90.4400024414 0.600006103516 -21.9199981689 -2.55000305176 -23.9499969482 -4.41000366211 -14.0099945068 -28.3800048828 -90.0599975586 -75.8300018311 -12.3600006104 -51.8699951172 -1.41000366211 rrcurveto
        -30.1000061035 -0.820007324219 -22.7400054932 0.490005493164 0 vvcurveto
        -9.25 vlineto
        36.5299987793 29.1699981689 -34.6399993896 -32.8399963379 26.1399993896 hvcurveto
        7.67999267578 -9.64999389648 112.690002441 -163.960006714 11.3600006104 -13.5700073242 rrcurveto
        -37.5399932861 31.4400024414 49.9700012207 -50.1300048828 93.0599975586 hhcurveto
        54.8600006104 10.0299987793 hlineto
        -58.7599945068 0.470001220703 -37.0099945068 31.2100067139 -40.2299957275 43.9400024414 rrcurveto
        -38.7100067139 42.2799987793 -86.2100067139 123.100006104 0 vvcurveto
        -19.3800048828 27.3699951172 -30.7400054932 33.1000061035 -21.4499969482 9.89999389648 rrcurveto
        96.1699981689 73.7100067139 93.8600006104 96.8099975586 116.520004272 -74.2700042725 71.4199981689 -121.179992676 hvcurveto
        return
      </CharString>
      <CharString index="7">
        rmoveto
        -31.5099945068 29.1900024414 -8.75 36.9400024414 26.0700073242 vvcurveto
        60.9400024414 49.3099975586 54.0599975586 73.6799926758 62.3099975586 50.4400024414 -39 -63.9700012207 -0.240005493164 13 callgsubr
        122.710006714 -39.6300048828 hlineto
        5.78999328613 -26.5599975586 -32.9499969482 4.4700012207 -26.25 hhcurveto
        -114 -61.75 -84.7100067139 -84.2899932861 -38.7100067139 13.75 -48.2899932861 40.4499969482 -36.9199981689 hvcurveto
        191.550003052 -177.899993896 rlineto
        24.9900054932 -23.1900024414 14.25 -30.9199981689 -39.0800018311 vvcurveto
        -79.9199981689 -61 -50.0299987793 -73 -4.05000305176 vhcurveto
        -89 -4.94999694824 -65.2400054932 65.9400024414 10.0500030518 103.050003052 rrcurveto
        -8.78999328613 hlineto
        -15.2299957275 -44.8399963379 -3.7799987793 -63.6999969482 7.44999694824 -30.8699951172 return
      </CharString>
      <CharString index="8">
        -91.9600067139 -133.589996338 hhcurveto
        -127.399993896 -84.9299926758 97.1199951172 145.679992676 hvcurveto
        381.710006714 vlineto
        27.9799957275 1.2200012207 23.1199951172 20.0399932861 28.3800048828 hhcurveto
        16.3000030518 10 -203.11000061 -10 return
      </CharString>
      <CharString index="9">
        -28.3999938965 -28.0500030518 -85 callsubr
        return
      </CharString>
      <CharString index="10">
        rmoveto
        -10.0200042725 12.6000061035 vlineto
        26.9499969482 24.1900024414 -32.8600006104 -28.1699981689 -15.5599975586 hvcurveto
        -0.529998779297 -0.929992675781 -159.369995117 -279.940002441 -149.839996338 279.850006104 rlineto
        28.3899993896 -14.7100067139 20.4600067139 33.6999969482 29.2700042725 hhcurveto
        12.6000061035 9.9700012207 -245.919998169 -9.9700012207 13.6300048828 hlineto
        41.8200073242 39.3600006104 -27.7200012207 -30.7100067139 19.3699951172 hvcurveto
        190.399993896 -318.309997559 rlineto
        -241.020004272 vlineto
        -34.5599975586 -0.960006713867 -28.2700042725 -27.7400054932 -34.8099975586 hhcurveto
        -12.6499938965 hlineto
        -0.160003662109 -10 rlineto
        218.75 -86 callgsubr
        239.429992676 vlineto
        197.729995728 319.630004883 rlineto
        30.5899963379 21.3600006104 37.2700042725 27.4799957275 41.6799926758 hhcurveto
        14 10.0200042725 hlineto
        endchar
      </CharString>
      <CharString index="11">
        rmoveto
        -227.029998779 -157.410003662 12 callsubr
        157.410003662 -145.600006104 227.029998779 227.029998779 157.410003662 145.600006104 218.399993896 218.399993896 -157.410003662 145.600006104 -227.029998779 hvcurveto
        -698.080001831 vmoveto
        -184.020004272 -123 12 callgsubr
        123 133.630004883 184.020004272 184.020004272 123 -133.630004883 -200.449996948 -200.440002441 -123 -133.630004883 -184.020004272 hvcurveto
        endchar
      </CharString>
      <CharString index="12">
        hhcurveto
        -55 callsubr
        -80 callgsubr
        -10 rlineto
        return
      </CharString>
      <CharString index="13">
        rmoveto
        -234.990005493 -38 -133.320007324 91 -9.05000305176 212.160003662 rrcurveto
        154.020004272 vlineto
        28.9199981689 -0.470001220703 18.1900024414 16.3099975586 32.3300018311 hhcurveto
        15.0700073242 10 -195.869995117 -10 15.7700042725 hlineto
        32.2799987793 18.3999938965 -16.4100036621 -29.2100067139 hvcurveto
        -177.190002441 vlineto
        -53.3000030518 -56.1600036621 -81.8200073242 -33.4299926758 -86.9100036621 hhcurveto
        -179.669998169 0.940002441406 -134.75 142.179992676 190.960006714 vvcurveto
        195.899993896 134.75 138.169998169 179.669998169 132.050003052 91.5299987793 -64.3699951172 -114.440002441 30.3800048828 vhcurveto
        8.32000732422 hlineto
        -20.1799926758 141.240005493 rlineto
        37.8200073242 -58.75 -73.6600036621 29.7100067139 -109.990005493 hhcurveto
        -222.36000061 -166.770004272 -151 -213 -207.960006714 166.88999939 -155.050003052 222.529998779 -1 hvcurveto
        103.440002441 76.5200042725 32.3699951172 39.9499969482 52.5099945068 hvcurveto
        37.5099945068 -181.309997559 169.539993286 -102 227.669998169 76 rrcurveto
        return
      </CharString>
      <CharString index="14">
        rmoveto
        -161.570007324 -31 -100.929992676 159 -71.5200042725 79.4600067139 rrcurveto
        564.789993286 vlineto
        33.1900024414 1.05999755859 27.1900024414 26.5899963379 33.4600067139 hhcurveto
        18.4600067139 -13 callsubr
        10 rlineto
        -206.070007324 -13 callsubr
        -10 rlineto
        18.4499969482 hlineto
        33.7400054932 27.3600006104 -27.0399932861 -33.5700073242 0.630004882812 hvcurveto
        -513.539993286 vlineto
        -503.36000061 559.779998779 -89.8300018311 99.8800048828 -105.38999939 105.710006714 -160 -67.2200012207 rlinecurve
        4 -10.0700073242 150 43.5500030518 100.910003662 -155.520004272 58.4299926758 -71.6900024414 rlinecurve
        -549.770004272 vlineto
        -33.5500030518 -0.649993896484 -27.3600006104 -27.0099945068 -33.7200012207 hhcurveto
        -13 callgsubr
        -80 callgsubr
        -10 rlineto
        205.990005493 hlineto
        -0.149993896484 10 rlineto
        -13 callgsubr
        -33.4700012207 -27.1999969482 26.6199951172 33.2100067139 -1.03999328613 hvcurveto
        500.130004883 vlineto
        527.419998169 -583.949996948 89.9799957275 -99 104.850006104 -90 160.919998169 51 rlinecurve
        return
      </CharString>
      <CharString index="15">
        rmoveto
        -137.940002441 -80 callgsubr
        -89.1399993896 -99 callgsubr
        16.2899932861 hlineto
        28.8899993896 23.4400024414 -20.7599945068 -28.7599945068 0.539993286133 hvcurveto
        -394.899993896 vlineto
        return
      </CharString>
      <CharString index="16">
        rmoveto
        -48.7200012207 -5.67999267578 -51 callsubr
        -29.8600006104 -34.8699951172 -43 -45.1900024414 43.8000030518 -32.25 hhcurveto
        -25.7200012207 -17.3399963379 -13.0299987793 -27.6999969482 -11.1399993896 hvcurveto
        -10 hlineto
        52.5299987793 7.44000244141 24.3999938965 32.1999969482 32.3600006104 45.25 40.8800048828 -42.8000030518 34.3099975586 hhcurveto
        28.2400054932 17.7299957275 10.75 22.8399963379 9.42999267578 hvcurveto
        return
      </CharString>
      <CharString index="17">
        rmoveto
        52.2799987793 2 43.0599975586 55 -25.9900054932 62 -13.5299987793 33 -38.9499969482 -2 -10.1900024414 -23 -8.96000671387 -20 16.9100036621 -14 10.4199981689 -13 13.6799926758 -16 7.96000671387 -42 -48.6399993896 -15 rrcurveto
        endchar
      </CharString>
      <CharString index="18">
        -47 callsubr
        20.1499938965 20.1499938965 -36 callgsubr
        -20.1499938965 20.1499938965 -36 callsubr
        -20.1499938965 -20.1499938965 -36 callsubr
        20.1499938965 -20.1499938965 -47 callsubr
        hvcurveto
        return
      </CharString>
      <CharString index="19">
        3 callsubr
        -0.649993896484 hvcurveto
        return
      </CharString>
      <CharString index="20">
        -84 callsubr
        -47 callgsubr
        return
      </CharString>
      <CharString index="21">
        hlineto
        -87 callsubr
        return
      </CharString>
      <CharString index="22">
        rmoveto
        165.86000061 158.720001221 -349.330001831 -176.509994507 hvcurveto
        -149.059997559 vlineto
        -34.5700073242 -0.919998168945 -28.8500061035 -27.6600036621 -33.7899932861 hhcurveto
        -13.1199951172 -25 callsubr
        -12.3099975586 hlineto
        -37 -27 30 32.8600006104 -0.399993896484 hvcurveto
        147.5 vlineto
        164.86000061 150.830001831 361.910003662 158.410003662 vhcurveto
        10 vlineto
        -197 -74.7700042725 -224.759994507 -156.600006104 -59.0200042725 hvcurveto
        -49.7700042725 135.729995728 -73.3800048828 255.630004883 -244.88999939 -10 rrcurveto
        endchar
      </CharString>
      <CharString index="23">
        rmoveto
        -53.3699951172 -40.4299926758 -31.1100006104 -43.8500061035 -43.8500061035 40.4299926758 -31.1100006104 53.3699951172 53.3699951172 40.4299926758 31.1100006104 43.8500061035 47.1600036621 -40.4299926758 27.8000030518 -53.3699951172 hvcurveto
        -17.1600036621 vmoveto
        27.6499938965 21.3600006104 -20.6000061035 -37.2100067139 -37.2100067139 -21.3600006104 -20.6000061035 -27.6499938965 -27.6499938965 -21.3600006104 20.6000061035 37.2100067139 37.2100067139 21.3600006104 20.6000061035 27.6499938965 hvcurveto
        return
      </CharString>
      <CharString index="24">
        -76.1399993896 -30.8699951172 -40.6900024414 -54.8099975586 -105.960006714 hhcurveto
        return
      </CharString>
      <CharString index="25">
        -7.82000732422 -57.5700073242 -9.96000671387 -43.1000061035 -0.410003662109 rrcurveto
        return
      </CharString>
      <CharString index="26">
        rmoveto
        41.9600067139 40.1000061035 38.9600067139 40.1000061035 35.9600067139 40.1000061035 -19.3000030518 8.19999694824 -21.3000030518 3.19999694824 -20.3000030518 1.19999694824 -24.3200073242 -43.6300048828 -22.3200073242 -43.6300048828 -20.3200073242 -43.6300048828 rrcurveto
        133.229995728 -2 rmoveto
        42.9600067139 39.1000061035 37.9600067139 41.1000061035 35.9600067139 40.1000061035 -18.3000030518 7.19999694824 -22.3000030518 5.19999694824 -20.3000030518 0.199996948242 -27.3200073242 -43.6300048828 -21.3200073242 -43.6300048828 -18.3200073242 -43.6300048828 rrcurveto
        return
      </CharString>
      <CharString index="27">
        -0.160003662109 return
      </CharString>
      <CharString index="28">
        764.149993896 rmoveto
        -10 hlineto
        -114.179992676 118.850006104 6 8 113.63999939 -66.1000061035 104.660003662 66 6 -8 rlineto
        return
      </CharString>
      <CharString index="29">
        -63 callsubr
        -26.1199951172 -74 callgsubr
        return
      </CharString>
      <CharString index="30">
        -82 callgsubr
        -202.229995728 -103 callsubr
        484.559997559 hlineto
        endchar
      </CharString>
      <CharString index="31">
        12.6499938965 hlineto
        return
      </CharString>
      <CharString index="32">
        vlineto
        -32.1600036621 -3.44000244141 -16 callsubr
        -25.0599975586 -33.0800018311 -95 callgsubr
        338.179992676 -1 callgsubr
        139.880004883 210.179992676 209.759994507 -145.600006104 135.300003052 -213.539993286 4.58999633789 hvcurveto
        -88.0800018311 1.88999938965 -74.4299926758 2.16999816895 -62.8099975586 -1.08999633789 -169.220001221 -2.94000244141 -84.9900054932 -26.6300048828 -40 -119.529998779 rrcurveto
        322.979995728 116.570007324 rmoveto
        -20 callsubr
        171.399993896 -0.830001831055 112.740005493 -127.710006714 -191.559997559 vvcurveto
        -192.13999939 -113.740005493 -128.089996338 -170.399993896 vhcurveto
        -196.550003052 hlineto
        endchar
      </CharString>
      <CharString index="33">
        -32.0700073242 vvcurveto
        -17.8200073242 13 callsubr
        -0.149993896484 rlineto
        125.720001221 vlineto
        -18.7299957275 -7.88999938965 -58.4799957275 -10.0700073242 return
      </CharString>
      <CharString index="34">
        5 -10 35.6300048828 15 46.6399993896 -6 1.5 -42 rlinecurve
        -48 1.74000549316 -50.75 -16 -41.0200042725 hhcurveto
        -0.729995727539 -10 67.0200042725 -21 75.7400054932 31 -2 63 rlinecurve
        -2.16999816895 69 -67.6900024414 1 -34.9900054932 -12 return
      </CharString>
      <CharString index="35">
        -17 callgsubr
        -14.6399993896 -64 callsubr
        return
      </CharString>
      <CharString index="36">
        -66 callgsubr
        -22 callgsubr
        -0.149993896484 rlineto
        80.3000030518 vlineto
        16.6900024414 -33 callgsubr
        return
      </CharString>
      <CharString index="37">
        0.160003662109 return
      </CharString>
      <CharString index="38">
        -97 -17.1000061035 -42.1600036621 -59.4499969482 -51.6900024414 hhcurveto
        -51.6900024414 -21.1999969482 59.4499969482 97 17.1000061035 hvcurveto
        97 17.1000061035 42.1600036621 59.4499969482 51.6900024414 hhcurveto
        51.6900024414 21.1999969482 -59.4499969482 -97 -17.1000061035 hvcurveto
        return
      </CharString>
      <CharString index="39">
        171.270004272 476.809997559 -100 callgsubr
        rrcurveto
        -40.6399993896 39.3000030518 81 -14 49 hhcurveto
        115 72.25 76.3899993896 110.61000061 -45 callsubr
        hvcurveto
        return
      </CharString>
      <CharString index="40">
        -70 callgsubr
        -9.94000244141 -72 callsubr
        return
      </CharString>
</ttFont>
